<?xml version="1.0" encoding="UTF-8"?>
<svg xmlns="http://www.w3.org/2000/svg" viewBox="0 0 144 275">
  <defs>
    <style>
      .cls-1 {
        fill: none;
      }

      .cls-1, .cls-2, .cls-3, .cls-4, .cls-5, .cls-6, .cls-7, .cls-8 {
        stroke-miterlimit: 10;
      }

      .cls-1, .cls-2, .cls-3, .cls-4, .cls-5, .cls-7 {
        stroke-width: 3px;
      }

      .cls-1, .cls-5 {
        stroke: #006837;
      }

      .cls-2 {
        fill: #898bc5;
        stroke: #898bc5;
      }

      .cls-3, .cls-8 {
        fill: #fff;
        stroke: #fff;
      }

      .cls-4 {
        fill: #8cc63f;
        stroke: #8cc63f;
      }

      .cls-5 {
        fill: #006837;
      }

      .cls-6 {
        fill: #6eae00;
        stroke: #6eae00;
      }

      .cls-7 {
        fill: #6b74b5;
        stroke: #6b74b5;
      }
    </style>
  </defs>
  <g id="Layer_27" data-name="Layer 27">
    <path class="cls-4" d="M121.5,191.5c-1.97-1.8-10.72,5.19-18,11-9.61,7.68-11.56,11.39-12,15-.06.47-.75,6.62,2,8,4.53,2.28,15.03-10.04,20-17,.49-.68,10.45-14.76,8-17Z"/>
    <path class="cls-4" d="M90.5,212.5c-2.98.91-6.96-4.31-9-7-9.03-11.86-11.69-27.85-9-29,.85-.36,1.58,1.05,9,9,8.96,9.59,11.08,10.92,12,15,1.12,4.96-.18,11.14-3,12Z"/>
    <path class="cls-4" d="M96.5,177.5c1.57-6.53,5.77-10.78,7-12,3.72-3.67,15.35-14.27,18-12,2.27,1.94-2.69,12.82-10,20-5.21,5.13-13.05,9.78-15,8-.77-.7-.43-2.23,0-4Z"/>
    <path class="cls-4" d="M92.5,168.5c-2.86,1.21-8.74-5.6-12-11-4.69-7.78-6.69-17.18-5-18,.71-.34,1.51,1.09,5,4,6.79,5.65,9.54,5.01,12,9,2.17,3.51,2.05,7.27,2,9-.08,2.48-.19,6.24-2,7Z"/>
    <path class="cls-4" d="M105.5,115.5c1.18,1.63,5.25.49,7,0,10.02-2.81,16.93-11.82,16-13-.6-.76-3.66,2.66-11,4-4.5.82-6.55.12-9,2-2.48,1.91-4.1,5.49-3,7Z"/>
    <path class="cls-4" d="M112.5,99.5c-1.74-.79-1.87-3.84-2-6-.73-12.11-2.2-11.84-1-15,.43-1.15,2.54-6.69,8-8,4.2-1.01,8.71.9,11,4,5.12,6.93-2.63,17.51-3,18,0,0-3.6,4.78-11,7-.45.14-1.24.34-2,0Z"/>
    <path class="cls-4" d="M60.5,91.5c-6.61.5-13.97-6.29-13-9,1.25-3.47,16.18-.38,18,0,3.02.63,6.86,1.45,7,3,.2,2.22-7.31,4.77-8,5-1.6.53-2.7.9-4,1Z"/>
    <path class="cls-4" d="M66.5,77.5c-.71.64-2.34-.38-4-1-6.56-2.45-13.95,1.19-14,1-.04-.17,6.33-.47,8-4,1.45-3.06-1.51-6.67,0-8,1.35-1.2,4.2,1.29,6,0,1.97-1.41.83-5.99,1-6,.19-.02-.32,6.21,2,13,.78,2.28,1.77,4.3,1,5Z"/>
  </g>
  <g id="Layer_26" data-name="Layer 26">
    <path class="cls-5" d="M78.5,270.5c-2.6-2.75.43-8.99,3-16,.44-1.21,2.3-8.47,6-23,3.4-13.34,4.31-23.94,5-32,1.21-14.17-.1-14.9,1-35,.68-12.49,1.18-12.06,2-26,.62-10.54.74-18.03,1-33,.29-17.1.43-25.85,0-36-.67-15.98-2.1-25.99-2-26,.15-.02,3.74,21.98,4,49,.05,4.84-.05,6.53,0,22,.05,15.32.15,17.34,0,24-.13,6.03-.25,5.71-1,23-.72,16.45-.6,16.49-1,23-.76,12.54-1.75,21.7-2,24-1.51,13.75-2.26,20.62-4,27-3.14,11.5-5.35,11.86-6,20-.63,7.94.91,14.66-2,16-1.24.57-3.02.04-4-1Z"/>
    <path class="cls-1" d="M63.5,73.5c2.44,2.93,5.75,7.12,9.31,12.37,8.65,12.75,13.35,23.75,16.75,31.81,2.19,5.19,4.86,12.06,7.44,20.32"/>
    <path class="cls-1" d="M74.5,115.5c4.16,2.9,10.08,7.78,15.37,15.3,4.27,6.09,6.71,11.89,8.13,16.2"/>
    <path class="cls-1" d="M112,100c-1.89,3.18-3.79,6.7-5.62,10.57-4.53,9.54-7.45,18.63-9.38,26.43"/>
  </g>
  <g id="Layer_28" data-name="Layer 28">
    <path class="cls-2" d="M63.5,59.5c0-4.6-8-15-8-15-8.46-11,3.44-31.98,1-33-2.34-.98-12.23,18.48-13,20-.79,1.56-.86,2-1,2-.38,0,.27-3.02-1-5-2.33-3.62-8.73.01-16-4-1.13-.62-2.33-1.46-3-1-.97.67.42,3.24,1,7,1.13,7.31-2.22,9.78,0,14,1.62,3.07,4.3,3.48,4,5-.37,1.86-4.38,1.07-10,4-2.66,1.38-1.53,1.44-9,7-2.88,2.14-4.12,2.93-4,4,.17,1.51,2.83,1.44,7,4,4.15,2.55,4.05,4.18,7,5,3.66,1.02,6.72-.67,7,0,.27.66-2.81,2.01-5,4-7.1,6.47-5.72,20.66-4,21,.65.13.88-1.84,3-5,4.49-6.71,11.41-9.71,19-13,4.25-1.84,6.95-3.02,11-4,5.68-1.38,7.64-.84,10-3,2.91-2.66,3.99-7.21,4-9,0-.04,0-.12,0-3,0-.67,0-1.33,0-2Z"/>
  </g>
  <g id="Layer_29" data-name="Layer 29">
    <path class="cls-2" d="M81.5,60.5c1.86,1.46,1.01,2.73,3,8,2.75,7.28,8.09,14.76,11,14,1.17-.31,1.04-1.72,3-5,2.34-3.92,3.84-4.08,6-7,4.65-6.29,1.95-11.27,6-14,1.7-1.14,2.19-.28,7-1,6.6-.99,11.19-3.43,16-6,4.63-2.47,6.94-3.7,7-5,.08-1.77-.31-2.82-21-11,.37-3.29.81-8.13,1-14,.46-14.32-1.23-15.63-2-16-2.62-1.27-6.95,2.41-10,5-7.46,6.33-7.55,11.22-12,12-3.29.58-3.99-1.96-11-4-1.94-.57-11.56-3.37-14,0-1.21,1.67.16,3.71,2,11,1.4,5.56,3.36,8.37,2,10-.69.82-1.66.76-3,1-8.48,1.49-13.18,11.29-14,13-1.59,3.32-1.21,4.52-1,5,.59,1.35,2.22,2.36,7,3,9.93,1.34,13.76-1.54,17,1Z"/>
    <path class="cls-2" d="M60.5,128.5c2.85.66,3.21,1.92,7,4,1.04.57,10.85,5.87,14,3,2.1-1.91-.88-5.49,0-14,.36-3.54.72-6.96,3-10,3.1-4.12,6.5-3.21,12-7,5.47-3.77,10.46-10.44,9-13-2.17-3.8-17.11,3.9-22-2-1.73-2.09-.32-3.6-2-9-1.5-4.8-5.3-12.24-9-12-3.94.25-6.99,9.19-8,14-1.11,5.28-.12,7.18-2,9-1.98,1.92-4.57,1.25-14,1-11-.29-11.75.51-12,1-1.79,3.51,11.98,11.23,10,18-.56,1.93-1.85,1.89-5,5-5.22,5.15-10,13.44-8,16,1.78,2.28,8.96.12,16-2,5.06-1.52,7.42-2.83,11-2Z"/>
  </g>
  <g id="Layer_30" data-name="Layer 30">
    <path class="cls-7" d="M65.5,51.5c-.51-1.83,7.26-5.64,8-6,6.95-3.41,10.08-2.65,11-5,.95-2.42-1.95-4.31-5-13-1.74-4.97-1.27-5.72-1-6,1.74-1.79,8.95,1.29,14,5,3.55,2.61,4.19,4.17,6,4,2.77-.27,3.38-4.13,8-10,1.45-1.84,6.2-7.86,8-7,2.22,1.06,1.68,13.36-3,20-.42.6-1.32,1.78-1,3,.52,1.97,3.78,2.36,9,4,3.78,1.18,9.09,2.85,9,4-.16,2-16.39-1.35-23,7-.53.67-1.69,3.45-4,9-3.77,9.05-4.49,11.98-6,12-1.33.02-1.88-2.26-6-10-2.26-4.25-3.4-6.38-4-7-6.3-6.45-19.35-1.67-20-4Z"/>
    <path class="cls-7" d="M53.5,110.5c-2.58,3.12-5.61,6.81-9,11-3.53,4.36-4.37,5.46-4,6,1.05,1.52,12.16-1.14,17-7,.48-.58,1.51-1.93,3-2,1.86-.09,3.15,1.87,5,4,2.78,3.2,7.66,7.77,9,7,1.28-.74-2.03-5.62-1-13,.38-2.68.79-5.62,3-8,2.9-3.12,5.99-2.16,13-6,2.21-1.21,5.27-2.88,5-4-.28-1.17-5.21,1.16-10-1-3.72-1.68-5.87-5.36-8-9-2.65-4.53-2.84-7.02-4-7-1.23.02-1.94,2.85-6,13-1.28,3.2-1.47,3.56-2,4-4.47,3.7-13.74-3.35-16-1-1.02,1.06-.72,4.15,5,13Z"/>
    <path class="cls-7" d="M27.5,83.5c4.09-4.47,6.13-6.71,9-9,3.05-2.43,4.55-3.1,5-5,.95-4.02-4.57-6.2-4-10,.64-4.29,8.03-3.89,12-10,2.08-3.2,1.38-5.35,2-12,1.37-14.63,6.46-22.27,5-23-1.63-.82-8.56,8.45-13,17-.15.29-.18,1.46-1,2-1.22.8-2.98-.31-5-1-2.52-.86-7.46-1.74-9,0-1.91,2.16,2.92,6.61,2,14-.36,2.91-1.45,4.97-2,6-4.65,8.79-17.83,7.86-18,11-.19,3.43,14.92,5.44,15,10,.04,2.62-4.92,2.94-8,8-3.65,5.99-2.11,14.49,0,15,1.75.42,2.66-4.96,10-13Z"/>
  </g>
  <g id="Layer_32" data-name="Layer 32">
    <path class="cls-3" d="M91.5,43.5c2.09,1.87.36,6.83,1,7,.62.16,1.53-4.59,4-5,1.02-.17,1.42.56,4,1,.86.15,2.8.48,3,0,.33-.78-4.56-2.17-5-5-.5-3.25,5.15-6.82,5-7-.16-.18-4.71,5.01-8,4-2.83-.87-3.86-6.06-4-6-.14.05,2.49,4.35,1,7-1.28,2.27-5.1,2.43-5,3,.08.47,2.58-.26,4,1Z"/>
    <path class="cls-8" d="M63.5,107.5c.38,2.46-2.27,4.77-2,5,.3.26,2.65-3.32,5-3,2.31.32,3.45,4.22,4,4,.54-.22-1.37-3.65,0-6,1.49-2.56,6.06-2.46,6-3-.06-.58-5.14.46-7-2-1.21-1.59-.51-3.91-1-4-.74-.13-1.31,5.25-4,6-1.81.5-3.8-1.31-4-1-.22.34,2.64,1.68,3,4Z"/>
    <path class="cls-8" d="M33.46,58.05c.31,2.03-1.85,3.92-1.63,4.11.24.21,2.16-2.74,4.08-2.47,1.88.26,2.82,3.47,3.27,3.29.44-.18-1.12-3.01,0-4.94,1.21-2.1,4.95-2.02,4.9-2.47-.05-.48-4.2.38-5.72-1.65-.99-1.31-.41-3.22-.82-3.29-.6-.11-1.07,4.32-3.27,4.94-1.48.41-3.1-1.08-3.27-.82-.18.28,2.16,1.39,2.45,3.29Z"/>
  </g>
  <g id="Layer_33" data-name="Layer 33">
    <path class="cls-6" d="M96.5,221.5c-.2-.29,3.56-2.35,9-8,9.46-9.83,13.26-19.36,14-19,.53.26-.72,5.6-4,11-6.83,11.26-18.65,16.49-19,16Z"/>
    <path class="cls-6" d="M87.5,209.5c-.39.31-5.96-4.6-10-12-4.87-8.93-5.52-17.86-5-18,.47-.13,1.77,7.03,7,17,4.32,8.23,8.35,12.72,8,13Z"/>
    <path class="cls-6" d="M99.5,179.5c.33.41,7.67-3.76,14-11,5.41-6.19,8.42-12.72,8-13-.4-.27-3.73,5.12-11,13-6.81,7.39-11.27,10.66-11,11Z"/>
    <path class="cls-6" d="M89.5,167.5c-.31.24-5.18-4.31-9-11-4.02-7.04-5.38-13.86-5-14,.36-.13,2.14,5.56,7,14,4.08,7.08,7.26,10.79,7,11Z"/>
    <path class="cls-6" d="M112.5,96.5c-.3-.81,7.37-2.12,11-8,3.83-6.2.88-13.78,2-14,.87-.17,3.44,4.22,3,9-.74,7.98-9.38,11.74-10,12-2.78,1.16-5.81,1.5-6,1Z"/>
    <path class="cls-6" d="M107.5,114.5c-.06-.5,5.78-1.7,9-3,1.64-.66,3.17-1.52,3.17-1.52s.43-.24.83-.48c2.63-1.59,5.87-5.11,6-5,.1.08-1.3,2.52-4,5-1.53,1.4-4.47,4.03-9,5-3.08.66-5.96.35-6,0Z"/>
  </g>
</svg>