<?xml version="1.0" encoding="UTF-8"?>
<svg xmlns="http://www.w3.org/2000/svg" viewBox="0 0 540 569">
  <defs>
    <style>
      .cls-1, .cls-2, .cls-3, .cls-4, .cls-5 {
        fill: none;
      }

      .cls-6 {
        fill: #fdd24f;
      }

      .cls-7 {
        fill: #009a23;
      }

      .cls-7, .cls-2, .cls-3, .cls-8, .cls-9, .cls-10, .cls-11, .cls-4, .cls-12, .cls-13, .cls-14, .cls-15, .cls-16, .cls-17, .cls-5, .cls-18, .cls-19 {
        stroke-miterlimit: 10;
      }

      .cls-7, .cls-14 {
        stroke: #009a28;
      }

      .cls-2, .cls-3, .cls-8, .cls-9, .cls-11, .cls-4, .cls-12, .cls-15 {
        stroke-width: 3px;
      }

      .cls-2, .cls-12 {
        stroke: #006837;
      }

      .cls-20 {
        fill: #3a6654;
      }

      .cls-3 {
        stroke: #007210;
      }

      .cls-21 {
        fill: #e8aaa9;
      }

      .cls-8 {
        fill: #898bc5;
        stroke: #898bc5;
      }

      .cls-22 {
        fill: #ffd35a;
      }

      .cls-23 {
        fill: #f4d1cd;
      }

      .cls-24 {
        fill: #637959;
      }

      .cls-25 {
        fill: #feb3b0;
      }

      .cls-26 {
        fill: #4a5906;
      }

      .cls-9, .cls-27, .cls-18 {
        fill: #fff;
      }

      .cls-9, .cls-18 {
        stroke: #fff;
      }

      .cls-10 {
        fill: #007f08;
        stroke: #007f08;
      }

      .cls-11 {
        fill: #8cc63f;
        stroke: #8cc63f;
      }

      .cls-4 {
        stroke: #005d2d;
      }

      .cls-12 {
        fill: #006837;
      }

      .cls-28 {
        fill: #fabf01;
      }

      .cls-13 {
        fill: #6eae00;
        stroke: #6eae00;
      }

      .cls-29 {
        fill: #9ab48e;
      }

      .cls-30 {
        fill: #e7dfbb;
      }

      .cls-14 {
        fill: #009a28;
      }

      .cls-31 {
        fill: #faa701;
      }

      .cls-32 {
        fill: #778432;
      }

      .cls-33 {
        fill: #89b238;
      }

      .cls-15 {
        fill: #6b74b5;
        stroke: #6b74b5;
      }

      .cls-34 {
        fill: #75a978;
      }

      .cls-16 {
        fill: #8b5bf9;
        stroke: #8b5bf9;
      }

      .cls-17 {
        fill: #8cb23b;
        stroke: #8cb23b;
      }

      .cls-5 {
        stroke: #000;
        stroke-width: .5px;
      }

      .cls-35, .cls-19 {
        fill: #36695d;
      }

      .cls-19 {
        stroke: #36695d;
      }

      .cls-36 {
        fill: #768e2c;
      }

      .cls-37 {
        fill: #f6be37;
      }

      .cls-38 {
        fill: #ffd6d7;
      }

      .cls-39 {
        fill: #ffc5c4;
      }
    </style>
  </defs>
  <g id="Layer_36">
    <path class="cls-3" d="M204.68,502.42c-3-8.1-7.78-20.17-14.68-34.33-9.03-18.53-16.46-29.95-37.3-62.5-32.56-50.85-27.88-44.01-34-53.22-11.85-17.82-27.38-40.43-46.4-66.27"/>
    <path class="cls-4" d="M216.25,492.82c-4.49-5.44-10.99-13.03-19.25-21.71-5.59-5.87-22.11-22.9-58.11-51.01-20.79-16.23-36.92-27.45-57.64-41.8-20.02-13.87-37.04-25.11-49.37-33.1"/>
    <path class="cls-14" d="M181.81,456.57c-.48,1.62-10.26.04-17.65-1.16-22.97-3.72-39.87-10.07-44.26-11.75-21.08-8.05-62.69-25.22-61.51-28.46.58-1.61,11.42,1,24.65,4.17,18.02,4.32,33.13,9.36,51.22,16.17,20.58,7.75,48.39,18.21,47.56,21.03Z"/>
    <path class="cls-7" d="M185.29,458.78c3.06-.61,1.37-20.77,1.27-21.89-2.13-24.46-10.11-43.4-14.9-53.43-13.62-28.56-33.6-52.7-36.17-51.15-.46.28-.49,1.47,2.57,9.97,7.41,20.56,12.87,28.26,19.39,43.65,6.35,14.96,10.52,29.69,11.2,32.12,1.42,5.08,3.57,13.33,7.87,24.25,3.04,7.74,6.65,16.92,8.77,16.49Z"/>
    <circle class="cls-16" cx="75.75" cy="372.5" r="2"/>
    <ellipse class="cls-16" cx="75.96" cy="364.08" rx="1.97" ry="2.03" transform="translate(-237.27 163.56) rotate(-45.59)"/>
    <ellipse class="cls-16" cx="60.62" cy="375.17" rx="1.97" ry="2.03" transform="translate(-249.8 155.92) rotate(-45.59)"/>
    <ellipse class="cls-16" cx="67.61" cy="378.18" rx="1.97" ry="2.03" transform="translate(-249.85 161.83) rotate(-45.59)"/>
    <ellipse class="cls-16" cx="36.3" cy="330.69" rx="1.97" ry="2.03" transform="translate(-225.33 125.2) rotate(-45.59)"/>
    <ellipse class="cls-16" cx="43.26" cy="335.11" rx="1.97" ry="2.03" transform="translate(-226.4 131.5) rotate(-45.59)"/>
    <ellipse class="cls-16" cx="53.73" cy="340.34" rx="1.97" ry="2.03" transform="translate(-226.98 140.55) rotate(-45.59)"/>
    <ellipse class="cls-16" cx="65.59" cy="347.01" rx="1.97" ry="2.03" transform="translate(-228.19 151.02) rotate(-45.59)"/>
    <ellipse class="cls-16" cx="71.75" cy="354.94" rx="1.97" ry="2.03" transform="translate(-232.01 157.8) rotate(-45.59)"/>
    <ellipse class="cls-16" cx="34.16" cy="358.93" rx="1.97" ry="2.03" transform="translate(-246.14 132.15) rotate(-45.59)"/>
    <ellipse class="cls-16" cx="42.53" cy="363.39" rx="1.97" ry="2.03" transform="translate(-246.81 139.47) rotate(-45.59)"/>
    <ellipse class="cls-16" cx="55.04" cy="372.2" rx="1.97" ry="2.03" transform="translate(-249.35 151.04) rotate(-45.59)"/>
    <ellipse class="cls-16" cx="17.34" cy="325.25" rx="1.97" ry="2.03" transform="translate(-227.13 110.02) rotate(-45.59)"/>
    <ellipse class="cls-16" cx="10.09" cy="332.14" rx="1.97" ry="2.03" transform="translate(-234.23 106.91) rotate(-45.59)"/>
    <ellipse class="cls-16" cx="14.04" cy="343.56" rx="1.97" ry="2.03" transform="translate(-241.2 113.16) rotate(-45.59)"/>
    <ellipse class="cls-16" cx="18.82" cy="350.05" rx="1.97" ry="2.03" transform="translate(-244.4 118.53) rotate(-45.59)"/>
    <ellipse class="cls-16" cx="27.85" cy="356.65" rx="1.97" ry="2.03" transform="translate(-246.4 126.96) rotate(-45.59)"/>
    <ellipse class="cls-16" cx="48.66" cy="372.74" rx="1.97" ry="2.03" transform="translate(-251.65 146.65) rotate(-45.59)"/>
    <ellipse class="cls-16" cx="28.36" cy="364.44" rx="1.97" ry="2.03" transform="translate(-251.82 129.66) rotate(-45.59)"/>
    <ellipse class="cls-16" cx="38.8" cy="371.07" rx="1.97" ry="2.03" transform="translate(-253.42 139.11) rotate(-45.59)"/>
    <ellipse class="cls-16" cx="51.3" cy="352.3" rx="1.97" ry="2.03" transform="translate(-236.26 142.4) rotate(-45.59)"/>
    <ellipse class="cls-16" cx="21.8" cy="344.47" rx="1.97" ry="2.03" transform="translate(-239.52 118.97) rotate(-45.59)"/>
    <ellipse class="cls-16" cx="39.59" cy="339.97" rx="1.97" ry="2.03" transform="translate(-230.97 130.34) rotate(-45.59)"/>
    <ellipse class="cls-16" cx="48.66" cy="345.16" rx="1.97" ry="2.03" transform="translate(-231.95 138.37) rotate(-45.59)"/>
    <ellipse class="cls-16" cx="56.38" cy="347.48" rx="1.97" ry="2.03" transform="translate(-231.29 144.58) rotate(-45.59)"/>
    <ellipse class="cls-16" cx="61.89" cy="353.28" rx="1.97" ry="2.03" transform="translate(-233.78 150.26) rotate(-45.59)"/>
    <ellipse class="cls-16" cx="66.71" cy="358.35" rx="1.97" ry="2.03" transform="translate(-235.96 155.23) rotate(-45.59)"/>
    <ellipse class="cls-16" cx="68.67" cy="364.77" rx="1.97" ry="2.03" transform="translate(-239.95 158.55) rotate(-45.59)"/>
    <ellipse class="cls-16" cx="68.48" cy="371.84" rx="1.97" ry="2.03" transform="translate(-245.06 160.54) rotate(-45.59)"/>
    <ellipse class="cls-16" cx="62.9" cy="368.86" rx="1.97" ry="2.03" transform="translate(-244.61 155.66) rotate(-45.59)"/>
    <ellipse class="cls-16" cx="48.29" cy="359.29" rx="1.97" ry="2.03" transform="translate(-242.16 142.35) rotate(-45.59)"/>
    <ellipse class="cls-16" cx="55.91" cy="365.86" rx="1.97" ry="2.03" transform="translate(-244.56 149.76) rotate(-45.59)"/>
    <ellipse class="cls-16" cx="40.61" cy="355.56" rx="1.97" ry="2.03" transform="translate(-241.8 135.74) rotate(-45.59)"/>
    <ellipse class="cls-16" cx="32.92" cy="351.83" rx="1.97" ry="2.03" transform="translate(-241.44 129.13) rotate(-45.59)"/>
    <ellipse class="cls-16" cx="49.53" cy="366.4" rx="1.97" ry="2.03" transform="translate(-246.86 145.37) rotate(-45.59)"/>
    <ellipse class="cls-16" cx="27.34" cy="348.85" rx="1.97" ry="2.03" transform="translate(-240.99 124.25) rotate(-45.59)"/>
    <ellipse class="cls-16" cx="56.12" cy="357.37" rx="1.97" ry="2.03" transform="translate(-238.43 147.37) rotate(-45.59)"/>
    <ellipse class="cls-16" cx="43.8" cy="369.08" rx="1.97" ry="2.03" transform="translate(-250.5 142.08) rotate(-45.59)"/>
    <ellipse class="cls-16" cx="36.84" cy="364.66" rx="1.97" ry="2.03" transform="translate(-249.43 135.78) rotate(-45.59)"/>
    <ellipse class="cls-16" cx="61.67" cy="361.76" rx="1.97" ry="2.03" transform="translate(-239.9 152.65) rotate(-45.59)"/>
    <ellipse class="cls-16" cx="43.58" cy="349.98" rx="1.97" ry="2.03" transform="translate(-236.92 136.19) rotate(-45.59)"/>
    <ellipse class="cls-16" cx="37.27" cy="347.69" rx="1.97" ry="2.03" transform="translate(-237.18 131) rotate(-45.59)"/>
    <ellipse class="cls-16" cx="32.45" cy="342.62" rx="1.97" ry="2.03" transform="translate(-235 126.03) rotate(-45.59)"/>
    <ellipse class="cls-16" cx="25.49" cy="338.19" rx="1.97" ry="2.03" transform="translate(-233.93 119.73) rotate(-45.59)"/>
    <ellipse class="cls-16" cx="17.77" cy="335.87" rx="1.97" ry="2.03" transform="translate(-234.59 113.52) rotate(-45.59)"/>
    <ellipse class="cls-16" cx="24.26" cy="331.09" rx="1.97" ry="2.03" transform="translate(-229.22 116.72) rotate(-45.59)"/>
    <ellipse class="cls-16" cx="31.91" cy="336.24" rx="1.97" ry="2.03" transform="translate(-230.61 123.73) rotate(-45.59)"/>
    <ellipse class="cls-16" cx="66.52" cy="287.35" rx="1.97" ry="2.03" transform="translate(-185.3 133.78) rotate(-45.59)"/>
    <ellipse class="cls-16" cx="71.66" cy="279.71" rx="1.97" ry="2.03" transform="translate(-178.29 135.16) rotate(-45.59)"/>
    <ellipse class="cls-16" cx="64.56" cy="280.94" rx="1.97" ry="2.03" transform="translate(-181.3 130.45) rotate(-45.59)"/>
    <ellipse class="cls-16" cx="76.05" cy="274.16" rx="1.97" ry="2.03" transform="translate(-173.01 136.62) rotate(-45.59)"/>
    <ellipse class="cls-16" cx="69.71" cy="273.29" rx="1.97" ry="2.03" transform="translate(-174.29 131.83) rotate(-45.59)"/>
    <ellipse class="cls-16" cx="60.64" cy="268.1" rx="1.97" ry="2.03" transform="translate(-173.31 123.8) rotate(-45.59)"/>
    <ellipse class="cls-16" cx="81.63" cy="277.13" rx="1.97" ry="2.03" transform="translate(-173.46 141.5) rotate(-45.59)"/>
    <ellipse class="cls-16" cx="84.89" cy="287.83" rx="1.97" ry="2.03" transform="translate(-180.12 147.05) rotate(-45.59)"/>
    <ellipse class="cls-16" cx="63.33" cy="273.83" rx="1.97" ry="2.03" transform="translate(-176.6 127.44) rotate(-45.59)"/>
    <ellipse class="cls-16" cx="67.06" cy="293.73" rx="1.97" ry="2.03" transform="translate(-189.69 136.08) rotate(-45.59)"/>
    <ellipse class="cls-16" cx="63.22" cy="305.66" rx="1.97" ry="2.03" transform="translate(-199.36 136.91) rotate(-45.59)"/>
    <ellipse class="cls-16" cx="70.9" cy="309.39" rx="1.97" ry="2.03" transform="translate(-199.73 143.52) rotate(-45.59)"/>
    <ellipse class="cls-16" cx="76.41" cy="315.19" rx="1.97" ry="2.03" transform="translate(-202.21 149.2) rotate(-45.59)"/>
    <ellipse class="cls-16" cx="59.16" cy="298.48" rx="1.97" ry="2.03" transform="translate(-195.46 131.86) rotate(-45.59)"/>
    <ellipse class="cls-16" cx="56.51" cy="291.34" rx="1.97" ry="2.03" transform="translate(-191.15 127.82) rotate(-45.59)"/>
    <ellipse class="cls-16" cx="59.48" cy="285.76" rx="1.97" ry="2.03" transform="translate(-186.27 128.27) rotate(-45.59)"/>
    <ellipse class="cls-16" cx="58.98" cy="277.96" rx="1.97" ry="2.03" transform="translate(-180.85 125.57) rotate(-45.59)"/>
    <ellipse class="cls-16" cx="54.92" cy="270.79" rx="1.97" ry="2.03" transform="translate(-176.95 120.52) rotate(-45.59)"/>
    <ellipse class="cls-16" cx="55.82" cy="263.03" rx="1.97" ry="2.03" transform="translate(-171.13 118.84) rotate(-45.59)"/>
    <ellipse class="cls-16" cx="64.31" cy="263.25" rx="1.97" ry="2.03" transform="translate(-168.74 124.96) rotate(-45.59)"/>
    <ellipse class="cls-16" cx="71.27" cy="267.67" rx="1.97" ry="2.03" transform="translate(-169.81 131.26) rotate(-45.59)"/>
    <ellipse class="cls-16" cx="79.71" cy="269.3" rx="1.97" ry="2.03" transform="translate(-168.44 137.78) rotate(-45.59)"/>
    <ellipse class="cls-16" cx="87.21" cy="280.1" rx="1.97" ry="2.03" transform="translate(-173.91 146.38) rotate(-45.59)"/>
    <ellipse class="cls-16" cx="93.41" cy="286.63" rx="1.97" ry="2.03" transform="translate(-176.71 152.77) rotate(-45.59)"/>
    <ellipse class="cls-16" cx="99.54" cy="295.98" rx="1.97" ry="2.03" transform="translate(-181.55 159.95) rotate(-45.59)"/>
    <ellipse class="cls-16" cx="106.43" cy="303.23" rx="1.97" ry="2.03" transform="translate(-184.66 167.05) rotate(-45.59)"/>
    <ellipse class="cls-16" cx="108.2" cy="316.72" rx="1.97" ry="2.03" transform="translate(-193.76 172.37) rotate(-45.59)"/>
    <ellipse class="cls-16" cx="107.95" cy="326.61" rx="1.97" ry="2.03" transform="translate(-200.91 175.16) rotate(-45.59)"/>
    <ellipse class="cls-16" cx="78.37" cy="321.61" rx="1.97" ry="2.03" transform="translate(-206.21 152.52) rotate(-45.59)"/>
    <ellipse class="cls-16" cx="94.39" cy="331.22" rx="1.97" ry="2.03" transform="translate(-208.26 166.85) rotate(-45.59)"/>
    <ellipse class="cls-16" cx="103.49" cy="334.99" rx="1.97" ry="2.03" transform="translate(-208.23 174.49) rotate(-45.59)"/>
    <ellipse class="cls-16" cx="89.87" cy="325" rx="1.97" ry="2.03" transform="translate(-205.18 161.76) rotate(-45.59)"/>
    <ellipse class="cls-16" cx="94.26" cy="319.45" rx="1.97" ry="2.03" transform="translate(-199.9 163.23) rotate(-45.59)"/>
    <ellipse class="cls-16" cx="82.41" cy="312.78" rx="1.97" ry="2.03" transform="translate(-198.69 152.76) rotate(-45.59)"/>
    <ellipse class="cls-16" cx="93.35" cy="299.62" rx="1.97" ry="2.03" transform="translate(-186.01 156.63) rotate(-45.59)"/>
    <ellipse class="cls-16" cx="82.66" cy="302.89" rx="1.97" ry="2.03" transform="translate(-191.55 149.97) rotate(-45.59)"/>
    <ellipse class="cls-16" cx="76.9" cy="306.98" rx="1.97" ry="2.03" transform="translate(-196.2 147.08) rotate(-45.59)"/>
    <ellipse class="cls-16" cx="90.02" cy="291.76" rx="1.97" ry="2.03" transform="translate(-211.98 246.8) rotate(-64.39)"/>
    <ellipse class="cls-16" cx="85.71" cy="294.48" rx="1.97" ry="2.03" transform="translate(-184.62 149.62) rotate(-45.59)"/>
    <ellipse class="cls-16" cx="79.25" cy="297.85" rx="1.97" ry="2.03" transform="translate(-188.97 146.02) rotate(-45.59)"/>
    <ellipse class="cls-16" cx="73.49" cy="301.94" rx="1.97" ry="2.03" transform="translate(-193.63 143.14) rotate(-45.59)"/>
    <ellipse class="cls-16" cx="78.02" cy="290.74" rx="1.97" ry="2.03" transform="translate(-184.26 143.01) rotate(-45.59)"/>
    <ellipse class="cls-16" cx="78.2" cy="283.67" rx="1.97" ry="2.03" transform="translate(-179.16 141.02) rotate(-45.59)"/>
    <ellipse class="cls-16" cx="72.48" cy="286.36" rx="1.97" ry="2.03" transform="translate(-182.8 137.73) rotate(-45.59)"/>
    <ellipse class="cls-16" cx="66.46" cy="300.35" rx="1.97" ry="2.03" transform="translate(-194.6 137.63) rotate(-45.59)"/>
    <ellipse class="cls-16" cx="72.95" cy="295.56" rx="1.97" ry="2.03" transform="translate(-189.23 140.83) rotate(-45.59)"/>
    <ellipse class="cls-16" cx="61.74" cy="291.03" rx="1.97" ry="2.03" transform="translate(-189.36 131.47) rotate(-45.59)"/>
    <ellipse class="cls-16" cx="101.78" cy="312.53" rx="1.97" ry="2.03" transform="translate(-192.7 166.53) rotate(-45.59)"/>
    <ellipse class="cls-16" cx="101.93" cy="306.88" rx="1.97" ry="2.03" transform="translate(-188.62 164.93) rotate(-45.59)"/>
    <ellipse class="cls-16" cx="94.72" cy="312.35" rx="1.97" ry="2.03" transform="translate(-194.69 161.42) rotate(-45.59)"/>
    <ellipse class="cls-16" cx="95.59" cy="306.01" rx="1.97" ry="2.03" transform="translate(-189.9 160.14) rotate(-45.59)"/>
    <ellipse class="cls-16" cx="89.1" cy="310.79" rx="1.97" ry="2.03" transform="translate(-195.26 156.94) rotate(-45.59)"/>
    <ellipse class="cls-16" cx="87.94" cy="300.86" rx="2.03" ry="1.97" transform="translate(-219.61 361.38) rotate(-84.84)"/>
    <ellipse class="cls-16" cx="103.63" cy="323.19" rx="1.97" ry="2.03" transform="translate(-199.76 171.05) rotate(-45.59)"/>
    <ellipse class="cls-16" cx="97.9" cy="325.87" rx="1.97" ry="2.03" transform="translate(-203.39 167.76) rotate(-45.59)"/>
    <ellipse class="cls-16" cx="100.23" cy="318.15" rx="1.97" ry="2.03" transform="translate(-197.18 167.1) rotate(-45.59)"/>
    <ellipse class="cls-16" cx="99.25" cy="301.15" rx="1.97" ry="2.03" transform="translate(-185.33 161.3) rotate(-45.59)"/>
    <ellipse class="cls-16" cx="88.92" cy="317.86" rx="1.97" ry="2.03" transform="translate(-200.37 158.93) rotate(-45.59)"/>
    <ellipse class="cls-16" cx="82.54" cy="318.41" rx="1.97" ry="2.03" transform="translate(-202.67 154.54) rotate(-45.59)"/>
    <ellipse class="cls-16" cx="83.77" cy="325.51" rx="1.97" ry="2.03" transform="translate(-207.38 157.55) rotate(-45.59)"/>
    <ellipse class="cls-16" cx="95.95" cy="291.87" rx="1.97" ry="2.03" transform="translate(-179.69 156.16) rotate(-45.59)"/>
    <path class="cls-10" d="M177.6,455.04c-.05.35-10.44-.62-21.86-2.68-12.97-2.35-23.56-5.44-30.92-7.87-15.93-5.26-19.8-8.47-41.29-17.33-3.48-1.44-7.21-3.2-14.68-6.74-3.85-1.83-5.67-2.73-5.58-2.97.21-.56,10.8,2.97,11.24,3.12,15.24,5.1,22.92,10.03,33.57,15.01,13.5,6.32,24.45,9.32,35.05,12.22,19.82,5.42,34.54,6.84,34.47,7.25Z"/>
    <path class="cls-10" d="M184.71,453.81c-.07,0,.36-8.99-.91-19.83-1.41-12.08-4.82-25.57-14.39-45.64-14.8-31.06-31.27-50.46-30.52-51.01.53-.39,8.77,9.39,15.77,19.5,9.66,13.96,15.18,26,17.58,31.57,3.25,7.55,7.81,18.3,10.47,32.81,3.29,17.89,2.08,32.59,1.99,32.59Z"/>
  </g>
  <g id="Layer_33">
    <path class="cls-11" d="M254.57,511.97c-.79-2.55-11.87-.93-21.09.42-12.18,1.78-15.72,4-17.93,6.9-.29.37-3.99,5.34-2.31,7.92,2.76,4.25,18.05-1.09,25.84-4.59.77-.34,16.47-7.47,15.48-10.64Z"/>
    <path class="cls-11" d="M217.21,514.47c-3.03-.71-3.83-7.23-4.24-10.58-1.82-14.8,3.96-29.95,6.85-29.58.92.12.83,1.71,3.23,12.31,2.9,12.81,4.06,15.02,2.8,19-1.54,4.85-5.77,9.52-8.64,8.85Z"/>
    <path class="cls-11" d="M240.04,487.27c4.65-4.85,10.42-6.4,12.1-6.83,5.07-1.3,20.45-4.58,21.6-1.28.98,2.82-8.79,9.71-18.72,12.23-7.09,1.8-16.2,1.86-16.99-.66-.31-1,.76-2.14,2.02-3.45Z"/>
    <path class="cls-11" d="M241.13,477.48c-3.09-.4-4.72-9.25-4.81-15.55-.13-9.09,2.89-18.21,4.76-18.06.79.06.75,1.71,2.3,5.98,3.01,8.3,5.71,9.14,5.82,13.82.1,4.13-1.9,7.32-2.81,8.78-1.32,2.11-3.31,5.29-5.26,5.04Z"/>
    <path class="cls-11" d="M279.08,438.27c.2,2.01,4.28,3.07,6.04,3.53,10.07,2.63,20.58-1.67,20.37-3.16-.13-.95-4.5.45-11.52-2.09-4.3-1.56-5.72-3.2-8.78-2.81-3.1.39-6.31,2.67-6.12,4.53Z"/>
    <path class="cls-11" d="M293.2,427.99c-1.1-1.56.32-4.26,1.3-6.19,5.48-10.83,4.07-11.33,6.7-13.46.95-.77,5.57-4.5,10.94-2.87,4.13,1.25,7.07,5.17,7.48,9,.92,8.57-11.1,13.79-11.67,14.03,0,0-5.52,2.31-13.03.5-.46-.11-1.25-.33-1.73-1.01Z"/>
    <path class="cls-11" d="M252.33,394.85c-5.96-2.9-8.9-12.48-6.69-14.33,2.83-2.37,14.16,7.83,15.54,9.08,2.29,2.07,5.19,4.72,4.53,6.12-.95,2.01-8.72.43-9.43.28-1.65-.35-2.79-.58-3.96-1.15Z"/>
    <path class="cls-11" d="M264.57,385.79c-.94.2-1.83-1.5-2.95-2.88-4.42-5.42-12.65-6.01-12.59-6.2.05-.17,5.7,2.79,8.93.58,2.79-1.91,2.06-6.52,4.03-6.91,1.77-.35,2.97,3.23,5.18,3.03,2.41-.23,3.74-4.75,3.89-4.68.18.08-3.41,5.2-4.83,12.23-.48,2.37-.64,4.61-1.66,4.82Z"/>
    <path class="cls-12" d="M177.6,558.5c-.86-3.68,4.91-7.55,10.66-12.3.99-.82,6.26-6.16,16.78-16.83,9.67-9.81,15.79-18.49,20.46-25.11,8.19-11.62,7.43-12.92,18.52-29.72,6.89-10.44,7.1-9.81,14.84-21.44,5.85-8.79,9.74-15.19,17.51-27.99,8.87-14.61,13.41-22.11,18.16-31.09,7.48-14.14,11.29-23.5,11.39-23.46.14.06-7.86,20.87-21.26,44.33-2.4,4.21-3.34,5.62-11.1,19-7.69,13.25-8.62,15.05-12.1,20.72-3.16,5.14-3.09,4.81-12.46,19.36-8.92,13.84-8.84,13.94-12.46,19.36-6.98,10.44-12.46,17.86-13.83,19.72-8.23,11.11-12.35,16.67-17.07,21.3-8.51,8.35-10.6,7.55-15.27,14.24-4.55,6.54-6.61,13.12-9.8,12.81-1.36-.13-2.63-1.49-2.95-2.88Z"/>
    <path class="cls-2" d="M264,380.82c.63,3.77,1.37,9.05,1.8,15.37,1.03,15.37-.45,27.24-1.58,35.91-.73,5.59-1.89,12.86-3.82,21.3"/>
    <path class="cls-2" d="M252.32,422.64c2.13,4.6,4.78,11.8,5.55,20.96.62,7.41-.2,13.65-1.15,18.09"/>
    <path class="cls-2" d="M292.52,428.17c-3.23,1.79-6.65,3.87-10.19,6.29-8.72,5.95-15.83,12.33-21.42,18.09"/>
    <path class="cls-8" d="M271.06,368.73c2.32-3.97.66-16.99.66-16.99-1.76-13.76,19.1-25.88,17.51-27.99-1.53-2.03-19.88,9.79-21.31,10.71-1.47.95-1.75,1.29-1.87,1.22-.33-.19,1.76-2.48,1.66-4.82-.18-4.3-7.55-4.4-11.8-11.52-.66-1.11-1.28-2.44-2.09-2.38-1.17.09-1.27,3.01-2.67,6.55-2.71,6.88-6.85,7.33-7.06,12.09-.15,3.47,1.96,5.18.93,6.33-1.26,1.42-4.33-1.28-10.65-1.59-2.99-.14-2.05.47-11.3,1.51-3.57.4-5.04.45-5.47,1.44-.61,1.39,1.72,2.67,4.03,6.98,2.29,4.29,1.39,5.65,3.52,7.85,2.65,2.73,6.14,2.81,6.04,3.53-.1.71-3.44.31-6.33.93-9.4,2-15.36,14.96-14.05,16.12.5.44,1.69-1.14,5.11-2.8,7.26-3.52,14.75-2.63,22.96-1.64,4.6.55,7.53.9,11.52,2.09,5.6,1.67,7.02,3.13,10.15,2.45,3.85-.83,7.08-4.22,7.99-5.75.02-.04.06-.1,1.51-2.59.34-.58.67-1.15,1.01-1.73Z"/>
    <path class="cls-8" d="M286.1,378.68c.87,2.19-.5,2.87-1.44,8.42-1.3,7.67-.46,16.83,2.44,17.64,1.17.33,1.77-.96,5.11-2.8,4-2.2,5.38-1.59,8.71-3.02,7.19-3.08,7.37-8.75,12.24-9.06,2.04-.13,2.03.86,6.55,2.67,6.2,2.48,11.39,2.68,16.84,2.89,5.24.2,7.87.3,8.57-.79.96-1.49,1.16-2.59-12.59-20.09,1.98-2.66,4.8-6.61,7.92-11.58,7.62-12.13,6.82-14.12,6.34-14.82-1.63-2.42-7.21-1.43-11.16-.73-9.63,1.71-12.17,5.88-16.41,4.31-3.13-1.16-2.46-3.7-7.48-9-1.39-1.47-8.28-8.74-12.09-7.06-1.88.83-1.73,3.28-3.82,10.51-1.59,5.51-1.32,8.93-3.32,9.64-1.01.36-1.82-.18-3.09-.65-8.08-2.99-17.08,3.1-18.65,4.16-3.04,2.06-3.33,3.29-3.39,3.81-.17,1.46.73,3.15,4.53,6.12,7.9,6.17,12.66,5.61,14.18,9.44Z"/>
    <path class="cls-8" d="M233.67,426.8c2.13,2.01,1.81,3.28,4.03,6.98.61,1.01,6.4,10.54,10.58,9.65,2.77-.59,2.01-5.18,7.06-12.09,2.1-2.88,4.13-5.65,7.63-7.12,4.76-2,7.23.51,13.89,0,6.62-.5,14.3-3.73,14.33-6.69.05-4.38-16.74-5.26-17.99-12.82-.44-2.67,1.54-3.27,2.81-8.78,1.13-4.9,1.59-13.24-1.72-14.9-3.53-1.77-10.67,4.41-13.97,8.05-3.62,4-3.72,6.14-6.27,6.76-2.68.66-4.58-1.23-12.59-6.2-9.35-5.8-10.41-5.48-10.87-5.19-3.32,2.12,4.69,15.74-.44,20.59-1.46,1.38-2.55.7-6.84,1.8-7.1,1.81-15.41,6.56-14.98,9.78.38,2.86,7.68,4.62,14.82,6.34,5.14,1.24,7.84,1.3,10.51,3.82Z"/>
    <path class="cls-15" d="M276.82,362.83c.48-1.83,9.11-1.21,9.93-1.15,7.72.56,10.04,2.79,12.02,1.23,2.04-1.61.49-4.71,2.24-13.75,1-5.17,1.78-5.58,2.16-5.69,2.4-.67,7.08,5.63,9.57,11.38,1.75,4.05,1.51,5.72,3.16,6.48,2.52,1.16,5-1.87,11.95-4.6,2.18-.86,9.31-3.66,10.44-2.01,1.38,2.03-5.28,12.38-12.68,15.76-.66.3-2.04.87-2.38,2.09-.55,1.96,2.07,3.95,5.75,7.99,2.66,2.93,6.41,7.05,5.75,7.99-1.15,1.64-13.47-9.43-23.39-5.56-.8.31-3.2,2.13-7.99,5.75-7.81,5.91-9.92,8.08-11.23,7.34-1.16-.66-.49-2.9-.14-11.66.19-4.82.29-7.22.08-8.06-2.19-8.74-15.87-11.2-15.25-13.54Z"/>
    <path class="cls-15" d="M236.7,407.73c-3.8,1.39-8.28,3.05-13.32,4.96-5.24,1.98-6.53,2.51-6.48,3.16.14,1.85,11.08,5.15,18.21,2.53.7-.26,2.27-.91,3.6-.21,1.65.86,1.78,3.2,2.3,5.98.79,4.17,2.7,10.57,4.24,10.58,1.48.01,1.08-5.88,5.69-11.73,1.68-2.12,3.52-4.46,6.63-5.39,4.07-1.23,6.26,1.15,14.25,1.38,2.51.07,6.01.17,6.33-.93.35-1.15-5.08-1.62-8.13-5.91-2.37-3.33-2.37-7.59-2.37-11.81,0-5.25,1.09-7.5.08-8.06-1.08-.6-3.11,1.49-11.74,8.2-2.72,2.11-3.06,2.33-3.74,2.45-5.73.94-10.17-9.83-13.31-8.93-1.42.4-2.72,3.22-2.24,13.75Z"/>
    <path class="cls-15" d="M227.87,371.3c5.78-1.8,8.68-2.7,12.31-3.23,3.86-.56,5.5-.38,6.84-1.8,2.84-3-.82-7.66,1.59-10.65,2.72-3.38,8.9.69,15.41-2.58,3.41-1.71,3.89-3.92,7.78-9.35,8.56-11.94,16.81-15.97,15.92-17.34-1-1.53-11.66,2.98-19.8,8.12-.28.17-.89,1.17-1.87,1.22-1.46.08-2.42-1.77-3.81-3.39-1.74-2.01-5.56-5.27-7.77-4.54-2.73.9-.81,7.18-5.33,13.1-1.78,2.33-3.76,3.56-4.75,4.17-8.45,5.24-19.36-2.21-21.09.42-1.89,2.86,10.14,12.22,7.91,16.2-1.28,2.28-5.74.06-10.94,2.87-6.17,3.34-9.13,11.45-7.57,12.95,1.3,1.25,4.8-2.94,15.19-6.18Z"/>
    <path class="cls-9" d="M303.31,369.04c.86,2.67-3.13,6.08-2.67,6.55.45.45,3.64-3.2,5.98-2.3.97.37.94,1.2,2.95,2.88.67.56,2.18,1.83,2.59,1.51.67-.51-2.85-4.18-1.8-6.84,1.21-3.06,7.89-3.29,7.85-3.52-.04-.24-6.59,1.95-8.93-.58-2.01-2.18-.28-7.18-.43-7.2-.14-.02-.04,5.02-2.67,6.55-2.25,1.32-5.63-.47-5.83.07-.17.45,2.37,1.08,2.95,2.88Z"/>
    <path class="cls-18" d="M246.85,410.18c-.91,2.32-4.37,2.97-4.25,3.31.13.37,3.96-1.54,5.83-.07,1.83,1.44.85,5.38,1.44,5.47.58.09.66-3.84,3.03-5.18,2.57-1.46,6.47.93,6.69.44.24-.53-4.67-2.19-5.04-5.26-.24-1.98,1.54-3.63,1.15-3.96-.57-.49-3.78,3.87-6.48,3.16-1.81-.48-2.62-3.04-2.95-2.88-.36.18,1.43,2.79.57,4.97Z"/>
    <path class="cls-18" d="M245.85,352.33c-.75,1.91-3.58,2.45-3.49,2.73.1.31,3.25-1.27,4.77-.07,1.49,1.18.68,4.42,1.16,4.49.47.07.55-3.16,2.49-4.26,2.11-1.2,5.29.75,5.48.34.2-.44-3.81-1.79-4.11-4.31-.19-1.63,1.27-2.99.95-3.25-.47-.4-3.11,3.19-5.31,2.62-1.48-.39-2.13-2.49-2.41-2.36-.3.15,1.17,2.29.46,4.08Z"/>
    <path class="cls-13" d="M217.85,525.26c-.03-.35,4.26-.24,11.81-2.37,13.13-3.71,21.21-10.03,21.67-9.35.33.49-3.45,4.47-9,7.48-11.58,6.27-24.42,4.84-24.48,4.23Z"/>
    <path class="cls-13" d="M216.13,510.36c-.49.07-2.83-6.98-2.58-15.41.3-10.16,4.24-18.21,4.76-18.06.47.13-2.02,6.96-2.53,18.21-.42,9.29.8,15.2.35,15.26Z"/>
    <path class="cls-13" d="M241.62,490.51c.08.52,8.52.62,17.64-2.44,7.79-2.62,13.68-6.74,13.46-7.19-.21-.43-5.81,2.54-16.06,5.68-9.61,2.94-15.11,3.52-15.05,3.95Z"/>
    <path class="cls-13" d="M239.04,475.1c-.39.05-2.3-6.34-2.22-14.04.08-8.1,2.34-14.68,2.74-14.61.38.07-.95,5.88-1.02,15.62-.05,8.17.83,12.98.5,13.03Z"/>
    <path class="cls-13" d="M294.71,425.4c.15-.85,7.43,1.88,13.53-1.36,6.44-3.42,7.71-11.46,8.79-11.08.83.29.85,5.38-1.95,9.28-4.66,6.52-14.02,5.41-14.69,5.32-2.99-.4-5.78-1.63-5.69-2.16Z"/>
    <path class="cls-13" d="M281.32,438.42c.2-.46,5.85,1.45,9.28,1.95,1.76.26,3.5.29,3.5.29s.49,0,.96,0c3.07-.05,7.65-1.45,7.7-1.29.04.12-2.39,1.52-5.98,2.3-2.02.44-5.89,1.23-10.29-.22-2.99-.99-5.32-2.71-5.18-3.03Z"/>
  </g>
  <g id="Layer_25">
    <path class="cls-24" d="M132.23,170.72c-1.32.92-4.96-2.17-7.45-4.3-4.61-3.93-6.98-8.17-8.12-10.59-.63-1.33-4.08-8.64-2.33-9.93,1.66-1.22,7.54,3.36,11.35,8.02,5.38,6.58,8.41,15.5,6.55,16.79Z"/>
    <path class="cls-24" d="M131.57,176.52c.87-5.07,4.19-8.49,6.2-10.52,7.77-7.81,11.65-11.72,12.49-11.18,1.92,1.23-1.44,12.15-8.75,19.37-2.91,2.88-7.99,6.68-9.6,5.47-.2-.15-.75-.69-.33-3.14Z"/>
    <path class="cls-24" d="M136.89,202.67c.22,1.94,7.72,2.48,8.86,2.56,8.22.59,18.02-1.54,18.04-3.82.01-2.12-8.38-4.69-15.98-3.71-5.31.69-11.12,3.22-10.92,4.98Z"/>
    <path class="cls-24" d="M101.73,209.9c-1.57.84-5.29-3.31-6.54-4.71-5.35-5.97-9.37-14.9-7.46-16.38,1.7-1.32,8.31,3.1,11.76,8.93,2.86,4.84,3.92,11.26,2.25,12.16Z"/>
    <path class="cls-24" d="M108.41,272.79c.75-2.46,9.7-2.44,16.55.15,3.18,1.2,8.69,4,8.28,6.12-.41,2.16-6.87,3.22-12.16,2.25-6.79-1.25-13.39-6.17-12.67-8.51Z"/>
    <path class="cls-24" d="M159.75,301.05c-2.94-1.22.41-15.02.56-15.64,4.02-16.24,15.2-30.77,18.51-29.31,2.86,1.26.01,14.58-3.54,23.59-4.45,11.3-12.65,22.57-15.54,21.37Z"/>
    <path class="cls-2" d="M173.77,340.26c-12.52-35.06-28.88-74.14-50.43-115.49-17.05-32.7-34.73-61.81-51.89-87.35"/>
    <path class="cls-2" d="M138.16,142.75c-1.04,4.58-2.04,9.26-2.99,14.04-2.34,11.71-4,22-4.62,26.48-2.79,20.08-1.37,43.07-.49,53.84"/>
    <path class="cls-2" d="M73.42,200.82c7.52,1.81,17.17,4.87,27.52,10.27,10.33,5.39,18.13,11.42,23.66,16.41"/>
    <path class="cls-2" d="M114.9,248.95c1.59,5.31,4.25,12.11,8.75,19.21,7.75,12.21,16.71,18.6,19.65,20.57,5.26,3.53,9.98,5.49,13.29,6.6"/>
    <path class="cls-2" d="M164.02,182.61c-8.57,4.31-15.01,8.75-19.43,12.15-5.69,4.38-8.58,7.46-10.85,10.44-2.26,2.96-3.81,5.7-4.82,7.69"/>
    <path class="cls-39" d="M107.81,252.18c-.44-.09-1.76-.86-4.39-2.4-3.89-2.28-4.96-2.96-6.13-3.8-3.93-2.81-4.26-3.93-4.31-4.63,0-.08-.11-1.81.99-2.65,2.58-1.98,8.84,3.21,9.77,2.14.88-1.01-5.15-5.24-4.98-10.92.12-4.02,3.34-8.34,6.12-8.28,2.2.05,2.67,2.82,9.28,15.55,2.9,5.59,3.95,7.25,3.24,9.51-1.14,3.62-5.99,6.19-9.6,5.47Z"/>
    <path class="cls-39" d="M54.47,205.06c2.86,1.25,5.73.94,8.94.32,5.97-1.14,8.95-1.71,10.42-3.65,1.86-2.44,1.63-5.45,1.57-6.21-.33-4.27-3.12-4.78-5.89-10.51-2.68-5.53-2.16-9.36-4.56-10.01-1.91-.52-2.95,1.71-4.96,1.16-2.82-.76-2.1-5.51-5.55-7.36-2.24-1.2-5.47-.77-6.29.67-1.08,1.9,2.25,5.21,1.58,5.87-.99.97-7.81-6.54-11.01-4.87-1.76.92-2.3,4.57-1.15,7.12,1.94,4.31,8.51,5.08,8.28,6.12-.2.88-4.81-.25-5.87,1.58-.86,1.48.87,4.47,2.9,6.37,5.55,5.2,14.07,3.08,14.57,5.45.42,1.98-5.36,4.3-4.71,6.54.1.34.39.82,1.74,1.41Z"/>
    <path class="cls-39" d="M60.94,137.27c-1.12,0-1.29-.29-5.3-1.98-8.09-3.42-9.03-2.94-11.01-4.87-2.46-2.41-.99-3.15-4.23-6.87-1.68-1.93-3.49-3.36-3.81-5.96-.13-1.08.15-1.07.08-2.23-.25-4.1-3.92-6.07-3.32-7.28.7-1.4,5.79.83,7.2-1.08,1.08-1.47-1.25-3.67-.25-5.38,1.2-2.05,6.31-1.96,9.85-.09,4.23,2.23,3.7,8.15,5.97,8.27,1.61.08,1.95-2.62,4.14-2.98,2.68-.45,6.21,2.91,7.37,6.53,1.06,3.31-.59,4.5.59,8.52.97,3.3,2.31,3.29,2.49,5.46.37,4.46-4.86,9.93-9.76,9.94Z"/>
    <path class="cls-39" d="M139.38,121.31c-5.34,1.56-8.57,4.54-11.91,7.63,0,0-5.86,5.4-5.7,9.19.01.31.15,3.49,2.49,5.46,1.61,1.35,3.91,1.47,8.44,1.65,4.2.16,4.84-.25,6.7.24,3.72.98,3.64,4.1,6.54,4.71,2.62.55,5.8-1.06,7.28-3.32.96-1.46,1.2-3.19-1.34-12.58-3.11-11.52-4.59-13.02-6.22-13.65-1.72-.67-3.25-.22-6.29.67Z"/>
    <path class="cls-39" d="M141.54,123.63c.95,5.12,7.75,7.52,11.76,8.93,3.94,1.39,6.87,2.42,10.68,1.73,6.82-1.23,12.49-7.26,13.48-13.83.25-1.69.87-5.77-1.5-8.11-2.1-2.07-4.89-1.15-15.23.35-11.92,1.72-15.3,1.53-17.62,4.73-.23.32-2.15,3.04-1.57,6.21Z"/>
    <path class="cls-39" d="M121.4,98.73c-1.08,1.7-.23,4.04.25,5.38,1.43,3.92,4.04,4.33,9.94,9.76,4.1,3.77,4.59,5.18,6.96,5.62,2.55.47,4.3-.73,7.69-2.41,11.22-5.55,14.88-3.73,17.29-7.88,1.71-2.94,1.88-7.32-.09-9.85-3.56-4.55-14.36-3.4-18.79-.23-.42.3-1.34,1.02-2.73,1.24-2.62.42-4.43-1.34-6.62-2.48-4.94-2.56-12.05-2.07-13.9.84Z"/>
    <path class="cls-39" d="M139.54,116.84c-.66-3.55-3.8-5.47-9.53-8.85-7.71-4.55-12.11-7.14-16.81-5.53-2.53.87-5.61,3.12-6.04,6.05-.41,2.77,1.95,3.54,4.15,9.1,1.62,4.1,2.12,8.2,2.33,9.93.55,4.7-.09,5.86,1.08,7.2,2.64,3.03,9.33,1.09,10.26.82,7.85-2.28,11.54-9.36,12.49-11.18,1.44-2.76,2.55-4.91,2.06-7.53Z"/>
    <path class="cls-39" d="M159.71,177.98c-.18-2.27.29-3.27,1.15-7.12,2.23-9.92,1.25-12.83,4.12-15.07,1.51-1.17,3.88-2.01,4.96-1.16.8.62.88,2.15-.9,12.5-.48,2.77-.74,4.15-.16,4.47.87.48,2.67-1.98,6.45-5.14,3.11-2.6,7.2-6.02,8.69-5.06,1.44.94.82,6.28-2.14,9.77-3.36,3.96-8.11,3.64-8.27,5.97-.11,1.59,1.98,3.34,3.89,3.72,1.71.34,2.51-.56,4.96-1.16,3.22-.79,7.5-.63,8.03.74.57,1.45-3.02,4.43-6.04,6.05-6.37,3.43-12.85,2.21-15.72,1.67-3.57-.67-4.86-1.63-5.3-1.98-3.29-2.63-3.64-7-3.73-8.19Z"/>
    <path class="cls-29" d="M106.49,251.69c-.48,2.03,4.44,4.99,8.28,6.12,1.8.53,3.3.95,4.47.16,2.1-1.42,1.52-5.71.74-8.03-.72-2.13-2.09-5.2-3.4-5.05-.65.08-.89.91-1.41,1.74-2.49,4.05-8.19,2.97-8.69,5.06Z"/>
    <path class="cls-29" d="M70.52,206.54c.89,1.58,5.83.43,8.52-.59,2.52-.95,4.45-1.68,5.05-3.4,1.28-3.7-4.91-8.13-6.38-9.18-1.48-1.06-2.18-1.23-2.65-.99-1.06.54-.2,2.87-.66,5.79-.78,5.07-4.72,6.88-3.88,8.36Z"/>
    <path class="cls-29" d="M58.71,137.19c.31,1.53,4.04,1.98,8.86,2.56,4.13.49,4.99.01,5.38-.25,2.79-1.93,1.85-7.29,1.65-8.44-.66-3.73-2.91-8.01-4.64-7.78-1.25.17-1.01,2.52-2.89,5.71-3.3,5.61-8.73,6.3-8.35,8.2Z"/>
    <path class="cls-29" d="M157.97,176.58c-3.34.68-5.01,4.91-5.21,7.87-.09,1.35-.19,2.84.75,4.05,1.83,2.37,5.98,1.6,10.26.82,2.74-.5,3.42-1.05,3.64-1.66.31-.86-.4-1.55-1.66-3.64-2.62-4.33-2.29-5.8-4.23-6.87-.25-.14-1.77-.94-3.56-.58Z"/>
    <path class="cls-21" d="M135.49,117.59c-.84,1.37-.65,2.92-.58,3.56.24,1.97,1.31,3.23,1.66,3.64.5.58,2.14,2.47,4.39,2.4,2.59-.08,4.96-2.73,5.13-5.63.14-2.48-1.33-5.02-3.81-5.96-2.52-.95-5.55-.02-6.78,1.99Z"/>
    <path class="cls-38" d="M111.56,104.87c.03-.56,4.3-1.4,8.52-.59,9.43,1.82,15.64,11.31,15.24,11.74-.14.15-1.09-.94-4.8-3.31-2.82-1.8-6.54-4.13-11.43-5.78-4.61-1.56-7.56-1.6-7.53-2.06Z"/>
    <path class="cls-38" d="M124.59,140.69c-.27-.12.49-3.49,2.48-6.62,3.28-5.18,8.55-7.57,8.77-7.29.19.25-3.63,2.48-7.44,7.79-2.49,3.46-3.55,6.24-3.8,6.13Z"/>
    <path class="cls-38" d="M147.74,119.15c-.08-.27,5.15-2.47,11.33-4.07,7.55-1.95,14.35-2.45,14.4-2.17.03.18-2.81.65-9.93,2.33-10.61,2.5-15.72,4.16-15.8,3.9Z"/>
    <path class="cls-38" d="M141.36,109.97c.38-1.79,1.24-4.53,3.39-7.04,3.52-4.11,8.54-5.33,8.69-5.06.13.24-3.57,1.66-7.36,5.55-2.33,2.39-3.81,4.8-4.71,6.54Z"/>
    <path class="cls-38" d="M68.7,201.32c-.15,1.56-9.78,2.79-10.76.51-.68-1.59,3.4-3.5,2.89-5.71-.88-3.87-14.44-2.98-14.99-6.36-.23-1.47,2.23-2.21,2.4-4.39.11-1.45-1.34-2.11-6.46-6.95-1.74-1.64-2.25-2.19-2.15-2.32.18-.25,2.57,1.14,4.39,2.4,3.09,2.13,7.34,5.07,6.88,7.86-.28,1.72-2.16,2.17-1.9,3.06.4,1.37,4.82.11,9.77,2.14,2.84,1.16,5.95,3.45,5.63,5.13-.29,1.53-3.36,2.13-3.23,2.57.14.44,3-.63,5.79.66.54.25,1.8.83,1.74,1.41Z"/>
    <path class="cls-38" d="M58.21,132.48c-.37.61-5.46-1.17-9.69-4.38-6.45-4.89-9.48-12.02-8.95-12.41.24-.18,1.21,1.05,3.89,3.72,8.81,8.78,15.18,12.34,14.74,13.06Z"/>
    <path class="cls-29" d="M162.39,296c.36.18,3.29-4.43,5.7-9.19,6.56-12.93,8.59-25.52,8.09-25.66-.23-.07-.85,2.44-3.96,10.6-5.79,15.18-10.31,24.01-9.83,24.26Z"/>
    <path class="cls-29" d="M112.55,275.85c.34-1.19,15.65,1.58,15.56,2.8-.04.59-3.69.87-6.29.67-4.94-.39-9.47-2.79-9.27-3.47Z"/>
    <path class="cls-29" d="M142.11,200.84c-.04-.21,3.96-1.71,9.02-1.91,5.17-.21,9.38,1.02,9.35,1.23-.02.19-3.48-.5-8.94-.32-5.76.19-9.39,1.2-9.43,1Z"/>
    <path class="cls-29" d="M134.47,176.85c.21.22,5.1-3.1,9.26-8.62,4.23-5.6,6.06-11.28,5.78-11.43-.26-.13-2.29,4.6-7.11,10.93-4.48,5.89-8.13,8.91-7.94,9.11Z"/>
    <path class="cls-29" d="M128.58,166.34c-.13.13-4.77-3.39-8.62-9.26-3.34-5.11-4.73-9.93-4.56-10.01.17-.08,1.85,4.65,5.89,10.51,3.88,5.63,7.41,8.65,7.29,8.77Z"/>
    <path class="cls-29" d="M90.12,190.46c.23-.26,4.43,2.17,7.37,6.53,3.04,4.5,3.6,9.38,3.24,9.51-.37.13-1.57-4.71-5.89-10.51-2.68-3.59-4.9-5.34-4.72-5.54Z"/>
  </g>
  <g id="Layer_19">
    <path class="cls-32" d="M347.11,343.86c-1.73-1.6.53-6.51,3.67-13.66,2.28-5.19,4.11-10.58,6.69-15.63,6.38-12.47,11.57-25.51,17.44-38.22,8.92-19.32,8.8-19.26,15.48-33.62,6.12-13.15,7.99-17.87,12.33-26.27,6.56-12.71,6.6-11.01,10.49-19.44,2.57-5.57,5.44-12.55,11.28-21.28,1.69-2.52,5.14-7.63,6.3-7.09,1.08.5-.4,5.88-.52,6.3-.88,3.13-2.2,5.26-2.36,5.52-2.87,4.73-2.4,6.46-12.72,27.19-4.61,9.25-8.22,15.97-12.07,23.12-6.89,12.78-9.47,15.52-14.17,25.48-1.1,2.33-.98,2.19-6.69,15.63-5.4,12.71-8.11,19.07-9.84,22.98-12.35,27.94-12.77,23.73-14.69,31.78-1.77,7.44-2.58,15.92-7.48,17.47-.3.09-2.16.65-3.15-.26Z"/>
    <path class="cls-36" d="M361.8,312.08c-.9-1.09,2.42-5.24,9.05-13.53,5.43-6.79,8.15-10.18,12.6-14.19,5.9-5.31,14.95-11.82,16.41-10.38,1.05,1.03-2.17,5.81-6.03,11.56-5.02,7.46-8.78,13.06-15.48,18.39-6.54,5.21-15.28,9.68-16.54,8.15Z"/>
    <path class="cls-36" d="M360.61,307.22c-1.57-.59.07-8.69,1.7-16.68,2.16-10.6,4.57-18.38,7.73-28.23,5.48-17.07,5.7-17.02,11.41-34.28,6.15-18.62,8.13-25.46,9.7-25.22,1.76.28,1.73,9.29,1.71,13.79-.04,9.83-1.45,17.78-2.4,22.18-.11.5-.31,1.4-.61,2.64-5.06,20.94-13.77,39.79-13.77,39.79-.79,1.71-12.57,27.09-15.48,26.01Z"/>
    <path class="cls-6" d="M440.09,121.51c5.42-7.93,13.85-9.9,16.41-10.38.99-.19,16.05-2.74,24.69,8.39,7.2,9.27,4.06,20.49,3.56,22.19-2.69,9.05-10.82,17.84-22.18,18.79-8.72.73-17.51-3.31-22.59-10.76-6.02-8.82-5.34-20.26.12-28.23Z"/>
    <path class="cls-27" d="M397.29,140.18c-.06-3.46,7.27-6.1,10.76-7.36,9.67-3.48,17.51-2.77,22.71-2.24,4.68.48,7.25.77,7.75,2.23,1.06,3.1-6.44,9.49-14.04,12.48-9.75,3.84-19.97,2.2-25.21-2.09-1.35-1.11-1.95-2.04-1.97-3.02Z"/>
    <path class="cls-27" d="M407.41,167.35c-2.51-2.4.74-9.43,1.18-10.37,6.17-13.36,28.3-20.33,31.77-15.77,2.58,3.38-5.19,13.04-8,16.15,0,0-7.86,8.69-20.87,10.65-1.3.2-3.01.35-4.07-.65Z"/>
    <path class="cls-27" d="M457.3,154.99c-3.24-.86-7.5,5.65-8.53,7.23-7.68,11.74-6.89,29.09-2.22,30.6,3.69,1.19,10.33-7.37,12.99-15.11,3.32-9.63,1.75-21.65-2.24-22.71Z"/>
    <path class="cls-27" d="M463.08,154.19c-3.05.58-4.5,7-4.72,11.03-.77,13.93,11.43,27.98,15.9,26.38,3.83-1.37,3.13-14.66-.54-24.16-2.1-5.44-6.85-13.98-10.64-13.26Z"/>
    <path class="cls-27" d="M470.56,151.96c-2.4,1.29-1.34,9.04,1.32,14.71,5.16,10.99,18.03,17.72,20.62,15.35,2.47-2.25-4.02-13.13-8.28-18.77-3.25-4.3-10.72-12.87-13.66-11.29Z"/>
    <path class="cls-27" d="M475.82,149.85c-2,2.33,2.74,10.23,7.62,15.23,9.57,9.79,24.92,13.76,27.05,10.49,1.99-3.04-7.19-12.81-14.98-18.38-6.76-4.83-17.41-10-19.7-7.34Z"/>
    <path class="cls-27" d="M518.1,160.34c1.34-3.4-7.44-10.38-14.71-13.91-9.48-4.6-22.24-6.18-23.9-2.61-1.53,3.3,6.45,10.96,14.32,14.83,9.91,4.87,22.86,5.32,24.29,1.69Z"/>
    <path class="cls-27" d="M522.02,120.68c.72,4.04-10.94,9.83-20.35,11.96-7.9,1.79-19.89,2.29-21.14-1.43-1.24-3.69,8.1-11.41,17.98-14.06,10.33-2.77,22.81-.4,23.51,3.53Z"/>
    <path class="cls-27" d="M511.5,94.42c2.56,2.85-2.92,12.74-9.18,18.91-8.7,8.57-22.27,13.32-24.94,9.99-2.53-3.14,4.54-13.65,11.81-19.96,7.78-6.76,19.57-12,22.32-8.94Z"/>
    <path class="cls-27" d="M494.62,81c-3.3-2.3-11.06,2.7-15.52,7.42-9.64,10.18-12.03,27.58-7.51,30.13,4.43,2.49,16.88-8.53,21.9-21.03,1.87-4.64,4.57-14.11,1.13-16.51Z"/>
    <path class="cls-27" d="M462.12,70.03c-4.07,1.12-5.07,9.31-5.51,12.87-1.87,15.28,4.26,33.85,10.52,33.87,5.97.02,13.77-16.85,9.83-30.6-2.5-8.73-10.1-17.45-14.85-16.14Z"/>
    <path class="cls-27" d="M438.62,74.11c-4.53,1.94-4.62,13.04-2.35,20.75,3.76,12.77,16.18,23.6,21.41,21.13,4.75-2.24,4.07-15.65-.14-25.08-4.27-9.56-13.91-18.94-18.92-16.8Z"/>
    <path class="cls-27" d="M409.08,89.75c-3.1,3.15,3.22,14.54,8.41,21,7.65,9.53,20.35,17.75,24.17,14.69,3.31-2.65-.26-13.57-5.26-20.74-8.22-11.79-23.83-18.5-27.32-14.95Z"/>
    <path class="cls-27" d="M397.01,112.87c2.14-4.54,18.51-.57,19.7-.27,10.65,2.65,24.19,9.57,23.25,14.3-.86,4.33-13.87,6.94-24.42,3.69-11.19-3.45-20.4-13.73-18.52-17.72Z"/>
    <path class="cls-30" d="M453.89,157.88c.9-.26,6.03,7.39,5,16.28-1.04,8.89-7.8,15.26-8.53,14.84-.56-.33,2.78-4.65,4.2-12.35,1.98-10.75-1.55-18.52-.67-18.78Z"/>
    <path class="cls-30" d="M464.95,157.17c.83.07-.69,5.77,1.59,13.3,2.84,9.38,9.13,13.51,8.46,14.3-.75.89-9.78-2.84-12.52-11.18-2.57-7.83,1.44-16.51,2.47-16.42Z"/>
    <path class="cls-30" d="M479.23,154.58c-.65.65,3.31,6.79,9.2,11.55,8.17,6.6,17.92,8.83,18.39,7.87.34-.71-4.48-2.89-15.89-11.15-8.1-5.86-11.19-8.76-11.69-8.27Z"/>
    <path class="cls-30" d="M485.13,125.56c.14-.32,3.3,1.53,7.75,2.23,12.01,1.88,21.58-6.57,22.06-5.79.44.72-6.84,9.38-16.93,9.07-7.31-.22-13.07-5.05-12.87-5.51Z"/>
    <path class="cls-30" d="M485.61,115.76c4.3-3.42,6.29-2.74,10.16-4.8,5.71-3.05,9.75-9.02,9.96-8.74.25.34-5.96,9.75-13.82,14.61-4.86,3-9.94,4.02-9.76,2.59.12-1,2.83-3.15,3.45-3.65Z"/>
    <path class="cls-30" d="M476.63,115.62c.5.5,6.56-3.44,11.15-9.84,5.99-8.34,7.29-17.81,6.56-18.08-.59-.22-2.33,5.76-8.22,14.88-5.46,8.45-9.95,12.57-9.49,13.04Z"/>
    <path class="cls-30" d="M465.95,111.91c.44-.19-3.68-6.33-4.08-15.89-.49-11.59,4.85-19.67,4.19-19.96-.64-.28-6.64,6.88-7.08,16.55-.51,11,6.44,19.53,6.97,19.3Z"/>
    <path class="cls-30" d="M444.66,77.78c4.01,3.23,9.59,8.82,12.22,17.19,2.45,7.81,1.55,15.56.93,15.62-.57.06-.83-6.38-3.55-14.57-2.68-8.04-6.53-14.14-9.59-18.25Z"/>
    <path class="cls-30" d="M416.57,95.13c.59-.2,1.67,7.08,8.02,14.31,7.68,8.75,17.14,10.67,16.81,11.55-.32.86-9.94.31-16.94-6.16-8.22-7.59-8.62-19.44-7.89-19.69Z"/>
    <path class="cls-30" d="M402.4,120.61c.33-.56,8.84,6.83,21.93,7.21,7.92.23,13.64-2.22,13.79-1.71.16.57-6.75,4.6-14.97,4.47-12.15-.19-21.1-9.37-20.75-9.97Z"/>
    <path class="cls-30" d="M406.35,141.88c.03-.47,6.19.75,14.71-1.32,8.19-1.99,12.9-5.65,13.13-5.26.25.43-5.12,5.64-13,7.49-7.81,1.83-14.87-.41-14.84-.91Z"/>
    <path class="cls-30" d="M414.11,159.34c-.07-.57,5.95-.35,12.73-4.34,7.6-4.47,10.48-10.87,11.02-10.51.58.39-1.84,8.37-8.66,12.61-6.8,4.22-15.01,2.9-15.1,2.24Z"/>
    <path class="cls-30" d="M482.33,146.82c-.53.75,4.46,6.1,11.09,9.74,9.2,5.06,19.2,5.53,19.49,4.5.21-.76-4.92-2.05-17.61-8.17-9.01-4.34-12.56-6.65-12.97-6.07Z"/>
    <path class="cls-27" d="M524.44,141.92c-.59,4.06-13.47,5.9-23.07,4.98-8.06-.78-19.6-4.06-19.63-7.99-.02-3.9,11.27-8.3,21.48-7.71,10.68.61,21.78,6.77,21.21,10.72Z"/>
    <path class="cls-30" d="M486.55,136.48c.24-.26,2.65,2.49,6.66,4.55,10.82,5.55,22.55.53,22.76,1.42.19.82-9.43,6.76-18.92,3.3-6.87-2.5-10.83-8.9-10.49-9.27Z"/>
    <path class="cls-30" d="M471.21,153.8c-.83.39.83,7.51,4.77,13.97,5.46,8.97,13.9,14.36,14.66,13.6.56-.55-3.25-4.23-11.21-15.86-5.65-8.25-7.58-12.02-8.22-11.72Z"/>
    <path class="cls-27" d="M448.9,151.55c-3-1.49-8.47,4.04-9.8,5.39-9.86,9.98-12.53,27.15-8.25,29.55,3.38,1.9,11.59-5.17,15.73-12.22,5.17-8.78,6.01-20.88,2.31-22.71Z"/>
    <path class="cls-30" d="M444.98,153.71c.94-.08,4.45,8.44,1.66,16.95-2.78,8.51-10.68,13.41-11.31,12.85-.49-.43,3.65-4.01,6.56-11.27,4.08-10.14,2.16-18.46,3.08-18.53Z"/>
    <path class="cls-27" d="M442.17,147.62c-2.49-2.24-9.25,1.61-10.89,2.55-12.19,6.95-19.38,22.76-15.91,26.23,2.75,2.74,12.55-1.86,18.45-7.53,7.34-7.06,11.42-18.48,8.35-21.24Z"/>
    <path class="cls-30" d="M437.81,148.64c.92.18,2,9.33-2.97,16.77-4.97,7.44-13.9,10.03-14.35,9.33-.35-.55,4.59-2.88,9.36-9.08,6.66-8.67,7.05-17.19,7.96-17.02Z"/>
    <path class="cls-27" d="M422.01,76.02c-3.78,2.3-.42,14.88,3.04,22.42,5.09,11.1,15.41,22.18,19.86,20.14,3.85-1.76,3.05-13.22-.05-21.4-5.1-13.43-18.6-23.75-22.85-21.16Z"/>
    <path class="cls-30" d="M427.96,83.07c.62-.05-.11,7.27,4.29,15.83,5.32,10.35,14.02,14.53,13.49,15.3-.52.75-9.71-2.12-14.93-10.11-6.12-9.37-3.62-20.96-2.85-21.02Z"/>
    <path class="cls-26" d="M391.94,208.59c-1.2,9.75-2.88,18.54-4.71,26.26-.9,3.82-3.73,15.32-9.29,30.23-4.48,12.02-10.1,24.52-10.77,24.27-.61-.23,3.07-10.85,8.26-26.92,4.19-12.97,9.96-31.31,16.52-53.84Z"/>
    <path class="cls-26" d="M367.7,305.9c-.38-.29,4.9-9.58,14.17-17.87,6.71-6,13.52-9.68,13.78-9.33.27.37-6.65,4.97-15.75,13.93-8.16,8.03-11.91,13.5-12.2,13.27Z"/>
  </g>
  <g id="Layer_13">
    <path class="cls-20" d="M254.53,303.39c-3.05-.63-4.43-4.57-5.2-6.86-2.07-6.14-1.42-11.65.22-20.88,1.58-8.88,2.37-13.32,4.04-19.69,1.86-7.09,2.95-9.84,6.84-21.96,6.86-21.4,5.41-18.98,6.84-21.96,7.28-15.23,17.69-21.24,15.24-28.77-.73-2.26-3-5.82-3.29-6.26-2.04-3.18-3.57-5.56-6.15-7.15-4.67-2.89-10.15-1.59-11.1-1.36-6.94,1.65-12.58,8.01-14.9,14.21-1.52,4.07-1.54,7.83-3.63,8.3-1.31.29-2.99-.81-3.52-2.14-.58-1.46.33-2.88,1.78-5.73,2.46-4.83,2.15-5.33,3.33-7.34,3.61-6.15,9.97-8.79,13.71-10.39,4.66-2,8.06-3.46,12.29-2.46,4.75,1.12,7.72,4.69,8.66,5.84,4.09,5.04,3.54,9.89,5.26,10.02.39.03,1.9-.11,5.48-10.86,2.78-8.36,4.17-12.53,4.1-16.53-.04-2.19-.29-10.19-6.04-17.59-1.71-2.2-5.74-7.24-12.84-9.23-6.84-1.92-12.95-.01-14.85.61-4.5,1.47-6.73,3.56-7.22,2.99-.67-.79,2.54-6.06,7.75-8.06,3.02-1.16,5.56-.78,9.48-.19,3.6.54,9.9,1.49,15.93,6.01,5.02,3.75,6.39,7.38,8.36,6.79,2.01-.6,2.37-4.92,2.68-8.59.71-8.55-1.61-10.6-.67-18.02.68-5.44,2.07-5.46,1.72-8.89-.44-4.35-3.13-7.33-8.48-13.12-4.65-5.03-7.76-8.39-13.2-11.44-4.38-2.46-8.15-4.58-13.37-4.16-1.24.1-6.83.68-10.97,4.96-4.56,4.71-4.51,10.96-5.48,10.86-1.11-.11-2.31-5.1-1.14-9.78.28-1.13,1.54-5.64,5.84-8.66,4.04-2.84,8.33-2.64,12.29-2.46,7.51.35,12.96,3.26,16.23,5.05,3.07,1.69,8.2,4.56,12.54,10.19,4.05,5.25,4.87,9.59,6.51,9.36,1.34-.19,1.43-3.14,3.27-10.5,2.27-9.07,3.51-10.15,3.51-14.62,0-2.96-.55-2.76-2.1-10.08-2.54-12.03-1.19-13.14-3.54-18.91-2.33-5.71-5.3-8.66-4.3-9.72.81-.86,3.73.08,5.73,1.78,2.29,1.95,2.68,4.32,4.07,13.84.82,5.61,2.51,11.07,3.18,16.7.26,2.19.43,4.19,1.68,4.71,1.93.82,4.2-2.9,9.06-5.56,1.27-.7,6.14-3.36,11.33-2.76,9.18,1.07,14.33,11.77,16.12,15.49,1.8,3.74,3.32,8.6,2.4,9.12-1.11.63-5.6-5.11-6.45-6.2-3.39-4.34-3.33-5.68-5.85-8.11-1.05-1.01-3.79-3.64-8-4.59-5.84-1.31-12.95.99-15.39,5.68-.11.22-.27.54-.89,2.86-1.59,5.92-2.37,10.46-2.61,11.75-1.22,6.51-2.77,5.82-6.01,15.93-2.38,7.42-3.06,12.51-3.21,13.66-.86,6.73-.77,14.62.61,14.85.92.16,1.23-3.28,4.29-7.04,4-4.93,9.61-6.58,12.82-7.53,2.39-.71,7.5-2.15,13.9-.91,3.55.69,8.5,1.65,11.82,5.77,2.95,3.67,3.02,7.86,3.12,13.54.13,8.04-1.96,14.99-2.55,14.92-.37-.05.05-2.77-.49-8.53-.26-2.76-.52-5.53-1.44-8.83-1.09-3.94-1.75-6.28-3.65-8.47-3.97-4.56-10.28-4.83-12.11-4.82-5.18.02-8.72,2.37-13.18,5.32-3.19,2.12-7.92,5.33-10.85,11.29-.91,1.84-1.4,3.78-2.38,7.64-1.86,7.34-.56,6.85-2.25,13.96-.52,2.17-.93,3.43-.23,4.12,1.14,1.13,4.03-.54,7.87-1.74,5.25-1.63,9.92-1.65,11.99-1.5,9.24.64,15.56,7.87,16.95,9.47,1.72,1.97,5.76,6.73,6.28,13.48.3,3.98-.68,7.92-1.42,7.94-.67.01-.74-3.17-2.69-8.17-.56-1.43-1.74-4.4-3.94-7.51-1.35-1.9-3.72-5.26-8.06-7.75-5.27-3.02-10.35-2.97-12.71-2.91-3.15.07-10.12.24-14.13,5.03-.36.43-.86,1.09-2.44,4.48-2.41,5.16-2.67,7.24-4.52,11.16-1.75,3.7-2.73,3.51-4.29,7.04-1.26,2.84-.82,3.09-2.08,6.68-2.09,5.97-5.33,11.12-5.77,11.82-1.74,2.73-2.85,3.96-2.44,4.48.63.81,3.71-1.63,8.17-2.69,3.38-.81,7.69.08,16.17,1.89,9.79,2.09,11.4,3.11,12.41,3.87,4.56,3.4,7.36,9.13,6.21,10.31-.83.86-3.87-.47-5.73-1.78-2.16-1.53-2.67-3-3.88-4.35-1.75-1.96-3.97-2.55-11.46-3.57-9.75-1.33-14.68-1.97-17.42-1.24-1.84.5-6.74,1.88-10.31,6.21-2.64,3.21-3.3,6.5-3.93,9.25-2.99,13.17-4.38,10.22-7.43,23.87-2.57,11.48-3.86,17.22-3.32,24.1,1.05,13.48,1.58,20.22,2.35,22.73.42,1.38,1.61,5.02-.17,7.28-1.07,1.36-3.06,2.02-4.71,1.68Z"/>
    <path class="cls-23" d="M210.88,208.1c.87-.97,2.06-.5,3.46-1.02,2.41-.89,3.22-3.86,4.29-7.04,2.01-6,3.01-9,4.52-11.16,4.25-6.1,11.77-7.37,12.82-7.53,4.39-.68,7.82.34,10.14,1.06,2.71.84,8.29,2.57,12.18,7.98.89,1.24,3.85,5.68,3.71,11.63-.18,7.47-5.03,8.57-5.05,16.23-.01,4.82,1.89,8.21.19,9.48-1.61,1.21-4.14-1.22-6.32.13-2.42,1.48-1.11,5.53-3.04,6.39-.55.24-1.59.33-8-4.59-4.2-3.22-5.19-4.37-7.04-4.29-2.25.09-2.56,1.86-5.01,2.63-5.16,1.62-12.67-3.4-12.47-7.03.11-2.13,2.83-2.92,2.44-4.48-.52-2.07-5.46-1.23-7.04-4.29-.68-1.32-.63-3.15.23-4.12Z"/>
    <path class="cls-23" d="M218.38,123.51c1.7-3.46,6-4.84,10.31-6.21,4.51-1.44,8.14-1.49,11.99-1.5,6.72-.03,10.23-.05,13.96,2.25,1.32.81,5.23,3.49,6.81,8.4,1.71,5.32-.36,9.98-2.55,14.92-2.92,6.57-7.21,10.91-10.49,13.49-4.47,3.53-6.86,5.43-10.02,5.26-5.68-.31-9.21-7.48-16.25-21.82-4.73-9.64-4.9-12.51-3.77-14.79Z"/>
    <path class="cls-23" d="M218.28,86.82c.75-2.63,2.7-4.1,6.2-6.45,7.31-4.9,10.96-7.35,14.07-8.19,3.1-.83,6.98-1.88,11.69-.55,1.04.3,8.16,2.42,10.93,8.64,2.43,5.48-1.41,7.61-.28,17.72.66,5.86,2.45,9.63.85,10.74-1.6,1.1-4.03-2.19-7.94-1.42-3.44.68-3.4,3.58-6.56,4.24-3.39.71-4.4-2.44-11.16-4.52-4.65-1.43-6.41-.63-7.64-2.38-1.89-2.68,1.31-5.9-.49-8.53-1.98-2.91-7.06-.69-9.25-3.93-1.38-2.03-.61-4.72-.42-5.37Z"/>
    <path class="cls-23" d="M291.18,30.97c2.75.31,4.62,1.52,7.34,3.33,3.24,2.16,4.86,3.24,4.84,4.65-.02,1.82-2.34,3.44-4.35,3.88-3.59.78-6.7-2.14-8.3-3.63-2.11-1.98-5.06-5.81-3.94-7.51.74-1.13,2.98-.88,4.41-.72Z"/>
    <path class="cls-23" d="M299.05,29.23c-3.96-1.14-6.7-2.91-7.34-3.33-4.24-2.79-6.35-4.19-7.4-6.5-1.45-3.2-1.52-8.18,1.06-10.14,4.2-3.19,12.72,3.64,13.37,4.16,1.32,1.08,5.86,4.78,6.21,10.31.05.72.29,4.53-1.78,5.73-.57.33-1.43.54-4.12-.23Z"/>
    <path class="cls-23" d="M322.08,89.82c.67-2.73,2.16-7.31,5.77-11.82,2.4-3,5.95-7.43,12.16-8.78,8.46-1.84,15.19,3.49,15.57,3.8,9.53,7.8,8.7,24.25,4.32,26.48-2.05,1.05-3.9-1.55-8.23-.47-3.71.93-4.62,3.39-7.22,2.99-2.36-.37-2.2-2.5-5.13-3.69-3.66-1.49-5.71,1.1-8.23-.47-2.41-1.5-1.46-4.42-4.24-6.56-1.56-1.2-3.41-1.46-4.77-1.49Z"/>
    <path class="cls-23" d="M350.4,130.06c-1.9-.9-5.36-2.55-9.85-2.02-6.78.8-10.89,5.98-11.57,6.87-.7.92-.15.39-5.18,9.91-1.49,2.81-2.62,4.89-4.95,5.79-1.78.69-2.92.17-3.46,1.02-.97,1.53,1.2,5.69,4.24,6.56,2,.57,3.39-.56,4.12.23,1.14,1.25-1.92,4.45-.83,6.03,1.14,1.65,6.07.4,8.53-.49,3.61-1.3,4.11-2.6,5.96-2.33,2.09.3,2.27,2.06,5.79,4.95,2.06,1.69,5.13,4.2,7.34,3.33,1.84-.72,1.28-3.07,3.4-4.18,2.38-1.25,4.51.96,6.32-.13,1.69-1.01,1.48-3.92,1.42-7.94-.16-12.06,1.4-10.95.34-14.56-2.49-8.55-10.57-12.54-11.65-13.05Z"/>
    <path class="cls-23" d="M311.32,184.92c.77-.91,1.44-1.52,1.66-1.71,5.88-5.23,9.55-7.37,9.55-7.37,5.43-3.16,9.12-5.31,14.13-5.03,4.98.28,10.31,2.91,13.43,7.32,2.48,3.5,2.25,9.54,1.69,21.47-.44,9.45-1.3,12.23-2.91,12.71-2.42.72-4.74-4.3-8.3-3.63-2.99.57-3.31,4.48-5.6,4.54-2.82.07-2.91-5.84-7.76-8.7-4.82-2.85-8.97.49-11.75-2.61-2.01-2.24-.11-4.28-2.69-8.17-1.77-2.67-3.81-3.44-3.58-5.31.14-1.13,1.05-2.22,2.14-3.52Z"/>
    <path class="cls-23" d="M282.04,221.77c1.54-3.42,5.67-4.58,12.5-6.51,4.97-1.4,9.43-2.66,15.14-1.53,2.87.57,7.51,1.49,10.87,5.46,3.73,4.41,3.53,9.79,3.43,12.51-.3,8.35-5.13,14.02-7.23,16.48-3.46,4.06-5.9,6.92-9.64,7.4-8.61,1.1-15.98-11.51-20.98-20.06-5.68-9.72-4.49-12.88-4.09-13.76Z"/>
    <path class="cls-25" d="M279.64,246.27c-4.27-1.82-6.5.23-8.89-1.72-2.13-1.74-3.07-5.56-1.74-7.87,1.96-3.4,7.91-1.96,8.76-4.6.7-2.16-3.1-3.7-2.99-7.22.11-3.25,3.51-6.65,6.2-6.45,2.44.18,2.7,3.2,6.09,3.99,2.25.52,2.74-.67,5.37-.42,3.29.31,7.18,2.63,7.7,5.54.54,3.04-2.93,4.84-2.08,6.68,1.03,2.26,6.4-.07,9.55,2.97,2.03,1.96.49,3.6,2.69,8.17,2.03,4.21,4.06,4.31,4.9,7.81.53,2.2.64,5.99-1.13,6.98-3.12,1.75-9.13-6.9-13.07-5.12-2.86,1.29-1.44,6.64-4.59,8-2.49,1.08-6.39-.97-8.3-3.63-2.05-2.86-.51-4.66-2.69-8.17-2.05-3.3-5.29-4.73-5.79-4.95Z"/>
    <path class="cls-25" d="M212.66,138.49c-.51-.55-2.09-2.24-2.93-4.05-1.35-2.91-1.32-7.27.47-8.23,1.36-.73,2.78,1.02,4.12.23,1.48-.87.32-3.36,1.78-5.73,1.4-2.28,4.74-3.66,7.22-2.99,2.6.7,2.15,3.07,5.49,5.9,4.02,3.4,6.88,1.86,8.95,4.88,1.84,2.68-.09,4.37,1.74,7.87,2.04,3.92,5.09,3.03,6.45,6.2,1.7,3.96-2.62,6.39-1.96,13.01.43,4.25,2.37,4.92,1.74,7.87-.82,3.82-5.08,7.38-8.4,6.81-2.85-.49-2.33-3.54-7.11-7.45-3.3-2.7-4.89-2.33-8.66-5.84-3.35-3.11-3.55-4.75-3.58-5.31-.17-2.73,2.23-3.44,1.78-5.73-.21-1.07-1.97-2.68-5.49-5.9-.66-.6-1.04-.94-1.61-1.55Z"/>
    <path class="cls-5" d="M229.13,139.42c-2.01-.43-4.91-.73-7.5.53-2.82,1.37-3.16,3.56-5.99,5.77-1.54,1.2-4.07,2.62-8.31,3.14"/>
    <path class="cls-5" d="M227.28,141.99c-3.36.18-5.05,1.31-5.96,2.33-1.88,2.09-.71,3.92-2.68,8.59-1.51,3.58-3.49,5.59-3.99,6.09-1.49,1.47-3,2.38-4.05,2.93"/>
    <path class="cls-5" d="M227.94,143.24c.49.89,1.45,2.93,1.38,5.67-.03,1.11-.1,3.66-1.78,5.73-1.12,1.38-2.15,1.54-3.1,3.22-.61,1.08-.81,2.13-.89,2.86"/>
    <path class="cls-5" d="M290.85,237.2c-1.3.96-3.09,2.51-4.65,4.84-1.58,2.36-1.88,3.97-3.04,6.39-.96,2.02-2.6,4.77-5.54,7.7"/>
    <path class="cls-5" d="M290.62,241.31c0,1.25-.16,4.49-2.38,7.64-1.49,2.11-3.28,3.29-4.35,3.88"/>
    <path class="cls-5" d="M292.89,244.11c-.5,1.52-1.13,3.96-1.13,6.98,0,4.46,1.4,6.3,1.14,9.78-.15,1.97-.85,4.86-3.63,8.3"/>
    <path class="cls-33" d="M253.05,261.04c.23-1.69-.94-3.21-3.29-6.26-2.15-2.79-4.35-5.65-8.06-7.75-3.69-2.09-4.63-1.03-13.66-3.21-6.3-1.52-9.35-2.88-9.85-2.02-.5.86,2.37,2.56,5.2,6.86,2.93,4.44,2.06,5.98,4.3,9.72.67,1.12,4.74,7.91,11.88,8.94,5.9.85,12.94-2.38,13.48-6.28Z"/>
    <path class="cls-33" d="M256.87,262.23c.11-1.02.57-2.15,3.69-5.13,2.89-2.75,4.34-4.13,5.6-4.54,2.59-.83,3.56.31,7.58-.78,1.21-.33,1.98-.66,2.21-.36.38.5-1.17,2.15-3.69,5.13-4.79,5.66-4.66,6.18-6.5,7.4-.33.22-5.57,3.63-7.87,1.74-1.24-1.02-1.06-3.1-1.02-3.46Z"/>
    <path class="cls-33" d="M280.85,195.33c.28-.33.98-1.09,5.01-2.63,3.46-1.32,4.67-1.43,5.67-1.38,1.02.05,2.57.13,2.86.89.47,1.24-2.68,3.46-4.65,4.84-4,2.81-6.23,2.99-7.22,2.99-.84,0-2.32,0-2.86-.89-.67-1.1.43-2.92,1.19-3.82Z"/>
    <path class="cls-33" d="M280.14,207.68c2.35-.52,4.53.95,5.73,1.78,1.15.8,4.37,3.04,3.88,4.35-.52,1.39-5.26,1.73-8.23-.47-1.78-1.32-3.35-3.85-2.63-5.01.27-.43.78-.55,1.25-.66Z"/>
    <path class="cls-1" d="M273.66,167.95c-.23-.94-4.18-.95-7.28-.17-2.14.54-5.14,1.77-5.01,2.63.13.85,3.33,1.27,6.03.83,3.21-.52,6.48-2.37,6.26-3.29Z"/>
    <path class="cls-33" d="M271.99,163.24c-2.5-.9-3.54-3.49-3.88-4.35-.5-1.26-.58-2.31-.72-4.41-.18-2.58-.27-3.87.23-4.12,1.13-.55,4.31,3.61,6.15,7.15.94,1.81,2.38,4.59,1.38,5.67-.83.9-2.92.15-3.16.06Z"/>
    <path class="cls-33" d="M297.03,150.09c-.36-1.66,2.26-3.42,3.4-4.18,2.13-1.43,4.12-1.91,5.96-2.33,1.51-.35,5.06-1.17,5.37-.42.25.61-1.98,1.52-6.86,5.2-3.09,2.33-4.61,3.79-6.26,3.29-.71-.22-1.45-.8-1.61-1.55Z"/>
    <path class="cls-33" d="M283.94,128.21c-1.5-.55-3.16-.62-6.32.13-2.73.65-7.27,1.72-7.22,2.99.05,1.13,3.76,2.02,6.68,2.08,4.59.1,9.47-1.79,9.42-3.35-.03-.93-1.79-1.56-2.57-1.85Z"/>
    <path class="cls-33" d="M311.55,116.91c.2,1.33,2.55,1.94,4.48,2.44,1.03.27,4.84,1.16,9.48-.19,1.33-.39,2.46-.73,2.5-1.31.08-1.01-3.06-2-5.43-2.74-4.23-1.33-6.95-2.14-9.19-.77-.09.05-2.04,1.28-1.85,2.57Z"/>
    <path class="cls-33" d="M300.62,108.27c.1-.87.44-2.17,2.44-4.48,2.45-2.83,6.2-5.8,6.86-5.2.6.55-2.28,3.2-5.18,9.91-1.21,2.79-1.65,4.5-2.44,4.48-.94-.03-1.92-2.51-1.68-4.71Z"/>
    <path class="cls-33" d="M274.88,69.88c-1.42-.12-4.7-.4-7.87,1.74-.33.23-3.94,2.7-3.4,4.18.58,1.56,5.67,1.68,9.48-.19,2.53-1.24,5.12-3.64,4.65-4.84-.27-.67-1.42-.77-2.86-.89Z"/>
    <path class="cls-33" d="M275.58,57.53c-.33.06-.33.92-.53,5.07-.19,3.9-.28,4.78.42,5.37.84.7,2.43.68,3.16-.06,1.01-1.02.19-3.22-1.08-6.62-.65-1.74-1.44-3.86-1.97-3.76Z"/>
    <path class="cls-33" d="M295.97,49.22c.87,2.2,1.95,3.68,4.24,6.56,2.02,2.54,2.44,2.97,3.22,3.1,1.43.24,3.27-.64,3.76-1.97,1-2.75-4.03-6.74-6.81-8.4-.64-.38-3.99-2.33-4.77-1.49-.16.17-.29.55.36,2.21Z"/>
    <path class="cls-33" d="M315.52,30.17c-1.03-.63-3.37,1.29-5.01,2.63-.49.4-1.74,1.46-3.1,3.22-1.65,2.13-2.9,3.74-2.44,4.48.77,1.24,6.64.43,9.42-3.35,1.87-2.54,2.25-6.29,1.13-6.98Z"/>
    <path class="cls-33" d="M339.94,49.29c-.76-1.05-4.49-.14-6.92,2.04-.81.73-2.65,2.65-2.14,3.52.7,1.19,5.87.48,8.17-2.69.15-.2,1.48-2.05.89-2.86Z"/>
    <path class="cls-33" d="M307.93,78.08c-.56-1.79,3.43-4.87,7.15-6.15.97-.33,4.59-1.58,5.37-.42,1.03,1.53-2.73,7.51-7.75,8.06-1.78.19-4.38-.23-4.77-1.49Z"/>
  </g>
  <g id="Layer_6">
    <path class="cls-35" d="M353.85,481.43c-.21-.31,1.57-1.45,4.66-5.07,1.41-1.65,2.34-2.94,3.11-4,3.65-5.04,6.46-10.37,7.01-11.36,3.56-6.48,9.34-8.67,17.48-14.3,7.25-5.02,11.96-9.94,21.37-19.77,17.9-18.72,24.48-33.96,27.22-32.69,2.15,1-.55,11.06-1.21,13.49-1.5,5.56-5.78,18.55-19.08,32.29-1.98,2.04-8.83,7.43-22.52,18.22-9.02,7.1-12.34,9.51-16.31,12.09-11.07,7.19-21.24,11.82-21.72,11.1Z"/>
    <path class="cls-19" d="M355.13,468.92c-1.42-.39-1.74-4.39-1.28-13.87.51-10.38.82-16.81,2.71-26.83,2.55-13.54,6.06-23.4,6.84-25.58,5.36-14.84,8.05-15.07,12.14-26.54,7-19.61,5.01-35.35,6.25-35.32,1.16.03,2.66,13.67,2.17,28.47-.31,9.3-1.66,17.99-4.37,35.37-1.73,11.15-2.72,15.64-4.12,20.43-2.57,8.81-3.1,6.92-6.72,18.11-1.79,5.55-4.09,13.53-9.81,22.13-1.41,2.12-2.78,3.91-3.84,3.62Z"/>
    <path class="cls-34" d="M361.79,454.54c-1.23-.25-.51-9.39.25-14.94.72-5.27,2.04-11.44,4.83-18.17.41-.98,2.84-6.84,3.51-6.62.68.22-1.79,6.28-2.92,16.36-.75,6.76-.45,11.26-2.95,18.22-.52,1.44-1.91,5.32-2.73,5.15Z"/>
    <path class="cls-34" d="M357.22,479.44c-.33-.47,2.97-3.34,9.59-9.05,5.82-5.03,6.2-5.13,8.81-7.58,5.73-5.39,7.53-8.32,8.06-7.98.77.49-1.51,7.69-7.02,13.24-2.76,2.77-5.78,4.47-11.83,7.86-2.57,1.44-7.22,4.05-7.61,3.51Z"/>
    <path class="cls-17" d="M345.78,486.57c-1.22-3.03,2.5-6.54,5.85-11.04,5.04-6.76,3.78-8.43,9.38-19.52,5.19-10.28,10.55-17.32,15.5-23.82,9.45-12.42,11.32-11.74,18.1-21.5,4.75-6.84,7.45-12.65,12.86-24.28,6.53-14.02,10.38-22.31,13.41-34.35,2.7-10.76,3.15-18.16,4.83-18.17,2.05,0,4.61,8.58,4.63,16.59.01,5.46-1.17,9.76-2.49,13.75-2.64,7.94-5.93,14.84-16.01,32.03-6.09,10.38-9.2,15.65-12.41,19.81-6.18,8-7.78,7.9-15.76,17.09-7.97,9.18-13.44,15.49-18.16,25.24-6.64,13.73-9.97,20.59-10.59,23.6-.43,2.1-1.22,6.62-3.9,7.36-1.86.51-4.47-.86-5.24-2.77Z"/>
    <path class="cls-31" d="M413.5,273.72c-1.08.1-4.35,1.27-7.17,22.58-1.9,14.4-2.86,21.6-1.25,29.49,1.69,8.25,3.8,18.58,12.8,24.68,11.77,7.98,26.5,2.75,28.65,1.99,20.18-7.17,25.51-30.86,26.64-35.82,1.24-5.41-.17-5.2,1.42-17.15.33-2.44.7-4.79-.65-6-2.14-1.92-7.68,3.19-9.46,1.58-.95-.86.4-2.41-.3-4.87-.91-3.22-4.69-5.8-8.2-6.23-4.04-.5-5.17,2.17-8.32,1.24-2.86-.84-2.55-3.21-6.31-6.17-.91-.72-5.48-4.32-10.51-3.68-4.51.57-5.17,4.01-8.75,3.85-4.5-.2-5.84-5.75-8.59-5.49Z"/>
    <path class="cls-28" d="M419.1,277.63c3.34-.41,5.57,1.61,10.12,4.42,8.74,5.39,9.97,3.75,13.47,7.14,3.62,3.49,4.67,7.51,6.19,13.64,2.19,8.84,4.1,16.52.73,23.94-3.18,7.02-6.67,4.1-17.26,16.3-3.64,4.2-5.87,7.58-9.95,7.92-4.35.36-7.94-2.99-8.62-3.62-6.05-5.64-3.68-13.22-3.96-34.13-.22-15.96-1.81-27.19,3.94-32.77.72-.69,2.57-2.49,5.33-2.83Z"/>
    <path class="cls-22" d="M422.41,350.95c-2.03-3.33-.73-7.68,3.61-17.65,4.92-11.31,7.38-16.97,9.37-19.49,3.26-4.13,9.09-7.97,20.64-15.48,13.39-8.71,16.1-9.31,17.74-8.21.91.61,1.87,2,1.12,12.33-.81,11.21-1.21,16.81-3.8,23.42-1.61,4.12-4.42,11.08-11.21,17.54-6.14,5.84-12.31,8.21-15.5,9.39-5.16,1.92-11.19,4.16-17.15,1.67-1.57-.66-3.58-1.49-4.83-3.53Z"/>
    <path class="cls-37" d="M444.74,346.8c.92,1.26,7.4-.96,12.16-4.86,4.28-3.51,6.23-7.62,8.12-11.71,3.37-7.29,4.67-14.61,4.02-14.83-.6-.21-1.24,6.21-6.63,12.51-4.57,5.34-9.08,6.53-15.34,14.48-2.54,3.23-2.6,4.05-2.34,4.41Z"/>
    <path class="cls-22" d="M414.59,272.2c5.64,8.6,6.79,14.25,6.79,14.25,1.96,9.7.04,17.82-.82,20.88-2.96,10.59-7.19,11.13-6.82,18.67.17,3.51,1.19,5.33,1.59,12.47.25,4.4.5,8.95-.81,9.26-1.61.38-4.84-5.75-6.39-9.2-3.07-6.8-3.96-12.78-4.38-16.86-.77-7.46.03-15.02,1.63-30.14,2.47-23.29,2.92-8.47,4.82-18.76.13-.69.51-2.86,1.6-3.03,1.02-.16,2.19,1.52,2.8,2.45Z"/>
  </g>
</svg>