<?xml version="1.0" encoding="UTF-8"?>
<svg xmlns="http://www.w3.org/2000/svg" viewBox="0 0 336 531.5">
  <defs>
    <style>
      .cls-1, .cls-2, .cls-3, .cls-4, .cls-5 {
        fill: none;
      }

      .cls-6 {
        fill: #fdd24f;
      }

      .cls-7 {
        fill: #009a23;
      }

      .cls-7, .cls-2, .cls-3, .cls-8, .cls-4, .cls-9, .cls-10, .cls-11, .cls-12, .cls-13, .cls-14, .cls-5, .cls-15, .cls-16, .cls-17, .cls-18 {
        stroke-miterlimit: 10;
      }

      .cls-7, .cls-10 {
        stroke: #009a28;
      }

      .cls-2 {
        stroke: #006837;
      }

      .cls-2, .cls-3, .cls-4 {
        stroke-width: 3px;
      }

      .cls-19 {
        fill: #3a6654;
      }

      .cls-3 {
        stroke: #007210;
      }

      .cls-20 {
        fill: #e8aaa9;
      }

      .cls-21 {
        fill: #ffd35a;
      }

      .cls-22 {
        fill: #f4d1cd;
      }

      .cls-23 {
        fill: #637959;
      }

      .cls-24 {
        fill: #feb3b0;
      }

      .cls-25 {
        fill: #4a5906;
      }

      .cls-8 {
        fill: #007f08;
        stroke: #007f08;
      }

      .cls-4 {
        stroke: #005d2d;
      }

      .cls-9 {
        fill: #f8c8df;
        stroke: #eb5c9d;
      }

      .cls-26 {
        fill: #fabf01;
      }

      .cls-27 {
        fill: #9ab48e;
      }

      .cls-28 {
        fill: #e7dfbb;
      }

      .cls-10 {
        fill: #009a28;
      }

      .cls-29 {
        fill: #faa701;
      }

      .cls-30 {
        fill: #778432;
      }

      .cls-31 {
        fill: #fff;
      }

      .cls-32 {
        fill: #89b238;
      }

      .cls-33 {
        fill: #75a978;
      }

      .cls-11 {
        fill: #c1272d;
        stroke: #c1272d;
      }

      .cls-12 {
        fill: #8b5bf9;
        stroke: #8b5bf9;
      }

      .cls-13 {
        fill: #f0abcd;
        stroke: #ff7bac;
      }

      .cls-14 {
        fill: #8cb23b;
        stroke: #8cb23b;
      }

      .cls-5 {
        stroke: #000;
        stroke-width: .5px;
      }

      .cls-15 {
        stroke: #ca1b17;
      }

      .cls-15, .cls-17, .cls-18 {
        fill: #ed1c24;
      }

      .cls-34, .cls-16 {
        fill: #36695d;
      }

      .cls-16 {
        stroke: #36695d;
      }

      .cls-35 {
        fill: #768e2c;
      }

      .cls-17 {
        stroke: #bf2e18;
      }

      .cls-18 {
        stroke: #d41c16;
      }

      .cls-36 {
        fill: #f6be37;
      }

      .cls-37 {
        fill: #ffd6d7;
      }

      .cls-38 {
        fill: #ffc5c4;
      }
    </style>
  </defs>
  <g id="Layer_36">
    <path class="cls-3" d="M47.27,324.92c2.59-6.33,6.28-15.92,9.89-27.89,4.73-15.66,6.62-26.33,12.18-56.57,8.69-47.24,7.68-40.72,9.13-49.4,2.8-16.8,6.09-38.38,9.13-63.74"/>
    <path class="cls-4" d="M58.69,325.71c.37-5.6.77-13.56.76-23.11,0-6.46-.19-25.36-5.33-61.35-2.97-20.79-5.99-36.12-9.89-55.77-3.78-19-7.28-34.83-9.89-46.21"/>
    <path class="cls-10" d="M58.69,285.87c-1.11.67-5.68-5.61-9.13-10.36-10.73-14.75-16.72-27.7-18.27-31.07-7.41-16.22-21.37-48.97-19.03-50.19,1.16-.61,5.78,6.84,11.42,15.93,7.68,12.38,13.38,23.59,19.79,37.45,7.3,15.77,17.16,37.08,15.22,38.24Z"/>
    <path class="cls-7" d="M59.45,289.06c2.01,1.33,11.64-11.25,12.18-11.95,11.65-15.29,17.17-30.62,19.79-39.04,7.46-23.97,9.08-48.88,6.85-49.4-.4-.09-1.04.58-3.81,7.17-6.69,15.94-7.71,23.38-12.18,35.85-4.34,12.13-9.76,22.92-10.66,24.7-1.88,3.71-5.01,9.66-8.37,18.33-2.38,6.14-5.2,13.42-3.81,14.34Z"/>
    <ellipse class="cls-12" cx="44.23" cy="179.11" rx="1.52" ry="1.59"/>
    <ellipse class="cls-12" cx="48.76" cy="174.37" rx="1.5" ry="1.61" transform="translate(-2.32 .67) rotate(-.76)"/>
    <ellipse class="cls-12" cx="34.48" cy="172.36" rx="1.5" ry="1.61" transform="translate(-2.29 .47) rotate(-.76)"/>
    <ellipse class="cls-12" cx="36.76" cy="177.93" rx="1.5" ry="1.61" transform="translate(-2.37 .51) rotate(-.76)"/>
    <ellipse class="cls-12" cx="44.37" cy="133.32" rx="1.5" ry="1.61" transform="translate(-1.77 .6) rotate(-.76)"/>
    <ellipse class="cls-12" cx="45.9" cy="139.69" rx="1.5" ry="1.61" transform="translate(-1.86 .62) rotate(-.76)"/>
    <ellipse class="cls-12" cx="48.94" cy="148.45" rx="1.5" ry="1.61" transform="translate(-1.97 .67) rotate(-.76)"/>
    <ellipse class="cls-12" cx="51.98" cy="158.81" rx="1.5" ry="1.61" transform="translate(-2.11 .71) rotate(-.76)"/>
    <ellipse class="cls-12" cx="51.22" cy="166.78" rx="1.5" ry="1.61" transform="translate(-2.22 .7) rotate(-.76)"/>
    <ellipse class="cls-12" cx="28.39" cy="148.45" rx="1.5" ry="1.61" transform="translate(-1.98 .39) rotate(-.76)"/>
    <ellipse class="cls-12" cx="30.67" cy="155.62" rx="1.5" ry="1.61" transform="translate(-2.07 .42) rotate(-.76)"/>
    <ellipse class="cls-12" cx="32.96" cy="167.57" rx="1.5" ry="1.61" transform="translate(-2.23 .45) rotate(-.76)"/>
    <ellipse class="cls-12" cx="36.76" cy="119.77" rx="1.5" ry="1.61" transform="translate(-1.59 .5) rotate(-.76)"/>
    <ellipse class="cls-12" cx="29.15" cy="119.77" rx="1.5" ry="1.61" transform="translate(-1.59 .4) rotate(-.76)"/>
    <ellipse class="cls-12" cx="29.15" cy="164.39" rx="1.5" ry="1.61" transform="translate(-2.19 .4) rotate(-.76)"/>
    <ellipse class="cls-12" cx="41.33" cy="154.03" rx="1.5" ry="1.61" transform="translate(-2.05 .56) rotate(-.76)"/>
    <ellipse class="cls-12" cx="29.15" cy="133.32" rx="1.5" ry="1.61" transform="translate(-1.77 .4) rotate(-.76)"/>
    <ellipse class="cls-12" cx="41.33" cy="140.49" rx="1.5" ry="1.61" transform="translate(-1.87 .56) rotate(-.76)"/>
    <ellipse class="cls-12" cx="43.61" cy="148.45" rx="1.5" ry="1.61" transform="translate(-1.97 .59) rotate(-.76)"/>
    <ellipse class="cls-12" cx="46.66" cy="154.03" rx="1.5" ry="1.61" transform="translate(-2.05 .64) rotate(-.76)"/>
    <ellipse class="cls-12" cx="46.66" cy="160.4" rx="1.5" ry="1.61" transform="translate(-2.13 .64) rotate(-.76)"/>
    <ellipse class="cls-12" cx="46.66" cy="165.98" rx="1.5" ry="1.61" transform="translate(-2.21 .64) rotate(-.76)"/>
    <ellipse class="cls-12" cx="44.37" cy="170.76" rx="1.5" ry="1.61" transform="translate(-2.27 .61) rotate(-.76)"/>
    <ellipse class="cls-12" cx="40.57" cy="174.75" rx="1.5" ry="1.61" transform="translate(-2.32 .56) rotate(-.76)"/>
    <ellipse class="cls-12" cx="39.05" cy="169.97" rx="1.5" ry="1.61" transform="translate(-2.26 .54) rotate(-.76)"/>
    <ellipse class="cls-12" cx="36" cy="156.42" rx="1.5" ry="1.61" transform="translate(-2.08 .49) rotate(-.76)"/>
    <ellipse class="cls-12" cx="36.76" cy="164.39" rx="1.5" ry="1.61" transform="translate(-2.19 .5) rotate(-.76)"/>
    <ellipse class="cls-12" cx="33.72" cy="150.05" rx="1.5" ry="1.61" transform="translate(-2 .46) rotate(-.76)"/>
    <ellipse class="cls-12" cx="31.43" cy="143.67" rx="1.5" ry="1.61" transform="translate(-1.91 .43) rotate(-.76)"/>
    <ellipse class="cls-12" cx="32.96" cy="161.2" rx="1.5" ry="1.61" transform="translate(-2.14 .45) rotate(-.76)"/>
    <ellipse class="cls-12" cx="29.91" cy="138.89" rx="1.5" ry="1.61" transform="translate(-1.85 .41) rotate(-.76)"/>
    <ellipse class="cls-12" cx="41.33" cy="159.61" rx="1.5" ry="1.61" transform="translate(-2.12 .56) rotate(-.76)"/>
    <ellipse class="cls-12" cx="28.39" cy="159.61" rx="1.5" ry="1.61" transform="translate(-2.12 .39) rotate(-.76)"/>
    <ellipse class="cls-12" cx="42.09" cy="165.18" rx="1.5" ry="1.61" transform="translate(-2.2 .58) rotate(-.76)"/>
    <ellipse class="cls-12" cx="38.28" cy="148.45" rx="1.5" ry="1.61" transform="translate(-1.97 .52) rotate(-.76)"/>
    <ellipse class="cls-12" cx="36" cy="143.67" rx="1.5" ry="1.61" transform="translate(-1.91 .49) rotate(-.76)"/>
    <ellipse class="cls-12" cx="36" cy="138.1" rx="1.5" ry="1.61" transform="translate(-1.84 .49) rotate(-.76)"/>
    <ellipse class="cls-12" cx="34.48" cy="131.72" rx="1.5" ry="1.61" transform="translate(-1.75 .47) rotate(-.76)"/>
    <ellipse class="cls-12" cx="31.43" cy="126.14" rx="1.5" ry="1.61" transform="translate(-1.68 .43) rotate(-.76)"/>
    <ellipse class="cls-12" cx="37.52" cy="126.94" rx="1.5" ry="1.61" transform="translate(-1.69 .51) rotate(-.76)"/>
    <ellipse class="cls-12" cx="39.05" cy="134.11" rx="1.5" ry="1.61" transform="translate(-1.78 .53) rotate(-.76)"/>
    <ellipse class="cls-12" cx="83.77" cy="124.86" rx="1.5" ry="1.61" transform="translate(-1.66 1.13) rotate(-.76)"/>
    <ellipse class="cls-12" cx="90.62" cy="123.27" rx="1.5" ry="1.61" transform="translate(-1.63 1.22) rotate(-.76)"/>
    <ellipse class="cls-12" cx="86.05" cy="120.08" rx="1.5" ry="1.61" transform="translate(-1.59 1.16) rotate(-.76)"/>
    <ellipse class="cls-12" cx="95.94" cy="122.47" rx="1.5" ry="1.61" transform="translate(-1.62 1.29) rotate(-.76)"/>
    <ellipse class="cls-12" cx="92.9" cy="118.49" rx="1.5" ry="1.61" transform="translate(-1.57 1.25) rotate(-.76)"/>
    <ellipse class="cls-12" cx="90.62" cy="110.52" rx="1.5" ry="1.61" transform="translate(-1.46 1.22) rotate(-.76)"/>
    <ellipse class="cls-12" cx="97.47" cy="127.25" rx="1.5" ry="1.61" transform="translate(-1.69 1.31) rotate(-.76)"/>
    <ellipse class="cls-12" cx="93.66" cy="135.22" rx="1.5" ry="1.61" transform="translate(-1.79 1.26) rotate(-.76)"/>
    <ellipse class="cls-12" cx="89.09" cy="115.3" rx="1.5" ry="1.61" transform="translate(-1.53 1.2) rotate(-.76)"/>
    <ellipse class="cls-12" cx="80.72" cy="128.85" rx="1.5" ry="1.61" transform="translate(-1.71 1.09) rotate(-.76)"/>
    <ellipse class="cls-12" cx="72.35" cy="133.63" rx="1.5" ry="1.61" transform="translate(-1.77 .98) rotate(-.76)"/>
    <ellipse class="cls-12" cx="74.63" cy="140" rx="1.5" ry="1.61" transform="translate(-1.86 1.01) rotate(-.76)"/>
    <ellipse class="cls-12" cx="74.63" cy="146.37" rx="1.5" ry="1.61" transform="translate(-1.94 1.01) rotate(-.76)"/>
    <ellipse class="cls-12" cx="73.87" cy="127.25" rx="1.5" ry="1.61" transform="translate(-1.69 1) rotate(-.76)"/>
    <ellipse class="cls-12" cx="76.16" cy="121.68" rx="1.5" ry="1.61" transform="translate(-1.61 1.03) rotate(-.76)"/>
    <ellipse class="cls-12" cx="80.72" cy="120.08" rx="1.5" ry="1.61" transform="translate(-1.59 1.09) rotate(-.76)"/>
    <ellipse class="cls-12" cx="84.53" cy="115.3" rx="1.5" ry="1.61" transform="translate(-1.53 1.14) rotate(-.76)"/>
    <ellipse class="cls-12" cx="86.05" cy="108.93" rx="1.5" ry="1.61" transform="translate(-1.44 1.16) rotate(-.76)"/>
    <ellipse class="cls-12" cx="90.62" cy="104.94" rx="1.5" ry="1.61" transform="translate(-1.39 1.22) rotate(-.76)"/>
    <ellipse class="cls-12" cx="95.18" cy="109.72" rx="1.5" ry="1.61" transform="translate(-1.45 1.28) rotate(-.76)"/>
    <ellipse class="cls-12" cx="96.71" cy="116.1" rx="1.5" ry="1.61" transform="translate(-1.54 1.3) rotate(-.76)"/>
    <ellipse class="cls-12" cx="100.51" cy="121.68" rx="1.5" ry="1.61" transform="translate(-1.61 1.35) rotate(-.76)"/>
    <ellipse class="cls-12" cx="98.99" cy="132.03" rx="1.5" ry="1.61" transform="translate(-1.75 1.33) rotate(-.76)"/>
    <ellipse class="cls-12" cx="98.99" cy="139.2" rx="1.5" ry="1.61" transform="translate(-1.85 1.33) rotate(-.76)"/>
    <ellipse class="cls-12" cx="97.47" cy="147.97" rx="1.5" ry="1.61" transform="translate(-1.96 1.31) rotate(-.76)"/>
    <ellipse class="cls-12" cx="97.47" cy="155.94" rx="1.5" ry="1.61" transform="translate(-2.07 1.31) rotate(-.76)"/>
    <ellipse class="cls-12" cx="91.38" cy="164.7" rx="1.5" ry="1.61" transform="translate(-2.19 1.23) rotate(-.76)"/>
    <ellipse class="cls-12" cx="86.05" cy="170.28" rx="1.5" ry="1.61" transform="translate(-2.26 1.16) rotate(-.76)"/>
    <ellipse class="cls-12" cx="72.35" cy="151.15" rx="1.5" ry="1.61" transform="translate(-2.01 .98) rotate(-.76)"/>
    <ellipse class="cls-12" cx="76.16" cy="165.5" rx="1.5" ry="1.61" transform="translate(-2.2 1.03) rotate(-.76)"/>
    <ellipse class="cls-12" cx="79.2" cy="172.67" rx="1.5" ry="1.61" transform="translate(-2.29 1.07) rotate(-.76)"/>
    <ellipse class="cls-12" cx="76.92" cy="159.43" rx="1.5" ry="1.61" transform="translate(-2.12 1.04) rotate(-.76)"/>
    <ellipse class="cls-12" cx="82.25" cy="158.63" rx="1.5" ry="1.61" transform="translate(-2.11 1.11) rotate(-.76)"/>
    <ellipse class="cls-12" cx="79.21" cy="148.27" rx="1.5" ry="1.61" transform="translate(-1.97 1.07) rotate(-.76)"/>
    <ellipse class="cls-12" cx="92.15" cy="146.68" rx="1.5" ry="1.61" transform="translate(-1.95 1.24) rotate(-.76)"/>
    <ellipse class="cls-12" cx="84.53" cy="142.69" rx="1.5" ry="1.61" transform="translate(-1.89 1.14) rotate(-.76)"/>
    <ellipse class="cls-12" cx="79.21" cy="141.9" rx="1.5" ry="1.61" transform="translate(-1.88 1.07) rotate(-.76)"/>
    <ellipse class="cls-12" cx="94.43" cy="140.3" rx="1.5" ry="1.61" transform="translate(-17.76 13.75) rotate(-7.61)"/>
    <ellipse class="cls-12" cx="90.62" cy="139.51" rx="1.5" ry="1.61" transform="translate(-1.85 1.22) rotate(-.76)"/>
    <ellipse class="cls-12" cx="85.3" cy="137.91" rx="1.5" ry="1.61" transform="translate(-1.83 1.15) rotate(-.76)"/>
    <ellipse class="cls-12" cx="79.97" cy="137.12" rx="1.5" ry="1.61" transform="translate(-1.82 1.08) rotate(-.76)"/>
    <ellipse class="cls-12" cx="88.34" cy="133.13" rx="1.5" ry="1.61" transform="translate(-1.77 1.19) rotate(-.76)"/>
    <ellipse class="cls-12" cx="92.15" cy="129.15" rx="1.5" ry="1.61" transform="translate(-1.71 1.24) rotate(-.76)"/>
    <ellipse class="cls-12" cx="87.58" cy="127.56" rx="1.5" ry="1.61" transform="translate(-1.69 1.18) rotate(-.76)"/>
    <ellipse class="cls-12" cx="76.92" cy="132.34" rx="1.5" ry="1.61" transform="translate(-1.76 1.04) rotate(-.76)"/>
    <ellipse class="cls-12" cx="83.01" cy="133.13" rx="1.5" ry="1.61" transform="translate(-1.77 1.12) rotate(-.76)"/>
    <ellipse class="cls-12" cx="79.21" cy="124.37" rx="1.5" ry="1.61" transform="translate(-1.65 1.07) rotate(-.76)"/>
    <ellipse class="cls-12" cx="90.03" cy="158.76" rx="1.5" ry="1.61" transform="translate(-2.11 1.21) rotate(-.76)"/>
    <ellipse class="cls-12" cx="93.07" cy="155.57" rx="1.5" ry="1.61" transform="translate(-2.06 1.25) rotate(-.76)"/>
    <ellipse class="cls-12" cx="86.22" cy="154.78" rx="1.5" ry="1.61" transform="translate(-2.05 1.16) rotate(-.76)"/>
    <ellipse class="cls-12" cx="90.03" cy="151.59" rx="1.5" ry="1.61" transform="translate(-2.01 1.21) rotate(-.76)"/>
    <ellipse class="cls-12" cx="83.94" cy="150.79" rx="1.5" ry="1.61" transform="translate(-2 1.13) rotate(-.76)"/>
    <path class="cls-12" d="M89.67,143.35c.55.65.47,1.66-.17,2.25s-1.6.54-2.15-.11-.47-1.66.17-2.25,1.6-.54,2.15.11Z"/>
    <ellipse class="cls-12" cx="85.46" cy="165.93" rx="1.5" ry="1.61" transform="translate(-2.2 1.15) rotate(-.76)"/>
    <ellipse class="cls-12" cx="80.9" cy="164.34" rx="1.5" ry="1.61" transform="translate(-2.18 1.09) rotate(-.76)"/>
    <ellipse class="cls-12" cx="86.22" cy="161.15" rx="1.5" ry="1.61" transform="translate(-2.14 1.16) rotate(-.76)"/>
    <ellipse class="cls-12" cx="94.6" cy="150.79" rx="1.5" ry="1.61" transform="translate(-2 1.27) rotate(-.76)"/>
    <ellipse class="cls-12" cx="80.13" cy="154.78" rx="1.5" ry="1.61" transform="translate(-2.05 1.08) rotate(-.76)"/>
    <ellipse class="cls-12" cx="76.33" cy="151.59" rx="1.5" ry="1.61" transform="translate(-2.01 1.03) rotate(-.76)"/>
    <ellipse class="cls-12" cx="73.28" cy="156.37" rx="1.5" ry="1.61" transform="translate(-2.08 .99) rotate(-.76)"/>
    <ellipse class="cls-12" cx="97.64" cy="143.62" rx="1.5" ry="1.61" transform="translate(-1.9 1.31) rotate(-.76)"/>
    <path class="cls-8" d="M57.17,282.69c-.21.17-5.44-6.09-10.66-13.54-5.93-8.47-10.15-16.07-12.94-21.51-6.03-11.78-6.49-15.76-13.7-32.67-1.17-2.74-2.3-5.81-4.57-11.95-1.17-3.17-1.7-4.69-1.52-4.78.41-.21,4.4,7.64,4.57,7.97,5.74,11.31,7.4,18.37,10.66,27.09,4.14,11.06,8.61,18.8,12.94,26.29,8.1,14.01,15.48,22.9,15.22,23.11Z"/>
    <path class="cls-8" d="M61.73,285.87s4.91-5,9.89-11.95c5.55-7.75,10.74-17.42,15.98-34.26,8.11-26.06,9.19-46.3,9.89-46.21.5.07-.08,10.24-1.52,19.92-1.99,13.36-5.25,23.35-6.85,27.89-2.16,6.15-5.28,14.85-11.42,24.7-7.56,12.14-15.93,19.96-15.98,19.92Z"/>
  </g>
  <g id="Layer_25">
    <path class="cls-23" d="M227.12,127.71c-1.76.33-3.99-4.54-5.53-7.88-2.84-6.18-3.28-11.63-3.32-14.64-.02-1.65-.14-10.76,2.21-11.26,2.24-.48,6.05,6.97,7.75,13.51,2.4,9.26,1.35,19.81-1.11,20.27Z"/>
    <path class="cls-23" d="M223.8,133.34c3.2-4.79,8.11-6.75,11.07-7.88,11.41-4.38,17.11-6.57,17.71-5.63,1.37,2.15-7.02,11.78-17.71,15.77-4.25,1.59-11.11,3.12-12.17,1.13-.14-.25-.44-1.06,1.11-3.38Z"/>
    <path class="cls-23" d="M217.16,162.62c-.66,2.09,6.63,6.14,7.75,6.76,8.01,4.44,18.85,6.84,19.92,4.5.99-2.17-6.28-8.72-14.39-11.26-5.67-1.78-12.68-1.9-13.28,0Z"/>
    <path class="cls-23" d="M178.43,153.61c-1.96.13-3.8-5.86-4.43-7.88-2.65-8.62-2.6-19.64,0-20.27,2.31-.56,6.95,7.05,7.75,14.64.66,6.29-1.23,13.37-3.32,13.51Z"/>
    <path class="cls-23" d="M156.3,221.18c1.89-2.17,10.88,2.03,16.6,7.88,2.66,2.72,6.91,8.15,5.53,10.14-1.4,2.02-8.4.09-13.28-3.38-6.26-4.45-10.65-12.57-8.85-14.64Z"/>
    <path class="cls-23" d="M195.03,274.11c-2.4-2.62,7.31-15.2,7.75-15.77,11.5-14.77,29.43-24.43,32.09-21.4,2.31,2.62-6.67,14.94-14.39,22.52-9.66,9.5-23.1,17.22-25.45,14.64Z"/>
    <path class="cls-2" d="M191.16,320.85c3.48-41.78,4.95-89.47,2.21-141.9-2.16-41.47-6.62-79.56-12.17-113.74"/>
    <path class="cls-2" d="M245.93,101.81c-3.15,4.21-6.3,8.54-9.45,12.99-7.73,10.91-14.12,20.68-16.8,24.98-12.03,19.27-21.15,43.5-25.2,54.95"/>
    <path class="cls-2" d="M154.08,131.09c6.74,5.36,15.06,13.02,23,23.37,7.93,10.35,13.02,20.17,16.29,27.87"/>
    <path class="cls-2" d="M173.78,199.78c-.83,6.18-1.28,14.4,0,23.78,2.2,16.13,8.29,26.87,10.35,30.26,3.68,6.07,7.53,10.28,10.35,12.97"/>
    <path class="cls-2" d="M253.68,154.74c-10.61.42-19.13,1.96-25.15,3.38-7.74,1.83-12.06,3.64-15.72,5.63-3.63,1.98-6.45,4.06-8.38,5.63"/>
    <path class="cls-38" d="M165.15,199.78c-.41-.3-1.38-1.7-3.32-4.5-2.87-4.15-3.63-5.35-4.43-6.76-2.67-4.72-2.48-6.01-2.21-6.76.03-.08.72-1.9,2.21-2.25,3.51-.82,7.43,7.42,8.85,6.76,1.35-.63-2.78-7.77,0-13.51,1.97-4.06,7.19-6.99,9.96-5.63,2.19,1.08,1.4,4.14,2.21,20.27.36,7.08.65,9.28-1.11,11.26-2.81,3.18-8.88,3.55-12.17,1.13Z"/>
    <path class="cls-38" d="M133.06,126.58c2.31,2.62,5.34,3.64,8.85,4.5,6.53,1.61,9.8,2.42,12.17,1.13,2.99-1.63,4.14-4.83,4.43-5.63,1.62-4.53-.94-6.36-1.11-13.51-.16-6.92,2.12-10.6,0-12.39-1.69-1.43-3.76.37-5.53-1.13-2.49-2.1.41-6.63-2.21-10.14-1.71-2.28-5.16-3.34-6.64-2.25-1.96,1.44-.12,6.39-1.11,6.76-1.45.53-4.87-10.35-8.85-10.14-2.2.12-4.41,3.61-4.43,6.76-.02,5.32,6.24,9.18,5.53,10.14-.6.81-4.73-2.5-6.64-1.13-1.55,1.12-1.17,4.98,0,7.88,3.2,7.92,12.76,9.73,12.17,12.39-.49,2.22-7.38,1.9-7.75,4.5-.06.4.02,1.02,1.11,2.25Z"/>
    <path class="cls-38" d="M170.68,60.14c-1.13-.52-1.17-.9-4.43-4.5-6.57-7.28-7.75-7.23-8.85-10.14-1.38-3.61.44-3.69-1.11-9.01-.81-2.76-1.98-5.07-1.11-7.88.36-1.17.65-1.03,1.11-2.25,1.63-4.32-1.17-8.05,0-9.01,1.35-1.11,5.45,3.56,7.75,2.25,1.76-1,.42-4.34,2.21-5.63,2.14-1.54,7.26.94,9.96,4.5,3.23,4.26-.02,10.08,2.21,11.26,1.58.84,3.16-1.77,5.53-1.13,2.9.79,4.91,5.88,4.43,10.14-.45,3.88-2.66,4.33-3.32,9.01-.54,3.84.82,4.45,0,6.76-1.68,4.74-9.45,7.91-14.39,5.63Z"/>
    <path class="cls-38" d="M257,80.41c-6.09-.89-10.71.65-15.49,2.25,0,0-8.38,2.8-9.96,6.76-.13.32-1.45,3.65,0,6.76,1,2.14,3.26,3.33,7.75,5.63,4.16,2.13,4.99,2.01,6.64,3.38,3.3,2.74,1.78,5.9,4.43,7.88,2.39,1.79,6.33,1.63,8.85,0,1.63-1.05,2.67-2.71,4.43-13.51,2.15-13.25,1.35-15.48,0-16.89-1.43-1.49-3.17-1.74-6.64-2.25Z"/>
    <path class="cls-38" d="M258.11,83.79c-1.4,5.69,4.36,11.32,7.75,14.64,3.33,3.26,5.81,5.68,9.96,6.76,7.44,1.92,15.91-1.61,19.92-7.88,1.03-1.61,3.53-5.51,2.21-9.01-1.16-3.1-4.39-3.46-15.49-6.76-12.8-3.8-16.11-5.57-19.92-3.38-.38.22-3.56,2.11-4.43,5.63Z"/>
    <path class="cls-38" d="M249.25,48.88c-1.87,1.24-2.09,4.03-2.21,5.63-.36,4.69,2.08,6.32,5.53,14.64,2.4,5.78,2.24,7.45,4.43,9.01,2.35,1.67,4.67,1.26,8.85,1.13,13.85-.45,16.69,3.13,21.03,0,3.07-2.22,5.26-6.62,4.43-10.14-1.5-6.33-12.9-10.19-18.81-9.01-.56.11-1.82.42-3.32,0-2.83-.8-3.85-3.44-5.53-5.63-3.8-4.93-11.19-7.75-14.39-5.63Z"/>
    <path class="cls-38" d="M259.21,75.91c.96-3.95-1.32-7.38-5.53-13.51-5.68-8.26-8.92-12.98-14.39-13.51-2.95-.29-7.08.58-8.85,3.38-1.68,2.65.34,4.54,0,11.26-.25,4.95-1.62,9.39-2.21,11.26-1.6,5.07-2.77,5.96-2.21,7.88,1.26,4.34,8.89,5.47,9.96,5.63,8.96,1.33,15.91-4.2,17.71-5.63,2.71-2.16,4.82-3.83,5.53-6.76Z"/>
    <path class="cls-38" d="M251.47,147.98c.86-2.42,1.79-3.21,4.43-6.76,6.8-9.13,7.15-12.57,11.07-13.51,2.06-.5,4.83-.25,5.53,1.13.52,1.01-.1,2.62-6.64,12.39-1.75,2.61-2.65,3.91-2.21,4.5.66.89,3.6-.78,8.85-2.25,4.33-1.21,10.02-2.81,11.07-1.13,1.02,1.63-2.05,6.81-6.64,9.01-5.2,2.49-9.83-.06-11.07,2.25-.84,1.58.47,4.35,2.21,5.63,1.56,1.15,2.79.6,5.53,1.13,3.61.69,7.84,2.86,7.75,4.5-.09,1.75-5.08,3.13-8.85,3.38-7.99.53-13.96-3.74-16.6-5.63-3.28-2.35-4.14-3.94-4.43-4.5-2.11-4.23-.45-8.87,0-10.14Z"/>
    <path class="cls-27" d="M164.04,198.66c-1.42,1.86,2.18,7.19,5.53,10.14,1.57,1.38,2.89,2.51,4.43,2.25,2.77-.47,4.15-5.14,4.43-7.88.26-2.52.28-6.31-1.11-6.76-.69-.23-1.32.51-2.21,1.13-4.36,2.98-9.61-.78-11.07,1.13Z"/>
    <path class="cls-27" d="M148.55,135.59c.17,2.03,5.68,3.16,8.85,3.38,2.98.2,5.25.36,6.64-1.13,2.99-3.19-1.22-10.63-2.21-12.39-1-1.77-1.63-2.28-2.21-2.25-1.32.06-1.52,2.84-3.32,5.63-3.12,4.83-7.91,4.85-7.75,6.76Z"/>
    <path class="cls-27" d="M168.47,59.01c-.39,1.72,3.16,3.91,7.75,6.76,3.93,2.43,5.02,2.34,5.53,2.25,3.7-.67,5.21-6.61,5.53-7.88,1.05-4.13.75-9.57-1.11-10.14-1.34-.41-2.18,2.11-5.53,4.5-5.9,4.2-11.69,2.38-12.17,4.5Z"/>
    <path class="cls-27" d="M250.36,145.73c-3.67-.86-7.3,2.69-8.85,5.63-.71,1.35-1.49,2.82-1.11,4.5.75,3.28,5.28,4.44,9.96,5.63,2.99.76,3.93.52,4.43,0,.71-.73.32-1.78,0-4.5-.65-5.66.36-7.02-1.11-9.01-.19-.26-1.35-1.79-3.32-2.25Z"/>
    <path class="cls-20" d="M254.79,74.78c-1.48,1.01-2,2.69-2.21,3.38-.66,2.13-.17,3.92,0,4.5.24.83,1.02,3.53,3.32,4.5,2.65,1.13,6.25-.48,7.75-3.38,1.28-2.47.97-5.77-1.11-7.88-2.11-2.15-5.58-2.62-7.75-1.13Z"/>
    <path class="cls-37" d="M236.53,50.57c.29-.56,4.97.57,8.85,3.38,8.66,6.26,10.56,18.89,9.96,19.14-.22.09-.66-1.47-3.32-5.63-2.02-3.16-4.69-7.29-8.85-11.26-3.93-3.75-6.88-5.17-6.64-5.63Z"/>
    <path class="cls-37" d="M233.21,93.36c-.22-.25,2.09-3.35,5.53-5.63,5.68-3.77,12.08-3.77,12.17-3.38.08.35-4.79.85-11.07,4.5-4.09,2.38-6.43,4.74-6.64,4.5Z"/>
    <path class="cls-37" d="M266.41,82.1c.04-.31,6.32-.12,13.28,1.13,8.5,1.53,15.58,4.19,15.49,4.5-.05.2-3.13-.65-11.07-2.25-11.83-2.39-17.74-3.08-17.71-3.38Z"/>
    <path class="cls-37" d="M264.19,69.71c1.21-1.66,3.33-4.06,6.64-5.63,5.43-2.57,11.05-1.47,11.07-1.13.02.31-4.35.03-9.96,2.25-3.45,1.36-6.04,3.15-7.75,4.5Z"/>
    <path class="cls-37" d="M149.1,129.4c-.87,1.52-11.13-1.7-11.07-4.5.04-1.95,5.03-2,5.53-4.5.89-4.38-13.18-9.8-12.17-13.51.44-1.61,3.26-1.22,4.43-3.38.78-1.44-.38-2.78-3.32-10.14-1-2.5-1.26-3.29-1.11-3.38.3-.17,2.06,2.37,3.32,4.5,2.13,3.63,5.06,8.62,3.32,11.26-1.07,1.63-3.17,1.22-3.32,2.25-.23,1.59,4.8,2.36,8.85,6.76,2.33,2.52,4.41,6.32,3.32,7.88-.99,1.43-4.36.61-4.43,1.13-.06.51,3.31.76,5.53,3.38.43.5,1.43,1.69,1.11,2.25Z"/>
    <path class="cls-37" d="M170.13,53.95c-.66.46-4.96-3.74-7.75-9.01-4.25-8.03-4.04-16.74-3.32-16.89.33-.07.74,1.64,2.21,5.63,4.84,13.11,9.62,19.74,8.85,20.27Z"/>
    <path class="cls-27" d="M200.01,270.17c.28.35,5.34-3,9.96-6.76,12.54-10.19,20.36-22.14,19.92-22.52-.2-.17-1.98,2.1-8.85,9.01-12.8,12.85-21.4,19.79-21.03,20.27Z"/>
    <path class="cls-27" d="M159.06,226.25c.89-1.06,15.03,8.93,14.39,10.14-.31.58-4.11-.83-6.64-2.25-4.8-2.7-8.25-7.28-7.75-7.88Z"/>
    <path class="cls-27" d="M223.25,163.18c.05-.23,4.77.1,9.96,2.25,5.3,2.2,8.98,5.43,8.85,5.63-.11.18-3.27-2.14-8.85-4.5-5.89-2.5-10.01-3.16-9.96-3.38Z"/>
    <path class="cls-27" d="M226.57,135.03c.11.33,6.55-.79,13.28-4.5,6.83-3.77,11.28-8.73,11.07-9.01-.2-.26-4.42,3.64-12.17,7.88-7.21,3.95-12.27,5.34-12.17,5.63Z"/>
    <path class="cls-27" d="M225.46,121.52c-.2.07-3.25-5.71-4.43-13.51-1.02-6.8-.21-12.39,0-12.39.21,0-.27,5.62,1.11,13.51,1.32,7.58,3.5,12.32,3.32,12.39Z"/>
    <path class="cls-27" d="M175.66,128.27c.35-.16,3.47,4.29,4.43,10.14.99,6.03-.68,11.3-1.11,11.26-.43-.04.58-5.56-1.11-13.51-1.05-4.93-2.48-7.76-2.21-7.88Z"/>
  </g>
  <g id="Layer_19">
    <path class="cls-30" d="M156.38,319.49c-1.72-.55-1.65-4.47-1.67-10.14-.01-4.11-.4-8.23-.15-12.34.61-10.15.21-20.33.39-30.5.27-15.44.2-15.37.44-26.87.22-10.53.07-14.21.51-21.06.66-10.36,1.22-9.25,1.34-15.99.08-4.45-.07-9.93,1.32-17.44.4-2.17,1.24-6.58,2.23-6.56.92.02,1.55,4.02,1.59,4.34.36,2.33.08,4.14.05,4.36-.55,3.98.32,4.99-.5,21.78-.37,7.49-.82,13.02-1.31,18.89-.87,10.51-1.84,13.09-2.05,21.08-.05,1.87,0,1.74.15,12.34.15,10.03.23,15.04.23,18.15,0,22.18-1.61,19.5-.45,25.41,1.07,5.46,3.14,11.32.17,13.79-.18.15-1.32,1.07-2.3.75Z"/>
    <path class="cls-35" d="M156.84,294.07c-.97-.46.07-4.19,2.17-11.64,1.71-6.1,2.57-9.15,4.46-13.12,2.5-5.26,6.85-12.25,8.32-11.72,1.06.38.28,4.49-.65,9.45-1.21,6.43-2.12,11.25-5.18,16.76-2.99,5.38-7.75,10.92-9.11,10.28Z"/>
    <path class="cls-35" d="M154.49,291.2c-1.29.07-2.65-5.79-3.99-11.57-1.78-7.67-2.5-13.54-3.34-21.01-1.46-12.94-1.28-12.97-2.63-26.1-1.46-14.17-2.2-19.29-1.01-19.59,1.33-.34,4.11,5.66,5.5,8.64,3.03,6.53,4.51,12.23,5.21,15.42.08.36.22,1.02.39,1.93,2.95,15.39,2.69,30.46,2.69,30.46-.02,1.37-.42,21.68-2.81,21.81Z"/>
    <path class="cls-6" d="M152.67,144.58c1.35-6.86,6.67-10.65,8.32-11.72.64-.41,10.45-6.54,20-1.7,7.95,4.04,9.24,12.4,9.41,13.68.92,6.8-2.07,15.02-9.77,18.99-5.92,3.05-13.36,2.96-19.26-.49-6.98-4.08-10.06-11.87-8.7-18.77Z"/>
    <path class="cls-31" d="M128.35,169.56c-1.12-2.28,3.22-6.19,5.29-8.05,5.73-5.16,11.47-6.99,15.3-8.17,3.44-1.06,5.34-1.62,6.15-.8,1.71,1.74-1.58,8.19-6.01,12.41-5.67,5.42-13.38,7.33-18.4,6.03-1.3-.34-2.01-.78-2.33-1.42Z"/>
    <path class="cls-31" d="M143.93,184.61c-2.51-.85-2.41-6.47-2.4-7.23.19-10.68,13.6-21.82,17.46-19.82,2.87,1.49.4,10.18-.61,13.07,0,0-2.83,8.08-11.39,13.21-.85.51-2.01,1.12-3.07.76Z"/>
    <path class="cls-31" d="M175.22,161.72c-2.55.38-3.52,5.95-3.76,7.31-1.76,10.05,4.2,21.33,7.96,20.96,2.97-.3,4.98-7.93,4.45-13.85-.66-7.37-5.51-14.88-8.65-14.41Z"/>
    <path class="cls-31" d="M179.04,159.5c-1.97,1.29-.99,5.97.11,8.71,3.79,9.47,16.76,15.2,19.41,12.83,2.27-2.03-2.36-10.65-7.9-15.87-3.17-2.99-9.18-7.26-11.62-5.67Z"/>
    <path class="cls-31" d="M183.61,155.81c-1.29,1.56,1.87,6.39,5.51,9.37,7.05,5.77,18.21,6.45,19.3,4.12,1.04-2.22-6.92-7.53-11.67-10.02-3.62-1.9-11.55-5.39-13.13-3.47Z"/>
    <path class="cls-31" d="M186.66,152.87c-.69,2.13,5.12,5.98,10.11,7.86,9.79,3.68,21.83,1.8,22.32-1,.45-2.6-9.05-6.39-16.27-7.79-6.27-1.21-15.37-1.52-16.16.92Z"/>
    <path class="cls-31" d="M219.7,147.38c-.11-2.65-8.47-4.7-14.69-4.9-8.11-.26-17.59,2.44-17.64,5.3-.05,2.64,7.95,5.38,14.7,5.63,8.49.32,17.75-3.19,17.63-6.02Z"/>
    <path class="cls-31" d="M210.12,119.91c1.76,2.47-4.64,9.74-10.61,13.92-5.01,3.51-13.29,7.38-15.33,5.27-2.02-2.09,2.15-9.96,8.29-14.62,6.42-4.88,15.94-6.98,17.65-4.57Z"/>
    <path class="cls-31" d="M194.54,105.59c2.69,1.14,1.91,9.31-.58,15.25-3.46,8.25-11.54,15.39-14.46,13.97-2.76-1.34-1.05-10.39,2.1-16.72,3.38-6.78,10.05-13.72,12.93-12.5Z"/>
    <path class="cls-31" d="M178.47,101.64c-3.04-.56-6.95,5.04-8.62,9.49-3.62,9.59.11,21.84,4.09,22.2,3.9.35,9.23-10.62,8.88-20.4-.13-3.63-1.17-10.71-4.34-11.29Z"/>
    <path class="cls-31" d="M152.17,103.93c-2.52,1.94-.68,7.67.13,10.16,3.44,10.69,13.54,21.21,17.95,19.38,4.21-1.75,4.45-15.23-2.6-23.2-4.48-5.06-12.54-8.61-15.48-6.34Z"/>
    <path class="cls-31" d="M136.89,113.55c-2.59,2.62.8,10.01,4.8,14.46,6.62,7.37,18.73,10.9,21.65,7.72,2.65-2.89-2-11.58-7.91-16.6-5.98-5.09-15.69-8.48-18.55-5.58Z"/>
    <path class="cls-31" d="M120.96,132.62c-1.21,3,6.79,8.7,12.46,11.46,8.35,4.07,19.85,5.79,21.59,2.64,1.51-2.73-4.41-8.93-10.16-12.22-9.45-5.4-22.54-5.27-23.89-1.88Z"/>
    <path class="cls-31" d="M119.65,151.51c.09-3.64,12.86-5.82,13.79-5.98,8.32-1.38,20.01-.77,20.82,2.65.74,3.13-7.61,8.69-16.05,9.63-8.95,1-18.64-3.11-18.56-6.31Z"/>
    <path class="cls-28" d="M173.71,164.64c.55-.44,6.55,3.13,8.59,9.33,2.04,6.2-.75,12.42-1.39,12.36-.5-.05.51-3.9-.89-9.43-1.95-7.72-6.86-11.83-6.31-12.26Z"/>
    <path class="cls-28" d="M181.28,160.92c.61-.19,1.31,4.03,5.26,8.36,4.92,5.39,10.63,6.28,10.4,7-.25.81-7.77.99-12.3-3.74-4.25-4.44-4.12-11.38-3.37-11.62Z"/>
    <path class="cls-28" d="M190.53,155c-.26.62,4.44,3.53,10.07,4.96,7.81,1.98,15.37.59,15.4-.19.02-.57-4.05-.6-14.66-2.72-7.53-1.51-10.61-2.52-10.8-2.05Z"/>
    <path class="cls-28" d="M185.65,134.01c0-.26,2.8.05,6.15-.8,9.04-2.29,13.15-10.71,13.73-10.33.53.35-1.9,8.23-9.1,11-5.22,2-10.78.5-10.78.13Z"/>
    <path class="cls-28" d="M182.94,127.36c1.96-3.54,3.58-3.67,5.66-6.18,3.07-3.7,4.06-8.86,4.29-8.73.28.15-1.16,8.22-5.18,13.76-2.49,3.42-5.75,5.59-6.07,4.59-.22-.7,1.01-2.92,1.3-3.44Z"/>
    <path class="cls-28" d="M176.58,129.91c.51.18,3.55-4.21,4.79-9.81,1.62-7.3-.41-13.97-1-13.93-.48.03.15,4.51-1.16,12.29-1.22,7.21-3.1,11.27-2.63,11.44Z"/>
    <path class="cls-28" d="M167.9,130.6c.25-.25-4.56-3.12-7.82-9.34-3.95-7.55-2.71-14.48-3.26-14.48-.53,0-2.53,6.52.16,13.07,3.07,7.45,10.61,11.06,10.91,10.76Z"/>
    <path class="cls-28" d="M142.29,114.21c3.83.96,9.5,3.03,13.96,7.81,4.15,4.46,5.93,9.87,5.52,10.1-.38.2-2.57-3.99-7.04-8.63-4.39-4.55-9-7.46-12.43-9.29Z"/>
    <path class="cls-28" d="M127.9,133.99c.35-.31,3.38,4.21,10.1,7.14,8.13,3.54,15.39,2.04,15.43,2.71.04.66-6.9,3.13-13.85.9-8.16-2.62-12.12-10.36-11.68-10.75Z"/>
    <path class="cls-28" d="M125.86,155.07c.06-.47,8.35,1.93,17.69-1.67,5.65-2.18,8.92-5.49,9.18-5.19.29.33-3.32,5.04-9.15,7.37-8.61,3.45-17.77-.01-17.72-.51Z"/>
    <path class="cls-28" d="M135.26,168.02c-.12-.32,4.59-1.32,9.95-5.2,5.15-3.73,7.33-7.54,7.61-7.35.31.21-1.85,5.25-6.82,8.8-4.93,3.52-10.6,4.11-10.73,3.76Z"/>
    <path class="cls-28" d="M146.15,177.32c-.23-.36,4.08-1.98,7.62-6.63,3.96-5.2,4-10.3,4.49-10.22.53.09,1.31,6.09-2.17,10.92-3.47,4.8-9.67,6.34-9.94,5.93Z"/>
    <path class="cls-28" d="M190.3,148.94c-.14.65,5.04,2.73,10.84,3.2,8.06.65,15.24-1.98,15.12-2.75-.09-.57-4.1.09-14.95-.24-7.69-.23-10.91-.72-11.02-.21Z"/>
    <path class="cls-31" d="M218.43,133.3c.85,2.87-7.65,7.88-14.7,10.09-5.92,1.86-15.07,3.08-16.31.47-1.23-2.58,5.35-8.82,12.73-11.44,7.71-2.74,17.45-1.92,18.28.88Z"/>
    <path class="cls-28" d="M190.06,140.84c.09-.24,2.64.87,6.1,1.06,9.35.5,16.05-6.29,16.47-5.76.39.49-4.54,7.26-12.3,7.76-5.62.36-10.4-2.72-10.27-3.06Z"/>
    <path class="cls-28" d="M184.64,156.85c-.46.5,2.92,4.74,7.71,7.87,6.64,4.34,14.26,5.44,14.56,4.71.22-.53-3.6-1.85-12.83-7.22-6.54-3.81-9.08-5.75-9.44-5.36Z"/>
    <path class="cls-31" d="M168.23,161.92c-2.58-.1-4.71,5.18-5.22,6.46-3.84,9.52-.38,21.7,3.38,22.03,2.97.26,6.55-6.84,7.28-12.74.91-7.35-2.26-15.62-5.44-15.75Z"/>
    <path class="cls-28" d="M166.14,164.5c.64-.33,5.76,4.3,6.45,10.76.69,6.46-3.35,12.04-3.96,11.86-.48-.14,1.32-3.73,1.12-9.41-.28-7.93-4.22-12.88-3.6-13.2Z"/>
    <path class="cls-31" d="M162.26,161.29c-2.45-.75-6.01,3.79-6.87,4.89-6.42,8.2-6.57,20.81-3.04,22.09,2.79,1.01,8.26-4.93,10.65-10.43,2.97-6.85,2.29-15.62-.73-16.55Z"/>
    <path class="cls-28" d="M159.51,163.24c.71-.15,4.31,5.6,3.13,12-1.19,6.4-6.67,10.75-7.2,10.41-.42-.26,2.34-3.26,3.77-8.78,1.99-7.71-.38-13.48.31-13.64Z"/>
    <path class="cls-31" d="M125.79,119.71c-1.95,2.64,4.34,10,9.12,13.98,7.04,5.87,17.75,10.18,20.25,7.52,2.17-2.3-1.96-9.67-6.69-14.19-7.77-7.41-20.49-10.29-22.68-7.32Z"/>
    <path class="cls-28" d="M132.17,122.63c.42-.22,2.19,4.86,7.95,9.24,6.97,5.31,14.4,5.52,14.26,6.18-.13.65-7.5,1.45-13.66-2.31-7.23-4.42-9.07-12.84-8.55-13.11Z"/>
    <path class="cls-25" d="M145.87,216.53c2.19,6.82,3.74,13.15,4.85,18.82.55,2.8,2.14,11.26,2.86,22.8.58,9.3.52,19.24-.03,19.27-.5.03-1.22-8.1-2.56-20.3-1.09-9.84-2.73-23.7-5.12-40.59Z"/>
    <path class="cls-25" d="M159.08,288.24c-.36-.08.47-7.8,4.42-16.03,2.86-5.95,6.51-10.41,6.8-10.25.3.17-3.14,5.25-6.76,13.88-3.25,7.73-4.18,12.46-4.47,12.4Z"/>
  </g>
  <g id="Layer_13">
    <path class="cls-19" d="M270.87,300.32c-2.76.29-5.01-2.53-6.29-4.18-3.44-4.43-4.41-9.06-5.55-16.97-1.1-7.61-1.65-11.41-1.99-17.01-.37-6.23-.2-8.75-.24-19.59-.07-19.14-.63-16.8-.24-19.59,1.99-14.26,9.16-21.87,5.02-27.32-1.24-1.64-4.15-3.92-4.51-4.2-2.61-2.04-4.55-3.56-7.18-4.17-4.75-1.1-9.04,1.39-9.78,1.83-5.43,3.17-8.46,9.81-8.72,15.44-.17,3.69.85,6.74-.8,7.68-1.03.59-2.76.13-3.57-.81-.9-1.03-.51-2.42-.06-5.11.76-4.56.36-4.88.81-6.82,1.37-5.94,6.04-9.75,8.76-12.04,3.4-2.85,5.88-4.93,9.74-5.23,4.34-.34,7.84,1.76,8.94,2.44,4.85,3,5.72,7.08,7.21,6.72.34-.08,1.58-.59,1.66-10.24.06-7.5.09-11.25-1.07-14.47-.63-1.76-3.05-8.17-9.96-12.65-2.06-1.33-6.85-4.35-13.42-4.09-6.33.25-10.98,3.41-12.42,4.42-3.41,2.38-4.73,4.66-5.29,4.33-.78-.46.49-5.57,4.35-8.57,2.24-1.74,4.5-2.1,7.99-2.66,3.2-.51,8.8-1.4,15.16.66,5.28,1.71,7.45,4.29,8.95,3.3,1.54-1.01.66-4.61-.09-7.67-1.74-7.11-4.27-8.16-5.52-14.41-.92-4.59.26-4.97-.98-7.65-1.57-3.4-4.67-5.11-10.79-8.38-5.33-2.85-8.88-4.75-14.33-5.78-4.39-.84-8.17-1.56-12.47.16-1.02.41-5.6,2.35-7.94,6.91-2.57,5.02-.81,10.06-1.66,10.24-.97.2-3.36-3.52-3.66-7.62-.07-.99-.24-4.97,2.57-8.55,2.65-3.37,6.33-4.34,9.74-5.23,6.46-1.7,11.88-.78,15.15-.19,3.07.55,8.2,1.53,13.43,4.94,4.87,3.18,6.76,6.48,8.09,5.86,1.08-.5.35-2.92-.11-9.37-.57-7.94.19-9.15-1.05-12.76-.82-2.39-1.22-2.09-4.55-7.61-5.46-9.07-4.62-10.33-8.19-14.38-3.54-4.01-6.87-5.62-6.32-6.74.45-.91,3.19-.92,5.35-.07,2.47.97,3.46,2.79,7.25,10.13,2.23,4.33,5.17,8.3,7.28,12.69.82,1.7,1.52,3.28,2.71,3.37,1.86.15,2.77-3.45,6.15-6.89.89-.9,4.28-4.34,8.85-5.22,8.07-1.55,15.38,5.75,17.92,8.29,2.55,2.55,5.18,6.09,4.54,6.76-.77.81-6.15-2.66-7.17-3.32-4.07-2.62-4.38-3.72-7.19-5.02-1.17-.54-4.21-1.95-8.04-1.6-5.31.48-10.7,4.22-11.48,8.66-.04.21-.08.51.03,2.56.28,5.21.86,9.09,1.01,10.21.76,5.59-.74,5.45-.72,14.49.02,6.64.84,10.94,1.04,11.91,1.12,5.68,3.36,12.04,4.6,11.87.82-.12.14-2.98,1.7-6.84,2.04-5.05,6.34-7.87,8.8-9.48,1.83-1.2,5.76-3.72,11.53-4.4,3.2-.38,7.65-.91,11.6,1.56,3.51,2.19,4.72,5.57,6.36,10.14,2.32,6.47,2.46,12.66,1.94,12.75-.32.06-.72-2.26-2.76-6.78-.98-2.17-1.96-4.34-3.65-6.77-2.01-2.9-3.21-4.63-5.42-5.89-4.62-2.65-10.04-1.2-11.59-.71-4.38,1.38-6.74,4.22-9.71,7.79-2.13,2.56-5.25,6.4-6.09,12-.26,1.73-.15,3.43.08,6.81.44,6.44,1.41,5.69,1.93,11.9.16,1.89.16,3.02.93,3.4,1.28.62,3.26-1.5,6.2-3.49,4-2.71,7.96-3.95,9.75-4.38,8.01-1.92,15.35,2.27,16.97,3.19,2,1.14,6.73,3.93,9.02,9.26,1.35,3.14,1.6,6.59.97,6.8-.57.19-1.49-2.37-4.53-5.91-.87-1.01-2.68-3.1-5.41-5.04-1.66-1.19-4.6-3.28-8.96-4.15-5.3-1.05-9.58.33-11.57,1-2.65.89-8.51,2.86-10.6,7.8-.19.44-.43,1.11-.84,4.27-.62,4.82-.28,6.57-.77,10.23-.46,3.46-1.35,3.56-1.7,6.84-.28,2.63.15,2.72.07,5.96-.13,5.39-1.46,10.41-1.65,11.09-.72,2.67-1.33,3.96-.84,4.27.76.49,2.7-2.3,6.19-4.34,2.65-1.55,6.54-1.96,14.22-2.73,8.87-.89,10.52-.49,11.58-.15,4.8,1.55,8.75,5.45,8.1,6.71-.47.92-3.41.64-5.35.07-2.25-.67-3.09-1.72-4.49-2.5-2.02-1.12-4.07-1.02-10.69.13-8.63,1.5-12.99,2.28-15.1,3.6-1.42.89-5.2,3.31-7.03,7.75-1.36,3.29-1.01,6.14-.79,8.53,1.08,11.46-.9,9.43.26,21.29.97,9.97,1.46,14.96,3.81,20.4,4.6,10.64,6.9,15.96,8.24,17.79.74,1.01,2.75,3.64,1.85,5.94-.54,1.38-2.04,2.44-3.53,2.6Z"/>
    <path class="cls-22" d="M207.7,234.67c.47-1.01,1.61-.95,2.65-1.74,1.79-1.36,1.67-3.98,1.7-6.84.06-5.39.08-8.08.77-10.23,1.93-6.06,7.96-9.08,8.8-9.48,3.54-1.71,6.72-1.78,8.89-1.82,2.52-.04,7.73-.11,12.51,3.25,1.09.77,4.82,3.58,6.34,8.44,1.9,6.09-1.91,8.27.18,14.48,1.31,3.9,3.86,6.15,2.77,7.63-1.03,1.4-3.84.1-5.33,1.77-1.64,1.84.58,4.77-.82,5.97-.4.34-1.26.69-8.04-1.6-4.44-1.5-5.6-2.17-7.15-1.61-1.88.67-1.66,2.18-3.52,3.45-3.93,2.68-11.67.59-12.5-2.4-.49-1.75,1.6-3.11.84-4.27-1.01-1.54-4.97.45-7.15-1.61-.94-.89-1.4-2.39-.93-3.4Z"/>
    <path class="cls-22" d="M190.8,164.18c.49-3.25,3.76-5.5,7.03-7.75,3.42-2.36,6.49-3.35,9.75-4.38,5.69-1.8,8.65-2.74,12.45-1.86,1.34.31,5.39,1.45,8.08,5.01,2.91,3.85,2.44,8.18,1.94,12.75-.67,6.09-3.12,10.74-5.18,13.69-2.81,4.04-4.33,6.21-7.04,6.9-4.9,1.25-9.86-3.63-19.77-13.38-6.66-6.56-7.59-8.84-7.26-10.98Z"/>
    <path class="cls-22" d="M180.64,134.49c-.08-2.32,1.16-4.03,3.48-6.86,4.85-5.89,7.27-8.84,9.68-10.34,2.39-1.49,5.4-3.37,9.76-3.53.97-.04,7.59-.19,11.63,4.11,3.57,3.79.89,6.54,4.63,14.42,2.17,4.57,4.73,7.16,3.67,8.47-1.05,1.31-4.02-.71-7.12.94-2.73,1.45-1.9,3.8-4.39,5.17-2.68,1.47-4.4-.82-10.7-.72-4.33.07-5.6,1.18-7.13.09-2.34-1.67-.51-5.12-2.76-6.78-2.48-1.83-6.17,1.3-8.92-.74-1.73-1.28-1.81-3.67-1.83-4.24Z"/>
    <path class="cls-22" d="M227.09,70.02c2.42-.48,4.33.01,7.14.76,3.34.89,5,1.34,5.38,2.49.48,1.48-1.04,3.41-2.62,4.29-2.83,1.58-6.27.04-8.03-.75-2.34-1.05-5.89-3.37-5.41-5.04.32-1.11,2.29-1.5,3.54-1.75Z"/>
    <path class="cls-22" d="M233.28,66.54c-3.67.13-6.48-.59-7.14-.76-4.36-1.14-6.54-1.71-8.06-3.31-2.11-2.21-3.54-6.22-1.89-8.49,2.69-3.69,11.78-.41,12.47-.16,1.41.52,6.28,2.33,8.1,6.71.24.57,1.49,3.59.06,5.11-.39.42-1.07.81-3.55.9Z"/>
    <path class="cls-22" d="M269.45,109.53c-.18-2.39-.17-6.49,1.65-11.09,1.21-3.06,3-7.59,7.89-10.32,6.67-3.72,13.83-1.18,14.24-1.03,10.22,3.8,14.03,17.35,10.94,20.31-1.45,1.39-3.73-.23-7.11,1.79-2.89,1.73-2.98,3.97-5.29,4.33-2.1.32-2.56-1.44-5.37-1.64-3.51-.24-4.53,2.4-7.11,1.79-2.45-.58-2.45-3.2-5.4-4.19-1.65-.56-3.29-.29-4.45.06Z"/>
    <path class="cls-22" d="M304.5,134.64c-1.86-.23-5.24-.65-8.9.96-5.52,2.44-7.58,7.72-7.92,8.62-.34.93-.02.35-1.67,9.39-.49,2.67-.88,4.65-2.6,6-1.32,1.03-2.43.91-2.65,1.74-.4,1.5,2.58,4.29,5.4,4.19,1.85-.07,2.72-1.35,3.55-.9,1.3.71-.4,4.11.95,5.1,1.42,1.03,5.25-1.28,7.1-2.64,2.71-2.01,2.77-3.19,4.41-3.46,1.85-.31,2.49,1.07,6.27,2.48,2.21.82,5.5,2.05,7.14.76,1.36-1.07.24-2.82,1.73-4.28,1.67-1.64,4.09-.41,5.33-1.77,1.15-1.26.18-3.56-.97-6.8-3.45-9.72-1.82-9.24-3.71-11.88-4.46-6.26-12.41-7.37-13.46-7.5Z"/>
    <path class="cls-22" d="M286.45,189.39c.4-.94.8-1.61.93-1.83,3.55-5.79,6.07-8.48,6.07-8.48,3.73-3.99,6.27-6.71,10.6-7.8,4.3-1.09,9.54-.36,13.4,2.39,3.06,2.18,4.53,7.13,7.33,16.94,2.22,7.77,2.26,10.25,1.03,11.06-1.86,1.22-5.2-2.23-8.03-.75-2.38,1.25-1.57,4.5-3.5,5.15-2.37.8-4.07-3.96-8.97-5-4.87-1.03-7.47,2.76-10.68.99-2.32-1.29-1.27-3.44-4.53-5.91-2.24-1.7-4.18-1.78-4.5-3.35-.19-.95.28-2.08.85-3.42Z"/>
    <path class="cls-22" d="M271.76,226.96c.37-3.17,3.55-5.21,8.81-8.57,3.83-2.45,7.26-4.64,12.41-5.23,2.59-.3,6.77-.77,10.71,1.56,4.37,2.59,5.68,7,6.35,9.23,2.04,6.84-.5,12.71-1.6,15.25-1.82,4.2-3.1,7.17-6.13,8.54-6.99,3.17-16.71-5.1-23.3-10.71-7.48-6.37-7.35-9.25-7.25-10.06Z"/>
    <path class="cls-24" d="M276.46,247.44c-4.12-.35-5.44,1.9-8.01.95-2.28-.84-4.13-3.69-3.64-5.92.72-3.27,6.16-3.68,6.16-6.04,0-1.93-3.65-2.17-4.52-5.05-.8-2.66,1.15-6.31,3.48-6.86,2.12-.5,3.17,1.88,6.26,1.63,2.05-.17,2.14-1.27,4.43-1.76,2.87-.61,6.81.23,8.05,2.45,1.3,2.32-1.15,4.69.07,5.96,1.5,1.56,5.41-1.75,8.91-.11,2.26,1.05,1.4,2.79,4.53,5.91,2.88,2.88,4.63,2.42,6.3,5.03,1.05,1.64,2.19,4.68.96,5.95-2.16,2.24-9.63-3.18-12.48-.7-2.07,1.8.6,5.76-1.69,7.69-1.81,1.53-5.68.9-8.03-.75-2.52-1.78-1.72-3.64-4.53-5.91-2.65-2.13-5.79-2.44-6.27-2.48Z"/>
    <path class="cls-24" d="M190.08,177.82c-.58-.31-2.39-1.26-3.59-2.51-1.94-2-3.12-5.54-1.86-6.79.95-.95,2.63.1,3.55-.9,1.02-1.1-.65-2.8-.06-5.11.56-2.22,3.01-4.21,5.29-4.33,2.39-.12,2.66,1.92,6.28,3.33,4.34,1.69,6.34-.31,8.93,1.59,2.29,1.69,1.13,3.56,3.64,5.92,2.81,2.63,5.15,1.11,7.17,3.32,2.53,2.76-.47,5.86,1.92,11.05,1.53,3.33,3.36,3.36,3.64,5.92.36,3.31-2.28,7.32-5.25,7.73-2.55.36-2.95-2.25-8.07-4.16-3.54-1.32-4.78-.6-8.94-2.44-3.69-1.64-4.31-2.91-4.5-3.35-.9-2.16.95-3.37-.06-5.11-.47-.81-2.41-1.65-6.28-3.33-.72-.31-1.14-.48-1.79-.83Z"/>
    <path class="cls-5" d="M204.29,174.23c-1.82.18-4.36.71-6.21,2.41-2.01,1.85-1.7,3.72-3.49,6.26-.97,1.38-2.73,3.2-6.18,4.74"/>
    <path class="cls-5" d="M203.43,176.8c-2.8,1.04-3.92,2.39-4.41,3.46-1.02,2.19.47,3.36.09,7.67-.29,3.3-1.42,5.45-1.71,5.98-.86,1.58-1.89,2.72-2.63,3.44"/>
    <path class="cls-5" d="M204.33,177.64c.66.59,2.04,1.99,2.72,4.23.28.91.92,2.99.06,5.11-.57,1.41-1.4,1.82-1.74,3.43-.22,1.04-.1,1.94.03,2.56"/>
    <path class="cls-5" d="M283.47,237.13c-.83,1.12-1.93,2.85-2.61,5.14-.69,2.33-.51,3.72-.82,5.97-.26,1.89-.9,4.55-2.58,7.7"/>
    <path class="cls-5" d="M284.4,240.52c.35,1.01,1.1,3.68.08,6.81-.68,2.1-1.88,3.53-2.62,4.29"/>
    <path class="cls-5" d="M287.09,242.19c0,1.37.13,3.51.96,5.95,1.23,3.61,2.92,4.73,3.66,7.62.42,1.63.62,4.16-.8,7.68"/>
    <path class="cls-32" d="M257.98,266.41c-.27-1.43-1.68-2.35-4.51-4.2-2.59-1.69-5.24-3.43-8.96-4.15-3.7-.72-4.21.39-12.46,1.01-5.75.43-8.71.13-8.9.96-.19.83,2.71,1.45,6.29,4.18,3.7,2.83,3.39,4.3,6.32,6.74.88.73,6.19,5.16,12.52,4.1,5.23-.87,10.31-5.34,9.7-8.64Z"/>
    <path class="cls-32" d="M261.55,266.37c-.19-.86-.11-1.89,1.72-5.13,1.69-2.99,2.54-4.49,3.5-5.15,1.97-1.36,3.1-.69,6.21-2.63.93-.58,1.49-1.06,1.77-.87.46.31-.4,2.05-1.72,5.13-2.5,5.85-2.25,6.24-3.47,7.71-.22.27-3.72,4.41-6.2,3.49-1.33-.5-1.75-2.23-1.81-2.53Z"/>
    <path class="cls-32" d="M263.49,205.86c.15-.34.53-1.14,3.52-3.45,2.57-1.98,3.56-2.39,4.42-2.61.87-.23,2.22-.58,2.67-.03.74.88-1.32,3.51-2.61,5.14-2.62,3.34-4.46,4.06-5.29,4.33-.71.22-1.96.62-2.67.03-.87-.71-.44-2.48-.04-3.41Z"/>
    <path class="cls-32" d="M266.28,216.05c1.85-1.04,4.1-.43,5.35-.07,1.19.34,4.54,1.31,4.49,2.5-.06,1.26-3.98,2.79-7.11,1.79-1.87-.6-3.9-2.24-3.61-3.36.11-.42.51-.65.88-.86Z"/>
    <path class="cls-1" d="M249.87,185.59c-.45-.7-3.81.34-6.22,1.78-1.67,1-3.87,2.79-3.52,3.45.35.66,3.17.15,5.34-.92,2.58-1.27,4.84-3.63,4.4-4.31Z"/>
    <path class="cls-32" d="M247.16,182.21c-2.37-.07-3.96-1.89-4.49-2.5-.77-.89-1.12-1.72-1.82-3.38-.86-2.04-1.29-3.07-.93-3.4.81-.74,4.64,1.78,7.18,4.17,1.3,1.22,3.28,3.09,2.72,4.23-.46.95-2.43.89-2.66.89Z"/>
    <path class="cls-32" d="M264.77,164.96c-.76-1.25.98-3.37,1.73-4.28,1.41-1.72,2.97-2.63,4.41-3.46,1.18-.68,3.97-2.28,4.43-1.76.38.43-1.26,1.75-4.38,6.02-1.98,2.7-2.87,4.29-4.4,4.31-.66.01-1.45-.27-1.79-.83Z"/>
    <path class="cls-32" d="M247.67,150.69c-1.42-.05-2.85.33-5.33,1.77-2.13,1.24-5.69,3.31-5.29,4.33.36.9,3.74.64,6.24-.08,3.92-1.13,7.54-3.95,7.07-5.2-.28-.74-1.95-.79-2.68-.82Z"/>
    <path class="cls-32" d="M267.96,134.25c.53,1.03,2.7.9,4.47.8.95-.06,4.42-.34,7.99-2.66,1.02-.66,1.88-1.24,1.76-1.73-.21-.84-3.14-.81-5.36-.78-3.95.04-6.48.1-8,1.8-.06.07-1.38,1.57-.86,2.57Z"/>
    <path class="cls-32" d="M256.33,130.14c-.16-.73-.22-1.87.84-4.27,1.3-2.93,3.66-6.34,4.38-6.02.66.29-1.05,3.19-1.67,9.39-.26,2.58-.16,4.08-.84,4.27-.81.22-2.32-1.52-2.71-3.37Z"/>
    <path class="cls-32" d="M223.96,105.84c-1.24.28-4.1.92-6.2,3.49-.22.27-2.6,3.23-1.73,4.28.92,1.11,5.26-.14,7.99-2.66,1.81-1.67,3.34-4.3,2.61-5.14-.41-.47-1.41-.25-2.67.03Z"/>
    <path class="cls-32" d="M221.16,95.65c-.26.14-.02.83.94,4.25.91,3.21,1.08,3.95,1.83,4.24.9.35,2.25-.09,2.66-.89.57-1.09-.73-2.66-2.73-5.08-1.03-1.24-2.28-2.74-2.7-2.52Z"/>
    <path class="cls-32" d="M236.16,83.54c1.34,1.55,2.66,2.47,5.4,4.19,2.41,1.52,2.88,1.76,3.58,1.66,1.28-.18,2.6-1.38,2.64-2.59.09-2.49-5.27-4.4-8.08-5.01-.65-.14-4.02-.84-4.45.06-.09.18-.1.52.91,1.69Z"/>
    <path class="cls-32" d="M247.5,62.95c-1.05-.24-2.5,1.93-3.52,3.45-.31.46-1.07,1.64-1.74,3.43-.81,2.16-1.43,3.8-.84,4.27.99.8,5.74-1.4,7.07-5.2.89-2.55.18-5.69-.96-5.95Z"/>
    <path class="cls-32" d="M273.45,72c-.93-.65-3.85,1.07-5.3,3.47-.49.8-1.52,2.85-.85,3.42.92.78,5.11-1.16,6.19-4.34.07-.2.69-2.05-.03-2.56Z"/>
    <path class="cls-32" d="M254.23,103.76c-.96-1.3,1.57-4.85,4.37-6.87.73-.52,3.46-2.49,4.43-1.76,1.29.97-.25,6.8-4.35,8.57-1.46.63-3.78.97-4.45.06Z"/>
  </g>
  <g id="Layer_6">
    <path class="cls-34" d="M109.16,318.12c-.42-.21.9-2.37,2.22-7.84.6-2.49.88-4.34,1.11-5.88,1.09-7.25,1.09-14.34,1.11-15.67.14-8.7,5.33-14.16,11.11-24.49,5.16-9.21,7.51-16.91,12.22-32.32,8.96-29.32,7.28-48.79,11.11-48.97,3.01-.14,5.95,11.8,6.67,14.69,1.63,6.6,4.54,22.46-2.22,44.08-1.01,3.21-5.48,12.59-14.44,31.34-5.9,12.35-8.19,16.69-11.11,21.55-8.14,13.57-16.81,23.99-17.78,23.51Z"/>
    <path class="cls-16" d="M103.17,304.41c-1.82.38-4.56-3.6-9.68-13.71-5.6-11.07-9.07-17.93-12.9-29.38-5.18-15.48-7.11-27.66-7.53-30.36-2.81-18.38.07-20.1-2.15-34.28-3.8-24.24-15.39-39.5-13.98-40.16,1.31-.61,11.11,12.74,19.36,28.4,5.18,9.84,8.83,19.62,16.13,39.18,4.68,12.55,6.24,17.76,7.53,23.51,2.36,10.57.63,8.9,3.23,22.53,1.28,6.76,3.45,16.32,2.15,28.4-.32,2.98-.8,5.59-2.15,5.88Z"/>
    <path class="cls-33" d="M102.09,285.8c-1.53.42-6.16-9.48-8.6-15.67-2.32-5.87-4.51-13.02-5.38-21.55-.13-1.25-.88-8.68,0-8.82.9-.14,1.72,7.51,6.45,18.61,3.17,7.44,6.19,11.95,7.53,20.57.28,1.78,1.02,6.58,0,6.86Z"/>
    <path class="cls-33" d="M111.77,314.21c-.66-.3,1.35-5.1,5.38-14.69,3.55-8.44,3.91-8.74,5.38-12.73,3.22-8.76,3.51-12.79,4.3-12.73,1.16.09,2.88,8.83,0,17.63-1.44,4.4-3.83,7.83-8.6,14.69-2.03,2.92-5.7,8.19-6.45,7.84Z"/>
    <path class="cls-14" d="M103.17,327.92c-3.17-2.48-1.09-8.18,0-14.69,1.64-9.81-.77-10.84-1.08-25.47-.29-13.54,1.54-23.81,3.23-33.3,3.22-18.12,5.73-18.44,7.53-32.32,1.26-9.73.84-17.26,0-32.32-1.01-18.17-1.61-28.91-5.38-43.1-3.36-12.67-7.26-20.62-5.38-21.55,2.3-1.14,10.28,6.38,15.05,14.69,3.26,5.67,4.49,10.79,5.38,15.67,1.76,9.71,2.17,18.69,1.08,42.12-.66,14.14-1.02,21.33-2.15,27.42-2.18,11.72-4.04,12.5-7.53,26.45-3.48,13.93-5.88,23.5-5.38,36.24.7,17.93,1.06,26.89,2.15,30.36.76,2.42,2.57,7.55,0,9.79-1.79,1.56-5.52,1.57-7.53,0Z"/>
    <path class="cls-29" d="M52.63,69.34c-1.15.7-4.13,3.72,5.38,27.42,6.42,16.02,9.63,24.03,16.13,31.34,6.79,7.64,15.3,17.22,29.03,18.61,17.96,1.82,31.38-11.73,33.34-13.71,18.39-18.56,10.27-46.13,8.6-51.91-1.82-6.3-3.29-5.32-8.6-18.61-1.09-2.72-2.07-5.36-4.3-5.88-3.54-.82-6.73,7.55-9.68,6.86-1.58-.37-.98-2.72-3.23-4.9-2.93-2.85-8.71-3.44-12.9-1.96-4.83,1.71-4.51,5.1-8.6,5.88-3.71.71-4.77-1.93-10.75-2.94-1.45-.25-8.71-1.47-13.98,1.96-4.72,3.08-3.42,7.01-7.53,8.82-5.17,2.27-9.97-2.76-12.9-.98Z"/>
    <path class="cls-26" d="M61.23,70.32c3.5-2.26,7.21-1.39,13.98-.98,13.01.78,13.41-1.59,19.36,0,6.14,1.64,9.71,5.24,15.05,10.77,7.71,7.98,14.42,14.92,15.05,24.49.6,9.05-5.05,7.93-9.68,26.45-1.59,6.37-2.08,11.12-6.45,13.71-4.67,2.77-10.68,1.27-11.83.98-10.14-2.54-11.98-11.71-24.73-33.3-9.73-16.47-18.19-27.27-15.05-36.24.39-1.12,1.4-4,4.3-5.88Z"/>
    <path class="cls-21" d="M108.53,144.72c-4.26-2.34-5.38-7.59-6.44-20.34-1.2-14.47-1.81-21.71-1.07-25.42,1.2-6.08,5.47-13.29,13.96-27.46,9.85-16.43,12.54-18.54,15.03-18.3,1.39.13,3.28,1.05,8.59,12.2,5.76,12.09,8.63,18.14,9.66,26.44.64,5.17,1.63,13.96-2.15,24.41-3.41,9.45-8.93,15.31-11.81,18.3-4.65,4.84-10.09,10.49-18.25,11.19-2.16.18-4.9.42-7.52-1.02Z"/>
    <path class="cls-36" d="M131.13,128.11c1.79.8,7.73-5.07,10.75-11.75,2.72-6.01,2.46-11.35,2.15-16.65-.56-9.44-3.44-17.76-4.3-17.63-.79.12,2.3,7.14,0,16.65-1.95,8.07-6.3,11.79-8.6,23.51-.93,4.75-.51,5.65,0,5.88Z"/>
    <path class="cls-21" d="M52.95,67.16c11.44,5.83,16.09,11.08,16.09,11.08,7.96,9,10.63,18.5,11.49,22.16,2.98,12.64-1.46,15.53,3.45,23.17,2.28,3.55,4.5,4.89,9.19,12.09,2.9,4.44,5.88,9.02,4.6,10.07-1.58,1.28-8.85-3.32-12.64-6.04-7.49-5.38-12.04-11.11-14.94-15.11-5.3-7.33-8.9-15.63-16.09-32.23-11.08-25.57-1.75-10.41-5.75-22.16-.27-.79-1.12-3.25,0-4.03,1.06-.73,3.36.38,4.6,1.01Z"/>
  </g>
  <g id="Lag_47">
    <path class="cls-13" d="M23.83,342.6c-.17,8.32.65,14.33,1.11,18.02,2.56,20.7.41,22.7,2.21,86.71.47,16.67.7,25.01,1.11,30.41.16,2.15,1.11,14.57,1.11,21.4,0,11.23,0,11.26,0,11.26-.03.46-.05.72,0,1.13.47,4.12,5.97,6.92,9.96,7.88,2.87.69,4.41.3,8.85,0h235.71c1.84,0,3.69-.05,5.53,0,3.96.12,4.95.39,6.64,0,2.78-.65,4.56-2.43,5.53-3.38,2.8-2.73,3.8-5.85,4.43-7.88.86-2.8.95-5.28,1.11-10.14.1-3.09.15-4.63,0-7.88-.4-8.83.38-24.33,1.11-43.92.44-12.01.73-24.03,1.11-36.04,1.99-63.89,1.89-63.35,2.21-66.44,2.88-27.97,6.66-33.43,2.21-39.42-10.31-13.89-43.38-1.71-71.93,4.5-107.01,23.28-199.5-26.72-212.47,1.13-2.19,4.7-5.25,18.34-5.53,32.66Z"/>
  </g>
  <g id="Lag_49">
    <path class="cls-9" d="M21.06,344.29h131.69c88.92,0,96.66.79,113.98,0,4.28-.2,21.81-1.06,45.37-1.13.45,0,2.7.56,5.53,0,.61-.12,2.06-.4,3.32-1.13,3.88-2.23,4.37-7.25,4.43-7.88.03-.32.02-.32,0-2.25-.02-2.25,0-4.5,0-6.76v-48.43c0-2.63-.33-5.28,0-7.88.07-.56.25-1.79,0-3.38-.36-2.35-.87-3.12-1.11-3.38-.73-.79-1.69-1.02-2.21-1.13-6.67-1.34-29.88-1.13-29.88-1.13-1.11.01-2.21,0-3.32,0-24.24.06-37.72-.1-50.9,0-25.37.19-21.3,1.11-42.05,1.13-18.59.01-20.07-.73-45.37-1.13-19.19-.3-34.1-.12-43.16,0-27.73.36-31.1,1.11-52.01,1.13-22.06.02-33.09.03-33.2,0-2.94-.83-4.17-.55-6.64,0-.68.15-1.53.4-2.21,1.13-.83.88-1,2.01-1.11,3.38-.2,2.6-.3,3.9,0,5.63v57.43c0,3,.54,6.06,0,9.01-.06.33-.23,1.19,0,2.25.42,1.93,1.87,3.1,2.21,3.38,2.67,2.15,6.17,1.25,6.64,1.13Z"/>
  </g>
  <g id="Lag_50">
    <path class="cls-17" d="M133.94,268.84c0-1.26-.03-7.49,0-9.01v-2.25c0-.88-.08-.97,0-1.13.48-.92,3.08-.29,5.53,0,2.5.29,2.86-.01,6.64,0,5.68.02,9.34.72,14.39,1.13,6.86.56,7.55-.13,16.6,0,7.26.1,12.8,1.12,17.71,1.13,5.16,0,7.73,0,7.75,0,.26-.08.74-.24,1.11,0,.87.56.13,2.68,0,6.76v12.39c-.01,35.62-2.21,46.17-2.21,46.17-1.08,5.16-3.02,12.56-3.32,23.65-.07,2.6-.02,4.51,0,5.63.26,12.01,0,24.02,0,36.04v128.38c.07.32.18.72,0,1.13-.47,1.06-2.43,1.11-3.32,1.13-6.02.1-9.04.16-9.96,0-5.46-.92-11.07,0-16.6,0h-27.67c-2.74-.53-4.45-.32-5.53,0-.37.11-1.33.43-2.21,0-.16-.08-.86-.41-1.11-1.13-.17-.5-.04-.97,0-1.13.38-1.45,0-3,0-4.5v-78.83c0-25.5,0-38.25,0-38.29.07-17.6.41-32.38,1.11-61.94,0,0,1.11-47.26,1.11-65.32Z"/>
  </g>
  <g id="Lag_52">
    <path class="cls-15" d="M108.48,437.77c1.69-.54.44-7.74,0-14.64-.76-11.86,1.03-20.21,4.43-36.04,3.53-16.48,5.3-24.72,11.07-30.41,5.73-5.65,7.84-2.93,17.71-10.14,9.97-7.28,15.4-15.6,19.92-22.52,6.26-9.59,9.39-14.38,7.75-16.89-2.22-3.39-10.9.12-40.94,9.01-24.04,7.11-27.64,7.57-34.31,12.39-3.82,2.76-14.79,10.69-19.92,24.78-.88,2.42-.87,3.06-1.11,39.42-.1,15.91-.23,26.79-3.32,32.66-.35.66-1.97,3.62-1.11,4.5.83.85,3.56-.65,4.43-1.13,9.23-5.08,11.59-15.11,15.49-14.64.63.08.89.38,3.32,3.38,6.2,7.67,9.3,11.51,9.96,12.39,5.19,6.94,5.91,8.12,6.64,7.88Z"/>
    <path class="cls-15" d="M237.96,436.64c-2.48-.52-.46-12.57-2.21-30.41-1.62-16.5-5.41-27.13-6.64-30.41-3.69-9.85-6.76-17.75-14.39-23.65-6.72-5.2-8.11-1.98-16.6-7.88-5.84-4.06-3.88-4.68-18.81-21.4-2.88-3.23-5.08-5.58-4.43-7.88.94-3.32,7.21-4.41,11.07-4.5,7.49-.18,12.04,3.26,18.81,6.76,11.3,5.84,10.06,2.16,29.88,10.14,6.93,2.79,12.36,5.61,23.24,11.26,5.9,3.06,7.31,3.96,8.85,5.63,3.53,3.81,4.73,8.4,5.53,24.78.99,20.22,1.49,30.33,0,36.04-.92,3.53-2.45,7.97-1.11,13.51,1.62,6.67,6.3,10.44,5.53,11.26-.79.85-6.29-2.54-11.07-6.76-6.53-5.77-7.15-9.08-9.96-9.01-1.8.04-3.29,1.44-11.07,13.51-4.87,7.57-5.69,9.21-6.64,9.01Z"/>
  </g>
  <g id="Lag_51">
    <path class="cls-18" d="M183.73,294.74c5.04-4.96,9.56-8,11.07-9.01,11.28-7.53,16.92-11.29,18.81-12.39,9.14-5.29,18.24-10.56,30.99-14.64,13.52-4.33,21.61-6.92,32.09-4.5,3.68.85,14.89,3.99,23.24,14.64,6.77,8.63,8.01,17.56,8.85,23.65,1.59,11.43-.77,19.31-4.43,31.53-1.36,4.56-2.67,7.76-5.53,9.01-2.16.94-3.77.14-12.17,0-2.29-.04-3.31,0-4.43,0-9.82-.03-22.13-3.38-22.13-3.38-12.61-3.43-12.05-1.35-36.52-6.76-29.56-6.53-12.75-5.67-37.63-12.39-2.51-.68-8.11-2.15-8.85-5.63-.15-.71-.45-3.16,6.64-10.14Z"/>
    <path class="cls-18" d="M53.15,333.03c4.54,3.24,10.25,1.43,21.03-1.13,17.7-4.21,10.65-1.32,27.67-5.63,13.88-3.52,22.64-5.74,34.31-10.14,14.3-5.39,17.04-8.05,26.56-9.01,6.06-.61,10.01-.04,11.07-2.25,2.05-4.3-9.32-13.92-15.49-19.14-7.56-6.39-17.42-14.61-33.2-21.4-17.63-7.58-31.9-8.76-35.41-9.01-10.44-.73-16.88-1.18-24.35,2.25-14.74,6.77-19.97,22.44-21.03,25.9-2.56,8.43-.6,18.01,3.32,37.16,1.39,6.78,2.48,10.21,5.53,12.39Z"/>
  </g>
  <g id="Lag_53">
    <path class="cls-11" d="M153.85,303.75c.99-5.17,3.84-8.37,4.43-9.01,1.01-1.09,5.9-6.14,13.28-5.63,6.23.43,10.07,4.53,11.07,5.63,5.87,6.48,4.58,14.86,4.43,15.77-1.02,5.97-5.12,12.48-12.17,14.64-.68.21-7.97,2.3-14.39-2.25-6.79-4.82-7.7-13.59-6.64-19.14Z"/>
  </g>
</svg>