<?xml version="1.0" encoding="UTF-8"?>
<svg xmlns="http://www.w3.org/2000/svg" viewBox="0 0 107 286">
  <defs>
    <style>
      .cls-1 {
        fill: #ffd35a;
      }

      .cls-2 {
        fill: #fabf01;
      }

      .cls-3 {
        fill: #faa701;
      }

      .cls-4 {
        fill: #75a978;
      }

      .cls-5 {
        fill: #8cb23b;
        stroke: #8cb23b;
      }

      .cls-5, .cls-6 {
        stroke-miterlimit: 10;
      }

      .cls-7, .cls-6 {
        fill: #36695d;
      }

      .cls-6 {
        stroke: #36695d;
      }

      .cls-8 {
        fill: #f6be37;
      }
    </style>
  </defs>
  <g id="Layer_3" data-name="Layer 3">
    <path class="cls-7" d="M59.07,273.5c-.39-.22.84-2.42,2.07-8,.56-2.54.82-4.44,1.03-6,1.02-7.4,1.01-14.64,1.03-16,.13-8.88,4.96-14.46,10.33-25,4.8-9.4,6.99-17.27,11.37-33,8.33-29.93,6.77-49.81,10.33-50,2.8-.15,5.54,12.05,6.2,15,1.51,6.74,4.23,22.93-2.07,45-.93,3.28-5.1,12.85-13.43,32-5.49,12.61-7.62,17.04-10.33,22-7.57,13.85-15.63,24.49-16.53,24Z"/>
    <path class="cls-6" d="M53.5,259.5c-1.7.39-4.24-3.67-9-14-5.21-11.3-8.43-18.31-12-30-4.82-15.81-6.62-28.24-7-31-2.61-18.77.07-20.52-2-35-3.53-24.75-14.31-40.33-13-41,1.22-.62,10.33,13.01,18,29,4.82,10.04,8.21,20.03,15,40,4.36,12.81,5.81,18.13,7,24,2.19,10.8.59,9.09,3,23,1.19,6.9,3.21,16.66,2,29-.3,3.04-.74,5.71-2,6Z"/>
  </g>
  <g id="Layer_8" data-name="Layer 8">
    <path class="cls-4" d="M52.5,240.5c-1.42.43-5.72-9.68-8-16-2.16-6-4.19-13.29-5-22-.12-1.27-.82-8.86,0-9,.84-.15,1.6,7.67,6,19,2.95,7.6,5.75,12.2,7,21,.26,1.82.95,6.71,0,7Z"/>
    <path class="cls-4" d="M61.5,269.5c-.61-.31,1.25-5.21,5-15,3.3-8.61,3.63-8.93,5-13,3-8.94,3.26-13.06,4-13,1.08.09,2.68,9.01,0,18-1.34,4.49-3.56,8-8,15-1.89,2.98-5.3,8.36-6,8Z"/>
  </g>
  <g id="Layer_2" data-name="Layer 2">
    <path class="cls-5" d="M53.5,283.5c-2.95-2.53-1.01-8.35,0-15,1.52-10.01-.71-11.07-1-26-.27-13.83,1.43-24.31,3-34,3-18.5,5.33-18.82,7-33,1.17-9.93.78-17.62,0-33-.94-18.56-1.5-29.51-5-44-3.13-12.94-6.75-21.05-5-22,2.14-1.16,9.56,6.52,14,15,3.03,5.79,4.18,11.01,5,16,1.63,9.91,2.02,19.08,1,43-.62,14.44-.94,21.78-2,28-2.03,11.96-3.76,12.76-7,27-3.24,14.22-5.47,23.99-5,37,.66,18.31.98,27.46,2,31,.71,2.47,2.39,7.71,0,10-1.66,1.59-5.13,1.6-7,0Z"/>
  </g>
  <g id="Layer_4" data-name="Layer 4">
    <path class="cls-3" d="M6.5,19.5c-1.07.71-3.84,3.8,5,28,5.97,16.36,8.96,24.54,15,32,6.32,7.8,14.23,17.58,27,19,16.7,1.85,29.18-11.98,31-14,17.1-18.95,9.56-47.1,8-53-1.7-6.44-3.06-5.43-8-19-1.01-2.77-1.92-5.47-4-6-3.29-.84-6.26,7.7-9,7-1.47-.38-.92-2.78-3-5-2.73-2.9-8.1-3.51-12-2-4.5,1.74-4.19,5.2-8,6-3.45.72-4.44-1.97-10-3-1.35-.25-8.1-1.5-13,2-4.39,3.14-3.18,7.16-7,9-4.81,2.32-9.27-2.81-12-1Z"/>
  </g>
  <g id="Layer_7" data-name="Layer 7">
    <path class="cls-2" d="M14.5,20.5c3.26-2.31,6.7-1.42,13-1,12.1.8,12.47-1.62,18,0,5.71,1.68,9.03,5.35,14,11,7.17,8.15,13.41,15.23,14,25,.56,9.24-4.69,8.1-9,27-1.48,6.51-1.93,11.35-6,14-4.34,2.83-9.94,1.29-11,1-9.43-2.59-11.14-11.96-23-34C15.45,46.68,7.58,35.66,10.5,26.5c.36-1.14,1.3-4.09,4-6Z"/>
  </g>
  <g id="Layer_5" data-name="Layer 5">
    <path class="cls-1" d="M58.49,96.46c-3.96-2.39-5-7.75-5.99-20.76-1.12-14.78-1.68-22.16-1-25.96,1.12-6.21,5.09-13.57,12.98-28.03,9.16-16.78,11.66-18.93,13.98-18.69,1.29.14,3.05,1.07,7.99,12.46,5.35,12.35,8.03,18.52,8.99,26.99.6,5.28,1.51,14.25-2,24.92-3.17,9.65-8.31,15.63-10.98,18.69-4.33,4.94-9.38,10.71-16.97,11.42-2,.19-4.56.43-6.99-1.04Z"/>
    <path class="cls-8" d="M79.5,79.5c1.66.82,7.19-5.18,10-12,2.53-6.14,2.29-11.59,2-17-.52-9.63-3.2-18.13-4-18-.74.12,2.14,7.29,0,17-1.82,8.24-5.86,12.04-8,24-.87,4.85-.48,5.76,0,6Z"/>
  </g>
  <g id="Layer_6" data-name="Layer 6">
    <path class="cls-1" d="M6.8,17.27c10.64,5.95,14.96,11.31,14.96,11.31,7.4,9.19,9.89,18.89,10.69,22.63,2.77,12.91-1.36,15.85,3.21,23.65,2.12,3.63,4.19,4.99,8.55,12.34,2.69,4.54,5.47,9.21,4.27,10.28-1.47,1.31-8.23-3.39-11.76-6.17-6.96-5.5-11.2-11.34-13.89-15.43-4.93-7.48-8.27-15.96-14.96-32.91-10.3-26.1-1.63-10.63-5.34-22.63-.25-.8-1.05-3.32,0-4.11.98-.74,3.12.38,4.27,1.03Z"/>
  </g>
</svg>