<?xml version="1.0" encoding="UTF-8"?>
<svg xmlns="http://www.w3.org/2000/svg" viewBox="0 0 139 305">
  <defs>
    <style>
      .cls-1 {
        fill: #fdd24f;
      }

      .cls-2 {
        fill: #4a5906;
      }

      .cls-3 {
        fill: #e7dfbb;
      }

      .cls-4 {
        fill: #778432;
      }

      .cls-5 {
        fill: #fff;
      }

      .cls-6 {
        fill: #768e2c;
      }
    </style>
  </defs>
  <g id="Layer_14" data-name="Layer 14">
    <path class="cls-4" d="M48,303c-2.22-.79-2.07-6.19-2-14,.05-5.67-.39-11.35,0-17,.96-13.97.6-28,1-42,.6-21.27.51-21.17,1-37,.45-14.5.32-19.57,1-29,1.03-14.26,1.73-12.71,2-22,.18-6.13.06-13.68,2-24,.56-2.99,1.72-9.04,3-9,1.19.04,1.94,5.57,2,6,.42,3.22.04,5.7,0,6-.78,5.48.33,6.88-1,30-.6,10.32-1.27,17.91-2,26-1.3,14.46-2.6,18-3,29-.09,2.58-.04,2.4,0,17,.03,13.81.05,20.72,0,25-.36,30.55-2.4,26.84-1,35,1.3,7.54,3.89,15.65,0,19-.24.2-1.73,1.45-3,1Z"/>
  </g>
  <g id="Layer_15" data-name="Layer 15">
    <path class="cls-6" d="M49,268c-1.26-.65.16-5.77,3-16,2.32-8.38,3.48-12.56,6-18,3.33-7.21,9.09-16.75,11-16,1.37.54.29,6.19-1,13-1.68,8.83-2.94,15.46-7,23-3.97,7.36-10.24,14.91-12,14Z"/>
    <path class="cls-6" d="M46,264c-1.68.08-3.35-8.01-5-16-2.19-10.59-3.03-18.7-4-29-1.68-17.85-1.45-17.89-3-36-1.67-19.54-2.54-26.61-1-27,1.73-.44,5.25,7.86,7,12,3.83,9.05,5.67,16.92,6.52,21.33.1.5.27,1.41.48,2.67,3.58,21.24,3,42,3,42-.05,1.88-.9,29.85-4,30Z"/>
  </g>
  <g id="Layer_16" data-name="Layer 16">
    <path class="cls-1" d="M46,62c1.87-9.42,8.83-14.55,11-16,.84-.56,13.68-8.83,26-2,10.27,5.69,11.8,17.24,12,19,1.08,9.38-2.93,20.66-13,26-7.73,4.11-17.4,3.85-25-1-9-5.74-12.88-16.53-11-26Z"/>
  </g>
  <g id="Layer_17" data-name="Layer 17">
    <path class="cls-5" d="M14,96c-1.42-3.16,4.29-8.47,7-11,7.52-7.01,15-9.44,20-11,4.49-1.4,6.96-2.15,8-1,2.2,2.43-2.19,11.26-8,17-7.46,7.37-17.49,9.88-24,8-1.68-.48-2.6-1.11-3-2Z"/>
    <path class="cls-5" d="M34,117c-3.25-1.22-3.03-8.96-3-10,.42-14.71,18.02-29.82,23-27,3.7,2.1.36,14.03-1,18,0,0-3.8,11.08-15,18-1.12.69-2.63,1.51-4,1Z"/>
    <path class="cls-5" d="M75,86c-3.32.48-4.67,8.14-5,10-2.45,13.81,5.12,29.46,10,29,3.86-.36,6.59-10.84,6-19-.74-10.16-6.91-20.59-11-20Z"/>
    <path class="cls-5" d="M80,83c-2.58,1.74-1.38,8.2,0,12,4.77,13.11,21.52,21.22,25,18,2.99-2.76-2.89-14.71-10-22-4.07-4.17-11.8-10.16-15-8Z"/>
    <path class="cls-5" d="M86,78c-1.7,2.13,2.33,8.84,7,13,9.06,8.07,23.55,9.19,25,6,1.38-3.04-8.86-10.49-15-14-4.68-2.68-14.91-7.62-17-5Z"/>
    <path class="cls-5" d="M90,74c-.93,2.93,6.55,8.33,13,11,12.65,5.24,28.32,2.84,29-1,.63-3.58-11.65-8.95-21-11-8.12-1.78-19.94-2.35-21,1Z"/>
    <path class="cls-5" d="M133,67c-.1-3.66-10.92-6.62-19-7-10.53-.5-22.88,3.07-23,7-.11,3.64,10.24,7.54,19,8,11.02.58,23.11-4.1,23-8Z"/>
    <path class="cls-5" d="M121,29c2.25,3.43-6.19,13.34-14,19-6.56,4.76-17.38,9.93-20,7-2.59-2.91,2.95-13.68,11-20,8.41-6.61,20.81-9.34,23-6Z"/>
    <path class="cls-5" d="M101,9c3.48,1.62,2.33,12.86-1,21-4.62,11.3-15.23,21.01-19,19-3.56-1.89-1.2-14.33,3-23,4.49-9.28,13.27-18.73,17-17Z"/>
    <path class="cls-5" d="M80.2,3.3c-3.93-.82-9.1,6.83-11.35,12.93-4.86,13.16-.21,30.09,4.95,30.65,5.06.55,12.16-14.48,11.86-27.95-.11-5-1.35-14.77-5.46-15.63Z"/>
    <path class="cls-5" d="M46,6c-3.3,2.63-1,10.55,0,14,4.29,14.78,17.24,29.45,23,27,5.5-2.33,6.03-20.91-3-32-5.74-7.05-16.15-12.07-20-9Z"/>
    <path class="cls-5" d="M26,19c-3.4,3.57.88,13.8,6,20,8.49,10.26,24.16,15.33,28,11,3.49-3.93-2.41-15.98-10-23-7.69-7.11-20.24-11.94-24-8Z"/>
    <path class="cls-5" d="M5,45c-1.61,4.12,8.68,12.1,16,16,10.78,5.75,25.69,8.32,28,4,2-3.74-5.58-12.37-13-17-12.19-7.6-29.18-7.63-31-3Z"/>
    <path class="cls-5" d="M3,71c.18-5.01,16.8-7.81,18-8,10.83-1.75,26-.72,27,4,.91,4.32-10.02,11.84-21,13-11.64,1.23-24.16-4.6-24-9Z"/>
  </g>
  <g id="Layer_18" data-name="Layer 18">
    <path class="cls-3" d="M73,90c.73-.6,8.46,4.42,11,13,2.54,8.58-1.17,17.1-2,17-.65-.08.72-5.37-1-13-2.41-10.66-8.71-16.41-8-17Z"/>
    <path class="cls-3" d="M82.89,85c.79-.26,1.64,5.58,6.7,11.6,6.31,7.51,13.71,8.82,13.4,9.82-.34,1.11-10.11,1.23-15.91-5.36-5.45-6.18-5.17-15.75-4.19-16.07Z"/>
    <path class="cls-3" d="M95,77c-.34.85,5.72,4.94,13,7,10.11,2.86,19.95,1.07,20,0,.03-.79-5.26-.89-19-4-9.75-2.2-13.73-3.65-14-3Z"/>
    <path class="cls-3" d="M89,48c0-.35,3.63.11,8-1,11.78-3,17.25-14.53,18-14,.69.49-2.6,11.31-12,15-6.81,2.67-14.01.5-14,0Z"/>
    <path class="cls-3" d="M85.59,38.8c2.61-4.84,4.71-4.99,7.45-8.41,4.05-5.05,5.42-12.13,5.71-11.96.37.22-1.64,11.31-6.95,18.86-3.28,4.67-7.55,7.6-7.95,6.22-.28-.97,1.36-4.01,1.74-4.72Z"/>
    <path class="cls-3" d="M77.28,42.2c.66.26,4.67-5.74,6.38-13.43,2.22-10.02-.31-19.24-1.08-19.21-.63.03.13,6.21-1.7,16.91-1.7,9.91-4.2,15.48-3.59,15.72Z"/>
    <path class="cls-3" d="M66,43c.33-.35-5.87-4.38-10-13-5.01-10.46-3.28-19.99-4-20-.69,0-3.4,8.94,0,18,3.86,10.31,13.6,15.42,14,15Z"/>
    <path class="cls-3" d="M33,20c4.96,1.39,12.29,4.33,18,11,5.32,6.22,7.55,13.7,7,14-.5.27-3.27-5.54-9-12-5.63-6.34-11.57-10.43-16-13Z"/>
    <path class="cls-3" d="M14,47c.46-.41,4.32,5.85,13,10,10.5,5.02,19.96,3.07,20,4,.04.91-9.01,4.19-18,1-10.55-3.75-15.58-14.48-15-15Z"/>
    <path class="cls-3" d="M11,76c.08-.65,10.82,2.8,23-2,7.37-2.9,11.67-7.41,12-7,.37.46-4.4,6.88-12,10-11.24,4.61-23.08-.32-23-1Z"/>
    <path class="cls-3" d="M23,94c-.16-.44,5.98-1.75,13-7,6.74-5.05,9.64-10.27,10-10,.4.3-2.49,7.2-9,12-6.46,4.76-13.83,5.48-14,5Z"/>
    <path class="cls-3" d="M37,107c-.29-.49,5.33-2.66,10-9,5.23-7.1,5.36-14.12,6-14,.69.13,1.61,8.42-3,15-4.59,6.56-12.66,8.57-13,8Z"/>
    <path class="cls-3" d="M94.79,68.65c-.19.9,6.5,3.85,14.03,4.59,10.45,1.03,19.83-2.47,19.69-3.53-.11-.78-5.33.05-19.41-.58-9.99-.45-14.16-1.17-14.31-.48Z"/>
    <path class="cls-5" d="M131.58,47.58c1.06,3.96-10.06,10.72-19.25,13.65-7.72,2.46-19.62,3.98-21.19.38-1.55-3.57,7.09-12.06,16.72-15.54,10.06-3.64,22.69-2.35,23.72,1.51Z"/>
    <path class="cls-3" d="M94.61,57.48c.12-.34,3.41,1.25,7.91,1.56,12.13.84,20.94-8.39,21.48-7.65.5.68-6.01,9.93-16.1,10.48-7.3.4-13.46-3.92-13.29-4.39Z"/>
    <path class="cls-3" d="M87.32,79.44c-.61.68,3.72,6.58,9.88,10.97,8.55,6.1,18.43,7.73,18.83,6.74.3-.73-4.65-2.61-16.54-10.17-8.44-5.36-11.7-8.07-12.17-7.54Z"/>
    <path class="cls-5" d="M65.93,86.15c-3.34-.19-6.19,7.05-6.89,8.81-5.14,13.05-.84,29.89,4.04,30.41,3.86.41,8.62-9.31,9.66-17.43,1.29-10.11-2.69-21.56-6.81-21.79Z"/>
    <path class="cls-3" d="M63.17,89.67c.83-.44,7.41,6.01,8.2,14.93.79,8.91-4.54,16.53-5.34,16.26-.62-.2,1.78-5.12,1.6-12.94-.24-10.93-5.28-17.82-4.46-18.25Z"/>
    <path class="cls-5" d="M58.18,85.18c-3.17-1.08-7.87,5.12-9.01,6.62-8.47,11.18-8.86,28.55-4.31,30.37,3.6,1.44,10.81-6.65,14-14.18,3.97-9.38,3.23-21.48-.68-22.82Z"/>
    <path class="cls-3" d="M54.58,87.83c.92-.2,5.51,7.79,3.87,16.58-1.64,8.8-8.83,14.69-9.52,14.22-.54-.36,3.09-4.45,5.03-12.03,2.71-10.59-.28-18.58.62-18.78Z"/>
    <path class="cls-5" d="M11.48,27.29c-2.57,3.6,5.47,13.85,11.62,19.42,9.05,8.2,22.89,14.33,26.18,10.7,2.85-3.14-2.39-13.36-8.46-19.66-9.97-10.34-26.44-14.52-29.33-10.47Z"/>
    <path class="cls-3" d="M19.72,31.43c.55-.29,2.76,6.73,10.17,12.87,8.96,7.43,18.61,7.84,18.42,8.75-.19.9-9.76,1.87-17.7-3.42-9.32-6.21-11.58-17.84-10.89-18.2Z"/>
  </g>
  <g id="Layer_19" data-name="Layer 19">
    <path class="cls-2" d="M36,161c2.73,9.43,4.64,18.18,6,26,.67,3.87,2.6,15.55,3.35,31.45.61,12.81.36,26.52-.35,26.55-.65.03-1.45-11.18-3-28-1.25-13.58-3.16-32.7-6-56Z"/>
    <path class="cls-2" d="M52,260c-.46-.12.73-10.73,6-22,3.81-8.15,8.62-14.22,9-14,.39.23-4.16,7.19-9,19-4.34,10.6-5.63,17.09-6,17Z"/>
  </g>
</svg>