<?xml version="1.0" encoding="UTF-8"?>
<svg xmlns="http://www.w3.org/2000/svg" viewBox="0 0 560 552">
  <defs>
    <style>
      .cls-1, .cls-2, .cls-3 {
        fill: none;
      }

      .cls-4 {
        fill: #3a6654;
      }

      .cls-5 {
        fill: #f4d1cd;
      }

      .cls-6 {
        fill: #feb3b0;
      }

      .cls-2, .cls-3, .cls-7 {
        stroke-miterlimit: 10;
      }

      .cls-2, .cls-7 {
        stroke: #00054e;
        stroke-width: 3px;
      }

      .cls-8, .cls-7 {
        fill: #fff;
      }

      .cls-9 {
        fill: #89b238;
      }

      .cls-3 {
        stroke: #000;
        stroke-width: .5px;
      }
    </style>
  </defs>
  <g id="Layer_19">
    <path class="cls-8" d="M383.41,255.93c-1.66-.68-2.53-1.44-2.85-2.44-1.13-3.56,5.17-8.81,8.17-11.31"/>
  </g>
  <g id="Layer_13">
    <path class="cls-4" d="M293.46,499.14c-4.24.45-7.65-4.56-9.58-7.49-5.2-7.86-6.6-16.03-8.21-29.94-1.55-13.39-2.33-20.09-2.74-29.94-.46-10.96-.14-15.38,0-34.43.26-33.65-.65-29.54,0-34.43,3.32-25.01,14.48-38.23,8.21-47.91-1.88-2.9-6.29-6.98-6.84-7.49-3.97-3.64-6.92-6.35-10.95-7.49-7.28-2.04-13.91,2.25-15.06,2.99-8.4,5.44-13.17,17.05-13.69,26.95-.34,6.49,1.18,11.87-1.37,13.47-1.6,1.01-4.24.17-5.48-1.5-1.36-1.83-.74-4.26,0-8.98,1.25-8.01.64-8.57,1.37-11.98,2.22-10.4,9.46-17.01,13.69-20.96,5.28-4.93,9.13-8.53,15.06-8.98,6.67-.51,12.01,3.27,13.69,4.49,7.39,5.38,8.65,12.56,10.95,11.98.52-.13,2.44-1,2.74-17.97.23-13.18.35-19.77-1.37-25.45-.94-3.11-4.53-14.43-15.06-22.46-3.14-2.39-10.44-7.79-20.53-7.49-9.73.3-16.93,5.75-19.16,7.49-5.28,4.11-7.35,8.09-8.21,7.49-1.19-.83.85-9.79,6.84-14.97,3.48-3.01,6.95-3.59,12.32-4.49,4.93-.83,13.54-2.27,23.27,1.5,8.08,3.13,11.36,7.7,13.69,5.99,2.38-1.75,1.09-8.09,0-13.47-2.54-12.54-6.41-14.43-8.21-25.45-1.32-8.09.49-8.72-1.37-13.47-2.35-6.01-7.07-9.08-16.43-14.97-8.13-5.12-13.56-8.54-21.9-10.48-6.73-1.57-12.52-2.92-19.16,0-1.58.69-8.65,4.02-12.32,11.98-4.04,8.77-1.43,17.67-2.74,17.97-1.49.34-5.09-6.27-5.48-13.47-.09-1.74-.28-8.74,4.11-14.97,4.13-5.86,9.81-7.48,15.06-8.98,9.96-2.85,18.27-1.11,23.27,0,4.7,1.04,12.57,2.87,20.53,8.98,7.43,5.7,10.27,11.54,12.32,10.48,1.67-.86.59-5.13,0-16.47-.73-13.98.46-16.07-1.37-22.46-1.21-4.23-1.84-3.69-6.84-13.47-8.22-16.07-6.9-18.25-12.32-25.45-5.36-7.12-10.45-10.02-9.58-11.98.71-1.59,4.92-1.54,8.21,0,3.78,1.77,5.26,4.98,10.95,17.97,3.35,7.65,7.79,14.71,10.95,22.46,1.23,3.01,2.27,5.79,4.11,5.99,2.86.3,4.31-6.01,9.58-11.98,1.38-1.56,6.66-7.54,13.69-8.98,12.43-2.55,23.52,10.45,27.38,14.97,3.87,4.54,7.84,10.82,6.84,11.98-1.2,1.4-9.4-4.82-10.95-5.99-6.2-4.69-6.67-6.64-10.95-8.98-1.79-.98-6.44-3.52-12.32-2.99-8.17.73-16.52,7.17-17.8,14.97-.06.37-.13.89,0,4.49.33,9.17,1.16,16,1.37,17.97,1.06,9.84-1.24,9.55-1.37,25.45-.09,11.67,1.09,19.25,1.37,20.96,1.62,10,4.94,21.24,6.84,20.96,1.27-.19.27-5.24,2.74-11.98,3.23-8.83,9.88-13.69,13.69-16.47,2.84-2.07,8.92-6.41,17.8-7.49,4.92-.6,11.78-1.43,17.8,2.99,5.35,3.93,7.15,9.89,9.58,17.97,3.45,11.43,3.54,22.3,2.74,22.46-.5.1-1.07-3.98-4.11-11.98-1.46-3.84-2.93-7.67-5.48-11.98-3.03-5.14-4.84-8.21-8.21-10.48-7.05-4.75-15.4-2.33-17.8-1.5-6.76,2.34-10.44,7.27-15.06,13.47-3.31,4.45-8.18,11.14-9.58,20.96-.43,3.04-.29,6.02,0,11.98.55,11.32,2.05,10.04,2.74,20.96.21,3.33.19,5.31,1.37,5.99,1.95,1.11,5.04-2.56,9.58-5.99,6.19-4.67,12.3-6.77,15.06-7.49,12.34-3.19,23.54,4.33,26.01,5.99,3.05,2.05,10.27,7.05,13.69,16.47,2.01,5.55,2.34,11.62,1.37,11.98-.87.32-2.25-4.2-6.84-10.48-1.31-1.79-4.07-5.51-8.21-8.98-2.53-2.12-7.01-5.87-13.69-7.49-8.12-1.97-14.73.37-17.8,1.5-4.08,1.5-13.13,4.84-16.43,13.47-.29.77-.68,1.95-1.37,7.49-1.05,8.45-.55,11.54-1.37,17.97-.78,6.07-2.13,6.23-2.74,11.98-.49,4.62.18,4.78,0,10.48-.3,9.47-2.44,18.27-2.74,19.46-1.16,4.68-2.11,6.92-1.37,7.49,1.16.87,4.19-3.99,9.58-7.49,4.1-2.66,10.09-3.31,21.9-4.49,13.64-1.37,16.17-.63,17.8,0,7.35,2.83,13.33,9.77,12.32,11.98-.74,1.6-5.25,1.06-8.21,0-3.45-1.23-4.71-3.1-6.84-4.49-3.09-2.02-6.23-1.88-16.43,0-13.28,2.45-19.99,3.71-23.27,5.99-2.2,1.53-8.05,5.7-10.95,13.47-2.15,5.76-1.67,10.77-1.37,14.97,1.45,20.16-1.56,16.56,0,37.43,1.31,17.55,1.97,26.32,5.48,35.93,6.87,18.8,10.3,28.2,12.32,31.44,1.11,1.78,4.15,6.46,2.74,10.48-.85,2.41-3.18,4.25-5.48,4.49Z"/>
    <path class="cls-5" d="M197.64,382.36c.74-1.77,2.48-1.63,4.11-2.99,2.78-2.34,2.64-6.95,2.74-11.98.19-9.47.28-14.2,1.37-17.97,3.07-10.61,12.39-15.77,13.69-16.47,5.46-2.92,10.35-2.99,13.69-2.99,3.88,0,11.88-.02,19.16,5.99,1.66,1.37,7.34,6.4,9.58,14.97,2.81,10.75-3.09,14.49,0,25.45,1.94,6.89,5.81,10.89,4.11,13.47-1.62,2.44-5.9.1-8.21,2.99-2.55,3.2.8,8.41-1.37,10.48-.62.59-1.95,1.18-12.32-2.99-6.8-2.74-8.56-3.93-10.95-2.99-2.91,1.14-2.58,3.79-5.48,5.99-6.08,4.62-17.94.78-19.16-4.49-.72-3.09,2.51-5.44,1.37-7.49-1.52-2.72-7.64.68-10.95-2.99-1.43-1.58-2.11-4.23-1.37-5.99Z"/>
    <path class="cls-5" d="M173,258.1c.82-5.71,5.88-9.58,10.95-13.47,5.3-4.07,10.04-5.75,15.06-7.49,8.77-3.03,13.35-4.62,19.16-2.99,2.06.57,8.26,2.66,12.32,8.98,4.4,6.84,3.59,14.42,2.74,22.46-1.14,10.7-4.99,18.8-8.21,23.95-4.4,7.04-6.76,10.82-10.95,11.98-7.55,2.09-15.07-6.59-30.12-23.95-10.11-11.67-11.49-15.7-10.95-19.46Z"/>
    <path class="cls-5" d="M157.94,205.7c-.08-4.09,1.86-7.07,5.48-11.98,7.55-10.25,11.33-15.38,15.06-17.97,3.71-2.57,8.36-5.8,15.06-5.99,1.48-.04,11.66-.17,17.8,7.49,5.41,6.75,1.25,11.51,6.84,25.45,3.24,8.09,7.13,12.68,5.48,14.97-1.64,2.28-6.16-1.34-10.95,1.5-4.22,2.49-2.99,6.64-6.84,8.98-4.14,2.52-6.74-1.54-16.43-1.5-6.65.03-8.63,1.95-10.95,0-3.56-2.99-.69-9.02-4.11-11.98-3.78-3.27-9.5,2.15-13.69-1.5-2.63-2.29-2.72-6.48-2.74-7.49Z"/>
    <path class="cls-5" d="M230.5,93.41c3.72-.79,6.66.12,10.95,1.5,5.11,1.64,7.66,2.47,8.21,4.49.71,2.61-1.65,5.96-4.11,7.49-4.38,2.72-9.63-.07-12.32-1.5-3.57-1.89-8.98-6.05-8.21-8.98.51-1.94,3.54-2.58,5.48-2.99Z"/>
    <path class="cls-5" d="M240.08,87.42c-5.64.14-9.94-1.18-10.95-1.5-6.67-2.1-10.01-3.15-12.32-5.99-3.2-3.93-5.32-11.02-2.74-14.97,4.2-6.42,18.11-.47,19.16,0,2.16.95,9.6,4.23,12.32,11.98.36,1.01,2.23,6.34,0,8.98-.61.72-1.65,1.4-5.48,1.5Z"/>
    <path class="cls-5" d="M294.83,163.77c-.24-4.2-.14-11.41,2.74-19.46,1.92-5.36,4.75-13.27,12.32-17.97,10.31-6.4,21.27-1.78,21.9-1.5,15.62,6.9,21.24,30.8,16.43,35.93-2.26,2.41-5.72-.49-10.95,2.99-4.47,2.98-4.66,6.91-8.21,7.49-3.24.52-3.9-2.6-8.21-2.99-5.38-.5-7.01,4.11-10.95,2.99-3.76-1.07-3.7-5.67-8.21-7.49-2.53-1.02-5.05-.58-6.84,0Z"/>
    <path class="cls-5" d="M348.22,208.69c-2.85-.45-8.04-1.26-13.69,1.5-8.53,4.17-11.79,13.4-12.32,14.97-.55,1.62-.03.62-2.74,16.47-.8,4.69-1.44,8.16-4.11,10.48-2.05,1.78-3.75,1.54-4.11,2.99-.64,2.62,3.88,7.6,8.21,7.49,2.84-.08,4.21-2.31,5.48-1.5,1.99,1.28-.69,7.22,1.37,8.98,2.16,1.85,8.09-2.13,10.95-4.49,4.2-3.46,4.31-5.54,6.84-5.99,2.85-.5,3.81,1.94,9.58,4.49,3.39,1.5,8.41,3.72,10.95,1.5,2.11-1.85.43-4.95,2.74-7.49,2.6-2.85,6.29-.63,8.21-2.99,1.79-2.2.34-6.25-1.37-11.98-5.12-17.16-2.63-16.27-5.48-20.96-6.74-11.11-18.92-13.22-20.53-13.47Z"/>
    <path class="cls-5" d="M319.47,304.51c.63-1.65,1.26-2.81,1.47-3.19,5.56-10.1,9.48-14.78,9.48-14.78,5.8-6.93,9.75-11.65,16.43-13.47,6.63-1.81,14.66-.43,20.53,4.49,4.66,3.9,6.82,12.64,10.95,29.94,3.27,13.7,3.28,18.06,1.37,19.46-2.87,2.1-7.95-4.04-12.32-1.5-3.68,2.14-2.5,7.88-5.48,8.98-3.66,1.36-6.18-7.05-13.69-8.98-7.46-1.92-11.52,4.69-16.43,1.5-3.54-2.31-1.89-6.07-6.84-10.48-3.4-3.03-6.39-3.22-6.84-5.99-.28-1.67.47-3.64,1.37-5.99Z"/>
    <path class="cls-5" d="M296.2,370.22c.63-5.57,5.55-9.08,13.69-14.87,5.92-4.22,11.24-8,19.16-8.92,3.99-.46,10.42-1.21,16.43,2.97,6.66,4.64,8.6,12.42,9.58,16.36,3.01,12.07-1,22.32-2.74,26.77-2.87,7.35-4.9,12.53-9.58,14.87-10.8,5.41-25.57-9.33-35.59-19.33-11.38-11.36-11.11-16.41-10.95-17.85Z"/>
    <path class="cls-6" d="M303.05,406.32c-6.33-.7-8.4,3.22-12.32,1.5-3.49-1.53-6.27-6.58-5.48-10.48,1.17-5.72,9.54-6.33,9.58-10.48.04-3.4-5.56-3.9-6.84-8.98-1.19-4.7,1.88-11.07,5.48-11.98,3.26-.82,4.84,3.38,9.58,2.99,3.16-.25,3.31-2.18,6.84-2.99,4.42-1.02,10.45.56,12.32,4.49,1.95,4.11-1.86,8.22,0,10.48,2.27,2.77,8.34-2.95,13.69,0,3.45,1.9,2.1,4.93,6.84,10.48,4.37,5.12,7.07,4.36,9.58,8.98,1.59,2.91,3.27,8.28,1.37,10.48-3.36,3.9-14.74-5.8-19.16-1.5-3.21,3.12.81,10.13-2.74,13.47-2.81,2.65-8.75,1.46-12.32-1.5-3.84-3.18-2.57-6.44-6.84-10.48-4.02-3.8-8.84-4.41-9.58-4.49Z"/>
    <path class="cls-6" d="M171.63,282.05c-.89-.55-3.64-2.28-5.48-4.49-2.94-3.56-4.69-9.81-2.74-11.98,1.48-1.65,4.05.23,5.48-1.5,1.58-1.91-.94-4.94,0-8.98.91-3.88,4.7-7.33,8.21-7.49,3.68-.16,4.06,3.43,9.58,5.99,6.64,3.07,9.75-.41,13.69,2.99,3.49,3.01,1.66,6.29,5.48,10.48,4.26,4.69,7.88,2.06,10.95,5.99,3.84,4.91-.82,10.3,2.74,19.46,2.28,5.88,5.1,5.98,5.48,10.48.48,5.83-3.64,12.81-8.21,13.47-3.92.57-4.49-4.03-12.32-7.49-5.42-2.39-7.34-1.16-13.69-4.49-5.64-2.96-6.57-5.22-6.84-5.99-1.34-3.82,1.52-5.91,0-8.98-.71-1.44-3.67-2.95-9.58-5.99-1.1-.57-1.74-.87-2.74-1.5Z"/>
    <path class="cls-3" d="M193.53,276.06c-2.8.28-6.71,1.15-9.58,4.1-3.13,3.21-2.68,6.5-5.48,10.92-1.52,2.4-4.26,5.56-9.58,8.19"/>
    <path class="cls-3" d="M192.17,280.55c-4.32,1.76-6.06,4.12-6.84,5.99-1.6,3.82.66,5.92,0,13.47-.51,5.79-2.28,9.55-2.74,10.48-1.36,2.76-2.95,4.74-4.11,5.99"/>
    <path class="cls-3" d="M193.53,282.05c1,1.06,3.09,3.54,4.11,7.49.41,1.61,1.36,5.28,0,8.98-.91,2.47-2.18,3.16-2.74,5.99-.35,1.81-.2,3.41,0,4.49"/>
    <path class="cls-3" d="M314,388.35c-1.3,1.95-3.02,4.97-4.11,8.98-1.11,4.08-.85,6.52-1.37,10.48-.44,3.31-1.46,7.97-4.11,13.47"/>
    <path class="cls-3" d="M315.37,394.34c.51,1.78,1.62,6.49,0,11.98-1.09,3.68-2.95,6.17-4.11,7.49"/>
    <path class="cls-3" d="M319.47,397.33c-.03,2.4.14,6.17,1.37,10.48,1.82,6.37,4.39,8.38,5.48,13.47.61,2.88.87,7.33-1.37,13.47"/>
    <path class="cls-9" d="M274.3,439.25c-.38-2.52-2.54-4.17-6.84-7.49-3.94-3.03-7.98-6.14-13.69-7.49-5.67-1.34-6.47.59-19.16,1.5-8.85.63-13.39.04-13.69,1.5-.3,1.46,4.14,2.61,9.58,7.49,5.63,5.05,5.13,7.63,9.58,11.98,1.34,1.31,9.42,9.2,19.16,7.49,8.05-1.42,15.94-9.16,15.06-14.97Z"/>
    <path class="cls-9" d="M279.78,439.25c-.27-1.51-.14-3.33,2.74-8.98,2.66-5.22,3.98-7.84,5.48-8.98,3.04-2.34,4.77-1.14,9.58-4.49,1.45-1.01,2.31-1.83,2.74-1.5.7.55-.65,3.59-2.74,8.98-3.95,10.22-3.57,10.91-5.48,13.47-.34.46-5.8,7.67-9.58,5.99-2.04-.9-2.64-3.96-2.74-4.49Z"/>
    <path class="cls-9" d="M283.88,332.96c.23-.6.84-1.99,5.48-5.99,3.98-3.43,5.52-4.12,6.84-4.49,1.35-.38,3.41-.97,4.11,0,1.12,1.56-2.1,6.13-4.11,8.98-4.09,5.81-6.93,7.05-8.21,7.49-1.1.38-3.02,1.04-4.11,0-1.32-1.27-.63-4.36,0-5.99Z"/>
    <path class="cls-9" d="M287.99,350.92c2.85-1.79,6.31-.66,8.21,0,1.82.63,6.96,2.4,6.84,4.49-.12,2.22-6.16,4.82-10.95,2.99-2.87-1.09-5.95-4.02-5.48-5.99.18-.73.8-1.14,1.37-1.5Z"/>
    <path class="cls-1" d="M263.35,297.02c-.68-1.25-5.85.51-9.58,2.99-2.58,1.72-6,4.82-5.48,5.99.52,1.16,4.87.33,8.21-1.5,3.99-2.18,7.5-6.28,6.84-7.49Z"/>
    <path class="cls-9" d="M259.24,291.03c-3.64-.17-6.05-3.41-6.84-4.49-1.17-1.58-1.69-3.05-2.74-5.99-1.28-3.61-1.92-5.42-1.37-5.99,1.25-1.29,7.1,3.24,10.95,7.49,1.97,2.17,4.98,5.5,4.11,7.49-.73,1.65-3.75,1.51-4.11,1.5Z"/>
    <path class="cls-9" d="M286.62,261.09c-1.15-2.21,1.57-5.9,2.74-7.49,2.2-2.99,4.61-4.56,6.84-5.99,1.83-1.17,6.14-3.92,6.84-2.99.58.76-1.97,3.06-6.84,10.48-3.09,4.7-4.48,7.47-6.84,7.49-1.02,0-2.22-.51-2.74-1.5Z"/>
    <path class="cls-9" d="M260.61,235.64c-2.19-.11-4.38.51-8.21,2.99-3.3,2.14-8.81,5.7-8.21,7.49.53,1.59,5.74,1.21,9.58,0,6.04-1.9,11.65-6.78,10.95-8.98-.42-1.31-2.97-1.44-4.11-1.5Z"/>
    <path class="cls-9" d="M292.1,207.19c.8,1.82,4.13,1.64,6.84,1.5,1.46-.08,6.79-.49,12.32-4.49,1.58-1.14,2.92-2.13,2.74-2.99-.3-1.48-4.82-1.49-8.21-1.5-6.07-.01-9.95.04-12.32,2.99-.09.12-2.14,2.73-1.37,4.49Z"/>
    <path class="cls-9" d="M274.3,199.71c-.23-1.29-.31-3.29,1.37-7.49,2.05-5.13,5.74-11.05,6.84-10.48,1,.52-1.67,5.59-2.74,16.47-.44,4.53-.32,7.17-1.37,7.49-1.24.37-3.53-2.73-4.11-5.99Z"/>
    <path class="cls-9" d="M225.02,156.29c-1.9.46-6.31,1.52-9.58,5.99-.35.47-4.05,5.61-2.74,7.49,1.39,1.98,8.09-.13,12.32-4.49,2.81-2.89,5.22-7.48,4.11-8.98-.62-.84-2.17-.47-4.11,0Z"/>
    <path class="cls-9" d="M220.91,138.32c-.41.23-.05,1.46,1.37,7.49,1.33,5.65,1.58,6.96,2.74,7.49,1.38.63,3.45-.11,4.11-1.5.9-1.91-1.06-4.68-4.11-8.98-1.56-2.2-3.45-4.87-4.11-4.49Z"/>
    <path class="cls-9" d="M244.18,117.36c2.03,2.76,4.05,4.39,8.21,7.49,3.68,2.73,4.4,3.15,5.48,2.99,1.97-.29,4.02-2.37,4.11-4.49.19-4.37-8.01-7.84-12.32-8.98-.99-.26-6.16-1.56-6.84,0-.14.32-.16.92,1.37,2.99Z"/>
    <path class="cls-9" d="M261.98,81.43c-1.6-.44-3.88,3.34-5.48,5.99-.48.79-1.67,2.87-2.74,5.99-1.29,3.78-2.26,6.64-1.37,7.49,1.5,1.43,8.85-2.34,10.95-8.98,1.41-4.47.38-10-1.37-10.48Z"/>
    <path class="cls-9" d="M301.68,97.9c-1.42-1.16-5.93,1.8-8.21,5.99-.76,1.4-2.38,4.97-1.37,5.99,1.39,1.39,7.87-1.93,9.58-7.49.11-.35,1.1-3.59,0-4.49Z"/>
    <path class="cls-9" d="M271.56,153.29c-1.45-2.31,2.51-8.49,6.84-11.98,1.13-.91,5.36-4.3,6.84-2.99,1.96,1.73-.51,11.95-6.84,14.97-2.25,1.07-5.82,1.63-6.84,0Z"/>
  </g>
  <g id="Lag_45">
    <path class="cls-2" d="M23.5,197.5c6.05-19.3,17.35-47.58,39-77,9.81-13.33,33.66-43.08,74-68C189.59,19.71,241.86,13.44,270.5,12.5c85.05-2.8,146.46,35.19,168,50l-3-14"/>
    <line class="cls-7" x1="440.5" y1="63.5" x2="425.5" y2="64.78"/>
    <path class="cls-2" d="M454.5,75.5c11.12,9.27,24.62,22.08,38,39,16.65,21.07,26.95,40.71,33,54,13.57,29.8,18.77,56.07,21,72,6.6,47.14-1.33,85.5-7,106-4.75,17.18-18.09,58.53-53,100-33,39.2-69.64,59.92-91,70l6-14"/>
    <line class="cls-7" x1="393.5" y1="518.5" x2="410" y2="520.68"/>
    <path class="cls-2" d="M363.5,529.5c-21.65,6.8-56.7,14.86-100,12-18.89-1.25-53.55-5.52-93-23-40.46-17.93-66.79-41.27-78-52-50.01-47.89-67.05-101.62-71-115-14.26-48.34-9.96-89.89-8-108,1.16-10.73,2.73-19.65,4-26l-10,9"/>
    <line class="cls-7" x1="18.5" y1="214.5" x2="24" y2="229"/>
  </g>
</svg>