<?xml version="1.0" encoding="UTF-8"?>
<svg xmlns="http://www.w3.org/2000/svg" viewBox="0 0 166 296">
  <defs>
    <style>
      .cls-1, .cls-2 {
        fill: none;
      }

      .cls-3 {
        fill: #3a6654;
      }

      .cls-4 {
        fill: #f4d1cd;
      }

      .cls-5 {
        fill: #feb3b0;
      }

      .cls-6 {
        fill: #89b238;
      }

      .cls-2 {
        stroke: #000;
        stroke-miterlimit: 10;
        stroke-width: .5px;
      }
    </style>
  </defs>
  <g id="Layer_9" data-name="Layer 9">
    <path class="cls-3" d="M100.5,294.5c-3.1.3-5.59-3.05-7-5-3.8-5.25-4.82-10.7-6-20-1.13-8.95-1.7-13.42-2-20-.34-7.32-.11-10.27,0-23,.19-22.48-.47-19.73,0-23,2.43-16.71,10.58-25.54,6-32-1.37-1.94-4.6-4.66-5-5-2.9-2.43-5.06-4.24-8-5-5.32-1.37-10.16,1.5-11,2-6.14,3.64-9.62,11.39-10,18-.25,4.34.86,7.93-1,9-1.17.67-3.09.11-4-1-.99-1.22-.54-2.85,0-6,.91-5.35.47-5.73,1-8,1.62-6.95,6.91-11.36,10-14,3.86-3.29,6.67-5.7,11-6,4.87-.34,8.77,2.18,10,3,5.4,3.59,6.32,8.39,8,8,.38-.09,1.78-.67,2-12,.17-8.8.25-13.21-1-17-.69-2.08-3.31-9.64-11-15-2.29-1.6-7.63-5.21-15-5-7.11.2-12.37,3.84-14,5-3.86,2.74-5.37,5.4-6,5-.87-.56.62-6.54,5-10,2.54-2.01,5.08-2.4,9-3,3.6-.55,9.89-1.52,17,1,5.9,2.09,8.3,5.14,10,4,1.74-1.17.8-5.4,0-9-1.86-8.37-4.68-9.64-6-17-.97-5.4.36-5.83-1-9-1.72-4.02-5.17-6.07-12-10-5.94-3.42-9.9-5.7-16-7-4.92-1.05-9.15-1.95-14,0-1.15.46-6.32,2.68-9,8-2.95,5.86-1.05,11.8-2,12-1.09.22-3.72-4.19-4-9-.07-1.16-.2-5.84,3-10,3.02-3.91,7.17-5,11-6,7.27-1.9,13.35-.74,17,0,3.44.7,9.18,1.92,15,6,5.43,3.81,7.5,7.71,9,7,1.22-.57.43-3.43,0-11-.53-9.33.34-10.73-1-15-.88-2.82-1.34-2.47-5-9-6-10.73-5.04-12.19-9-17-3.92-4.76-7.63-6.69-7-8,.52-1.07,3.59-1.03,6,0,2.76,1.18,3.85,3.33,8,12,2.45,5.11,5.69,9.83,8,15,.9,2.01,1.66,3.87,3,4,2.09.2,3.15-4.01,7-8,1.01-1.05,4.86-5.03,10-6,9.08-1.71,17.18,6.98,20,10,2.83,3.03,5.73,7.22,5,8-.88.93-6.87-3.22-8-4-4.53-3.14-4.87-4.43-8-6-1.3-.65-4.7-2.35-9-2-5.97.49-12.07,4.79-13,10-.04.25-.1.6,0,3,.24,6.12.85,10.69,1,12,.77,6.57-.91,6.38-1,17-.07,7.8.8,12.86,1,14,1.18,6.68,3.61,14.19,5,14,.92-.13.2-3.5,2-8,2.36-5.9,7.22-9.14,10-11,2.07-1.38,6.52-4.28,13-5,3.59-.4,8.6-.95,13,2,3.91,2.63,5.22,6.6,7,12,2.52,7.63,2.59,14.9,2,15-.36.06-.78-2.66-3-8-1.07-2.56-2.14-5.12-4-8-2.22-3.44-3.54-5.48-6-7-5.15-3.17-11.25-1.55-13-1-4.94,1.56-7.62,4.86-11,9-2.42,2.97-5.97,7.44-7,14-.32,2.03-.21,4.02,0,8,.4,7.56,1.5,6.7,2,14,.15,2.22.14,3.55,1,4,1.43.74,3.68-1.71,7-4,4.53-3.12,8.99-4.52,11-5,9.02-2.13,17.19,2.89,19,4,2.23,1.37,7.5,4.71,10,11,1.47,3.71,1.71,7.76,1,8-.64.21-1.64-2.81-5-7-.96-1.2-2.97-3.68-6-6-1.85-1.42-5.12-3.92-10-5-5.93-1.31-10.76.24-13,1-2.98,1.01-9.59,3.23-12,9-.21.51-.5,1.3-1,5-.77,5.65-.4,7.71-1,12-.57,4.05-1.56,4.16-2,8-.36,3.09.13,3.19,0,7-.22,6.32-1.78,12.2-2,13-.85,3.13-1.54,4.62-1,5,.84.58,3.06-2.66,7-5,2.99-1.78,7.37-2.21,16-3,9.97-.91,11.81-.42,13,0,5.37,1.89,9.74,6.53,9,8-.54,1.07-3.83.71-6,0-2.52-.82-3.44-2.07-5-3-2.26-1.35-4.55-1.25-12,0-9.7,1.63-14.6,2.48-17,4-1.61,1.02-5.88,3.8-8,9-1.57,3.85-1.22,7.19-1,10,1.06,13.47-1.14,11.06,0,25,.96,11.72,1.44,17.58,4,24,5.02,12.56,7.52,18.84,9,21,.81,1.19,3.03,4.31,2,7-.62,1.61-2.32,2.84-4,3Z"/>
  </g>
  <g id="Layer_10" data-name="Layer 10">
    <path class="cls-4" d="M30.5,216.5c.54-1.18,1.81-1.09,3-2,2.03-1.56,1.93-4.64,2-8,.14-6.32.2-9.48,1-12,2.25-7.09,9.05-10.54,10-11,3.99-1.95,7.56-2,10-2,2.83,0,8.68-.01,14,4,1.22.92,5.36,4.28,7,10,2.05,7.18-2.26,9.68,0,17,1.42,4.6,4.25,7.28,3,9-1.18,1.63-4.31.07-6,2-1.87,2.14.59,5.61-1,7-.45.39-1.42.79-9-2-4.97-1.83-6.25-2.63-8-2-2.12.76-1.89,2.53-4,4-4.44,3.08-13.11.52-14-3-.52-2.06,1.84-3.63,1-5-1.11-1.82-5.58.45-8-2-1.04-1.06-1.54-2.82-1-4Z"/>
    <path class="cls-4" d="M12.5,133.5c.6-3.81,4.29-6.4,8-9,3.87-2.72,7.33-3.84,11-5,6.41-2.03,9.75-3.08,14-2,1.5.38,6.03,1.78,9,6,3.21,4.57,2.62,9.63,2,15-.83,7.14-3.65,12.56-6,16-3.21,4.7-4.94,7.22-8,8-5.52,1.4-11.01-4.4-22-16-7.39-7.8-8.39-10.49-8-13Z"/>
    <path class="cls-4" d="M1.5,98.5c-.06-2.73,1.36-4.72,4-8,5.52-6.85,8.28-10.27,11-12,2.71-1.72,6.11-3.87,11-4,1.08-.03,8.52-.11,13,5,3.95,4.51.91,7.69,5,17,2.37,5.4,5.21,8.47,4,10-1.2,1.52-4.5-.89-8,1-3.08,1.67-2.18,4.43-5,6-3.03,1.68-4.92-1.03-12-1-4.86.02-6.3,1.3-8,0-2.6-2-.5-6.02-3-8-2.76-2.19-6.94,1.44-10-1-1.92-1.53-1.98-4.33-2-5Z"/>
    <path class="cls-4" d="M54.5,23.5c2.72-.53,4.86.08,8,1,3.73,1.1,5.6,1.65,6,3,.52,1.74-1.21,3.98-3,5-3.2,1.81-7.03-.05-9-1-2.61-1.26-6.56-4.04-6-6,.37-1.3,2.59-1.73,4-2Z"/>
    <path class="cls-4" d="M61.5,19.5c-4.12.09-7.26-.79-8-1-4.87-1.4-7.31-2.11-9-4-2.34-2.62-3.89-7.36-2-10,3.06-4.29,13.23-.31,14,0,1.58.64,7.01,2.82,9,8,.26.68,1.63,4.23,0,6-.44.48-1.21.94-4,1Z"/>
    <path class="cls-4" d="M101.5,70.5c-.17-2.8-.11-7.62,2-13,1.4-3.58,3.47-8.86,9-12,7.53-4.27,15.54-1.19,16-1,11.41,4.61,15.51,20.57,12,24-1.65,1.61-4.18-.32-8,2-3.27,1.99-3.4,4.61-6,5-2.36.35-2.85-1.73-6-2-3.93-.33-5.12,2.75-8,2-2.75-.71-2.71-3.79-6-5-1.85-.68-3.69-.38-5,0Z"/>
    <path class="cls-4" d="M140.5,100.5c-2.08-.3-5.87-.84-10,1-6.23,2.78-8.61,8.95-9,10-.4,1.09-.02.41-2,11-.58,3.13-1.05,5.45-3,7-1.5,1.19-2.74,1.03-3,2-.47,1.75,2.83,5.08,6,5,2.08-.05,3.07-1.54,4-1,1.45.85-.51,4.82,1,6,1.58,1.23,5.91-1.42,8-3,3.07-2.31,3.15-3.7,5-4,2.08-.34,2.78,1.29,7,3,2.47,1,6.14,2.49,8,1,1.54-1.24.31-3.31,2-5,1.9-1.9,4.59-.42,6-2,1.31-1.47.25-4.18-1-8-3.74-11.46-1.92-10.87-4-14-4.92-7.42-13.82-8.83-15-9Z"/>
    <path class="cls-4" d="M119.5,164.5c.46-1.1.92-1.88,1.07-2.13,4.06-6.74,6.93-9.87,6.93-9.87,4.24-4.63,7.13-7.78,12-9,4.84-1.21,10.71-.28,15,3,3.41,2.61,4.98,8.44,8,20,2.39,9.15,2.4,12.06,1,13-2.1,1.4-5.81-2.7-9-1-2.69,1.43-1.82,5.26-4,6-2.68.91-4.51-4.71-10-6-5.45-1.28-8.42,3.14-12,1-2.59-1.54-1.38-4.05-5-7-2.49-2.02-4.67-2.15-5-4-.2-1.12.35-2.43,1-4Z"/>
    <path class="cls-4" d="M102.5,208.39c.46-3.72,4.05-6.06,10-9.93,4.33-2.82,8.21-5.35,14-5.96,2.91-.31,7.61-.81,12,1.99,4.87,3.1,6.28,8.3,7,10.93,2.2,8.06-.73,14.91-2,17.88-2.1,4.91-3.58,8.37-7,9.93-7.89,3.61-18.68-6.23-26-12.91-8.31-7.59-8.12-10.96-8-11.92Z"/>
  </g>
  <g id="Layer_11" data-name="Layer 11">
    <path class="cls-5" d="M107.5,232.5c-4.62-.47-6.13,2.15-9,1-2.55-1.02-4.58-4.4-4-7,.86-3.82,6.97-4.23,7-7,.03-2.27-4.06-2.61-5-6-.87-3.14,1.37-7.39,4-8,2.38-.55,3.53,2.26,7,2,2.3-.17,2.42-1.46,5-2,3.23-.68,7.64.37,9,3,1.42,2.74-1.36,5.49,0,7,1.66,1.85,6.09-1.97,10,0,2.52,1.27,1.54,3.29,5,7,3.19,3.42,5.16,2.91,7,6,1.16,1.95,2.39,5.53,1,7-2.46,2.6-10.77-3.87-14-1-2.34,2.08.59,6.77-2,9-2.06,1.77-6.39.98-9-1-2.81-2.12-1.88-4.3-5-7-2.94-2.54-6.46-2.95-7-3Z"/>
    <path class="cls-5" d="M11.5,149.5c-.65-.37-2.66-1.52-4-3-2.15-2.38-3.42-6.55-2-8,1.08-1.1,2.96.15,4-1,1.16-1.27-.69-3.3,0-6,.66-2.59,3.43-4.9,6-5,2.69-.11,2.96,2.29,7,4,4.85,2.05,7.12-.27,10,2,2.55,2.01,1.22,4.2,4,7,3.11,3.13,5.76,1.38,8,4,2.8,3.28-.6,6.88,2,13,1.67,3.93,3.73,3.99,4,7,.35,3.89-2.66,8.55-6,9-2.86.38-3.28-2.69-9-5-3.96-1.6-5.36-.77-10-3-4.12-1.98-4.8-3.48-5-4-.98-2.55,1.11-3.95,0-6-.52-.96-2.68-1.97-7-4-.8-.38-1.27-.58-2-1Z"/>
  </g>
  <g id="Layer_12" data-name="Layer 12">
    <path class="cls-2" d="M27.5,145.5c-2.05.19-4.9.77-7,2.74-2.29,2.15-1.96,4.34-4,7.29-1.11,1.61-3.11,3.72-7,5.47"/>
    <path class="cls-2" d="M26.5,148.5c-3.16,1.17-4.43,2.75-5,4-1.17,2.55.49,3.95,0,9-.37,3.87-1.66,6.38-2,7-.99,1.85-2.15,3.16-3,4"/>
    <path class="cls-2" d="M27.5,149.5c.73.71,2.26,2.36,3,5,.3,1.07.99,3.53,0,6-.66,1.65-1.6,2.11-2,4-.26,1.21-.14,2.28,0,3"/>
    <path class="cls-2" d="M115.5,220.5c-.95,1.3-2.2,3.32-3,6-.81,2.72-.62,4.35-1,7-.32,2.21-1.07,5.33-3,9"/>
    <path class="cls-2" d="M116.5,224.5c.37,1.19,1.18,4.34,0,8-.79,2.46-2.15,4.12-3,5"/>
    <path class="cls-2" d="M119.5,226.5c-.02,1.6.1,4.12,1,7,1.33,4.26,3.21,5.6,4,9,.45,1.92.64,4.9-1,9"/>
  </g>
  <g id="Layer_13" data-name="Layer 13">
    <path class="cls-6" d="M86.5,254.5c-.28-1.68-1.85-2.79-5-5-2.88-2.02-5.83-4.1-10-5-4.14-.89-4.73.4-14,1-6.46.42-9.78.03-10,1-.22.97,3.02,1.74,7,5,4.11,3.37,3.75,5.1,7,8,.98.87,6.88,6.14,14,5,5.88-.95,11.64-6.12,11-10Z"/>
    <path class="cls-6" d="M90.5,254.5c-.2-1.01-.1-2.22,2-6,1.94-3.49,2.91-5.23,4-6,2.22-1.56,3.49-.76,7-3,1.06-.67,1.69-1.22,2-1,.51.36-.48,2.4-2,6-2.89,6.83-2.61,7.29-4,9-.25.31-4.23,5.12-7,4-1.49-.6-1.93-2.64-2-3Z"/>
    <path class="cls-6" d="M93.5,183.5c.17-.4.61-1.33,4-4,2.91-2.29,4.03-2.75,5-3,.98-.25,2.49-.65,3,0,.82,1.04-1.53,4.1-3,6-2.99,3.88-5.06,4.71-6,5-.8.25-2.21.69-3,0-.97-.85-.46-2.91,0-4Z"/>
    <path class="cls-6" d="M96.5,195.5c2.09-1.2,4.61-.44,6,0,1.33.42,5.08,1.61,5,3-.09,1.48-4.5,3.22-8,2-2.09-.73-4.34-2.68-4-4,.13-.49.58-.76,1-1Z"/>
    <path class="cls-1" d="M78.5,159.5c-.5-.83-4.28.34-7,2-1.89,1.15-4.39,3.22-4,4,.38.78,3.55.22,6-1,2.91-1.45,5.48-4.19,5-5Z"/>
    <path class="cls-6" d="M75.5,155.5c-2.66-.11-4.42-2.28-5-3-.85-1.05-1.24-2.04-2-4-.94-2.41-1.41-3.62-1-4,.91-.86,5.19,2.16,8,5,1.44,1.45,3.64,3.67,3,5-.53,1.1-2.74,1.01-3,1Z"/>
    <path class="cls-6" d="M95.5,135.5c-.84-1.47,1.15-3.94,2-5,1.61-2,3.37-3.05,5-4,1.34-.78,4.49-2.62,5-2,.42.51-1.44,2.04-5,7-2.25,3.14-3.27,4.99-5,5-.75,0-1.62-.34-2-1Z"/>
    <path class="cls-6" d="M76.5,118.5c-1.6-.07-3.2.34-6,2-2.41,1.43-6.43,3.81-6,5,.39,1.07,4.19.81,7,0,4.41-1.27,8.51-4.53,8-6-.3-.87-2.17-.96-3-1Z"/>
    <path class="cls-6" d="M99.5,99.5c.58,1.21,3.01,1.1,5,1,1.06-.05,4.96-.33,9-3,1.15-.76,2.13-1.42,2-2-.22-.99-3.52-.99-6-1-4.43,0-7.27.03-9,2-.07.08-1.56,1.82-1,3Z"/>
    <path class="cls-6" d="M86.5,94.5c-.17-.86-.23-2.2,1-5,1.5-3.43,4.19-7.38,5-7,.73.35-1.22,3.73-2,11-.32,3.02-.24,4.79-1,5-.91.25-2.58-1.82-3-4Z"/>
    <path class="cls-6" d="M50.5,65.5c-1.39.31-4.61,1.01-7,4-.25.32-2.96,3.75-2,5,1.02,1.32,5.91-.09,9-3,2.05-1.93,3.81-5,3-6-.45-.56-1.58-.31-3,0Z"/>
    <path class="cls-6" d="M47.5,53.5c-.3.16-.04.98,1,5,.97,3.78,1.16,4.65,2,5,1.01.42,2.52-.07,3-1,.66-1.27-.78-3.13-3-6-1.14-1.47-2.52-3.25-3-3Z"/>
    <path class="cls-6" d="M64.5,39.5c1.48,1.84,2.96,2.93,6,5,2.69,1.82,3.21,2.11,4,2,1.44-.2,2.93-1.59,3-3,.14-2.92-5.85-5.24-9-6-.73-.18-4.5-1.04-5,0-.1.21-.12.61,1,2Z"/>
    <path class="cls-6" d="M77.5,15.5c-1.17-.29-2.83,2.23-4,4-.35.53-1.22,1.91-2,4-.94,2.53-1.65,4.43-1,5,1.1.95,6.46-1.56,8-6,1.03-2.98.28-6.68-1-7Z"/>
    <path class="cls-6" d="M106.5,26.5c-1.03-.78-4.33,1.2-6,4-.56.94-1.74,3.32-1,4,1.02.93,5.75-1.29,7-5,.08-.24.81-2.4,0-3Z"/>
    <path class="cls-6" d="M84.5,63.5c-1.06-1.54,1.83-5.67,5-8,.82-.61,3.91-2.87,5-2,1.43,1.15-.37,7.98-5,10-1.65.72-4.25,1.09-5,0Z"/>
  </g>
</svg>