<?xml version="1.0" encoding="UTF-8"?>
<svg xmlns="http://www.w3.org/2000/svg" viewBox="0 0 161 277">
  <defs>
    <style>
      .cls-1 {
        fill: none;
        stroke: #006837;
        stroke-miterlimit: 10;
        stroke-width: 3px;
      }

      .cls-2 {
        fill: #e8aaa9;
      }

      .cls-3 {
        fill: #637959;
      }

      .cls-4 {
        fill: #9ab48e;
      }

      .cls-5 {
        fill: #ffd6d7;
      }

      .cls-6 {
        fill: #ffc5c4;
      }
    </style>
  </defs>
  <g id="Layer_21" data-name="Layer 21">
    <path class="cls-3" d="M94.5,103.5c-1.59.29-3.61-4.03-5-7-2.57-5.49-2.97-10.33-3-13-.02-1.47-.12-9.55,2-10,2.02-.42,5.47,6.19,7,12,2.16,8.22,1.22,17.59-1,18Z"/>
    <path class="cls-3" d="M91.5,108.5c2.89-4.25,7.33-5.99,10-7,10.31-3.89,15.46-5.83,16-5,1.24,1.91-6.35,10.46-16,14-3.84,1.41-10.04,2.77-11,1-.12-.23-.4-.94,1-3Z"/>
    <path class="cls-3" d="M85.5,134.5c-.6,1.86,5.99,5.45,7,6,7.24,3.95,17.04,6.08,18,4,.89-1.92-5.68-7.74-13-10-5.12-1.58-11.46-1.68-12,0Z"/>
    <path class="cls-3" d="M50.5,126.5c-1.77.12-3.44-5.2-4-7-2.39-7.66-2.35-17.44,0-18,2.09-.5,6.28,6.26,7,13,.6,5.59-1.11,11.87-3,12Z"/>
    <path class="cls-3" d="M30.5,186.5c1.71-1.93,9.83,1.8,15,7,2.4,2.41,6.25,7.24,5,9-1.27,1.79-7.59.08-12-3-5.66-3.95-9.62-11.16-8-13Z"/>
    <path class="cls-3" d="M65.5,233.5c-2.17-2.33,6.6-13.5,7-14,10.39-13.11,26.59-21.69,29-19,2.08,2.33-6.03,13.27-13,20-8.73,8.43-20.87,15.29-23,13Z"/>
  </g>
  <g id="Layer_20" data-name="Layer 20">
    <path class="cls-1" d="M62,275c3.15-37.1,4.47-79.44,2-126-1.95-36.83-5.98-70.64-11-101"/>
    <path class="cls-1" d="M111.5,80.5c-2.85,3.74-5.7,7.58-8.54,11.53-6.98,9.69-12.76,18.36-15.18,22.18-10.87,17.12-19.11,38.62-22.78,48.79"/>
    <path class="cls-1" d="M28.5,106.5c6.09,4.76,13.61,11.56,20.78,20.75,7.17,9.19,11.76,17.91,14.72,24.75"/>
    <path class="cls-1" d="M46.3,167.5c-.75,5.49-1.15,12.78,0,21.11,1.99,14.32,7.49,23.86,9.35,26.87,3.32,5.39,6.8,9.13,9.35,11.52"/>
    <path class="cls-1" d="M118.5,127.5c-9.59.37-17.28,1.74-22.72,3-6.99,1.62-10.9,3.23-14.2,5-3.28,1.76-5.83,3.61-7.57,5"/>
  </g>
  <g id="Layer_23" data-name="Layer 23">
    <path class="cls-6" d="M38.5,167.5c-.37-.26-1.25-1.51-3-4-2.6-3.69-3.28-4.75-4-6-2.41-4.19-2.24-5.34-2-6,.03-.07.65-1.69,2-2,3.17-.73,6.72,6.59,8,6,1.22-.56-2.51-6.9,0-12,1.78-3.61,6.5-6.21,9-5,1.98.96,1.26,3.68,2,18,.32,6.29.59,8.24-1,10-2.54,2.82-8.02,3.15-11,1Z"/>
    <path class="cls-6" d="M9.5,102.5c2.09,2.32,4.82,3.23,8,4,5.9,1.43,8.86,2.15,11,1,2.71-1.45,3.74-4.29,4-5,1.47-4.02-.85-5.64-1-12-.14-6.15,1.91-9.41,0-11-1.52-1.27-3.4.33-5-1-2.25-1.86.37-5.88-2-9-1.54-2.03-4.66-2.97-6-2-1.77,1.28-.11,5.68-1,6-1.31.47-4.4-9.19-8-9-1.99.11-3.99,3.2-4,6-.02,4.73,5.64,8.15,5,9-.54.72-4.28-2.22-6-1-1.4.99-1.06,4.43,0,7,2.89,7.03,11.53,8.64,11,11-.44,1.98-6.66,1.69-7,4-.05.35.01.9,1,2Z"/>
    <path class="cls-6" d="M43.5,43.5c-1.02-.46-1.06-.8-4-4-5.94-6.47-7-6.42-8-9-1.24-3.21.4-3.27-1-8-.73-2.46-1.79-4.5-1-7,.33-1.04.58-.91,1-2,1.47-3.84-1.05-7.15,0-8,1.22-.98,4.93,3.16,7,2,1.59-.89.38-3.86,2-5,1.94-1.37,6.56.83,9,4,2.92,3.78-.01,8.95,2,10,1.43.74,2.86-1.57,5-1,2.62.7,4.44,5.22,4,9-.4,3.45-2.4,3.85-3,8-.49,3.41.74,3.95,0,6-1.52,4.21-8.54,7.02-13,5Z"/>
    <path class="cls-6" d="M121.5,61.5c-5.5-.79-9.68.58-14,2,0,0-7.57,2.49-9,6-.12.28-1.31,3.24,0,6,.9,1.9,2.95,2.96,7,5,3.76,1.89,4.51,1.78,6,3,2.98,2.44,1.61,5.24,4,7,2.16,1.59,5.72,1.44,8,0,1.48-.93,2.42-2.41,4-12,1.94-11.77,1.22-13.75,0-15-1.29-1.32-2.86-1.55-6-2Z"/>
    <path class="cls-6" d="M122.5,64.5c-1.26,5.06,3.94,10.05,7,13,3.01,2.89,5.25,5.05,9,6,6.72,1.71,14.37-1.43,18-7,.93-1.43,3.19-4.89,2-8-1.05-2.75-3.97-3.07-14-6-11.57-3.38-14.55-4.95-18-3-.34.19-3.22,1.88-4,5Z"/>
    <path class="cls-6" d="M114.5,33.5c-1.69,1.1-1.89,3.58-2,5-.33,4.16,1.88,5.61,5,13,2.17,5.13,2.02,6.62,4,8,2.12,1.48,4.22,1.12,8,1,12.51-.4,15.09,2.78,19,0,2.77-1.97,4.75-5.88,4-9-1.35-5.62-11.66-9.05-17-8-.51.1-1.65.37-3,0-2.56-.71-3.48-3.06-5-5-3.44-4.38-10.11-6.88-13-5Z"/>
    <path class="cls-6" d="M123.5,57.5c.87-3.51-1.19-6.55-5-12-5.13-7.33-8.06-11.52-13-12-2.66-.26-6.4.52-8,3-1.52,2.36.31,4.03,0,10-.22,4.4-1.47,8.34-2,10-1.45,4.5-2.51,5.29-2,7,1.14,3.86,8.04,4.86,9,5,8.09,1.18,14.38-3.73,16-5,2.45-1.92,4.36-3.41,5-6Z"/>
    <path class="cls-6" d="M116.5,121.5c.78-2.14,1.62-2.85,4-6,6.14-8.11,6.46-11.16,10-12,1.86-.44,4.37-.22,5,1,.47.9-.09,2.33-6,11-1.58,2.32-2.39,3.47-2,4,.59.79,3.25-.69,8-2,3.91-1.08,9.05-2.49,10-1,.92,1.45-1.86,6.05-6,8-4.7,2.21-8.88-.05-10,2-.76,1.4.42,3.86,2,5,1.41,1.02,2.52.53,5,1,3.26.61,7.08,2.54,7,4-.09,1.55-4.59,2.78-8,3-7.22.47-12.61-3.32-15-5-2.97-2.09-3.75-3.5-4-4-1.9-3.76-.41-7.87,0-9Z"/>
  </g>
  <g id="Layer_22" data-name="Layer 22">
    <path class="cls-4" d="M37.5,166.5c-1.28,1.65,1.97,6.38,5,9,1.42,1.22,2.62,2.23,4,2,2.5-.42,3.75-4.57,4-7,.23-2.24.25-5.6-1-6-.62-.2-1.19.46-2,1-3.94,2.65-8.68-.7-10,1Z"/>
    <path class="cls-4" d="M23.5,110.5c.16,1.8,5.13,2.81,8,3,2.69.18,4.74.32,6-1,2.7-2.83-1.1-9.44-2-11-.91-1.57-1.48-2.02-2-2-1.19.05-1.38,2.52-3,5-2.82,4.29-7.15,4.3-7,6Z"/>
    <path class="cls-4" d="M41.5,42.5c-.36,1.52,2.85,3.48,7,6,3.55,2.16,4.54,2.08,5,2,3.34-.6,4.71-5.87,5-7,.95-3.67.68-8.5-1-9-1.21-.36-1.97,1.88-5,4-5.33,3.73-10.56,2.12-11,4Z"/>
    <path class="cls-4" d="M115.5,119.5c-3.32-.76-6.59,2.39-8,5-.64,1.2-1.35,2.51-1,4,.68,2.91,4.78,3.94,9,5,2.7.68,3.55.46,4,0,.64-.65.28-1.58,0-4-.59-5.02.32-6.23-1-8-.17-.23-1.22-1.59-3-2Z"/>
  </g>
  <g id="Layer_24" data-name="Layer 24">
    <path class="cls-2" d="M119.5,56.5c-1.33.9-1.8,2.38-2,3-.6,1.89-.15,3.48,0,4,.22.74.92,3.13,3,4,2.39,1,5.65-.43,7-3,1.15-2.19.87-5.12-1-7-1.9-1.91-5.04-2.32-7-1Z"/>
  </g>
  <g id="Layer_25" data-name="Layer 25">
    <path class="cls-5" d="M103,35c.26-.49,4.49.51,8,3,7.83,5.56,9.54,16.78,9,17-.2.08-.6-1.31-3-5-1.82-2.8-4.24-6.47-8-10-3.55-3.33-6.22-4.59-6-5Z"/>
    <path class="cls-5" d="M100,73c-.2-.22,1.89-2.97,5-5,5.13-3.35,10.92-3.35,11-3,.07.31-4.33.75-10,4-3.7,2.12-5.81,4.21-6,4Z"/>
    <path class="cls-5" d="M130,63c.03-.28,5.71-.11,12,1,7.68,1.35,14.07,3.72,14,4-.05.18-2.83-.58-10-2-10.69-2.12-16.03-2.73-16-3Z"/>
    <path class="cls-5" d="M128,52c1.09-1.48,3-3.61,6-5,4.91-2.28,9.98-1.31,10-1,.02.27-3.93.03-9,2-3.11,1.21-5.46,2.79-7,4Z"/>
    <path class="cls-5" d="M24,105c-.79,1.35-10.05-1.51-10-4,.04-1.73,4.54-1.77,5-4,.8-3.89-11.91-8.7-11-12,.39-1.43,2.94-1.08,4-3,.7-1.28-.34-2.47-3-9-.9-2.22-1.14-2.92-1-3,.27-.15,1.87,2.1,3,4,1.93,3.22,4.58,7.65,3,10-.97,1.45-2.86,1.08-3,2-.21,1.41,4.34,2.1,8,6,2.1,2.24,3.98,5.61,3,7-.9,1.27-3.94.54-4,1-.06.45,2.99.67,5,3,.39.45,1.29,1.5,1,2Z"/>
    <path class="cls-5" d="M43,38c-.59.4-4.48-3.32-7-8-3.84-7.13-3.65-14.87-3-15,.29-.06.67,1.45,2,5,4.37,11.64,8.7,17.52,8,18Z"/>
    <path class="cls-4" d="M70,230c.25.31,4.83-2.67,9-6,11.33-9.05,18.4-19.66,18-20-.18-.15-1.79,1.87-8,8-11.56,11.41-19.34,17.57-19,18Z"/>
    <path class="cls-4" d="M33,191c.81-.94,13.58,7.93,13,9-.28.52-3.72-.74-6-2-4.34-2.4-7.46-6.46-7-7Z"/>
    <path class="cls-4" d="M91,135c.05-.21,4.31.09,9,2,4.79,1.95,8.11,4.82,8,5-.1.16-2.96-1.9-8-4-5.32-2.22-9.04-2.8-9-3Z"/>
    <path class="cls-4" d="M94,110c.1.29,5.92-.7,12-4,6.17-3.35,10.19-7.75,10-8-.18-.23-3.99,3.23-11,7-6.52,3.5-11.09,4.74-11,5Z"/>
    <path class="cls-4" d="M93,98c-.18.06-2.94-5.07-4-12-.92-6.04-.19-11,0-11,.19,0-.24,4.99,1,12,1.2,6.73,3.16,10.94,3,11Z"/>
    <path class="cls-4" d="M48,104c.32-.14,3.13,3.81,4,9,.9,5.36-.61,10.03-1,10-.39-.03.52-4.93-1-12-.94-4.38-2.25-6.89-2-7Z"/>
  </g>
</svg>